<svg width="434" height="309" viewBox="0 0 434 309" fill="none" xmlns="http://www.w3.org/2000/svg">
<g clip-path="url(#clip0)">
<path opacity="0.11" d="M99.7443 224.365C96.6075 224.646 93.4879 224.97 90.3855 225.34C76.2939 227.02 62.845 230.333 54.0395 235.437C35.6414 246.112 54.8162 251.223 66.8628 257.965C67.8149 258.499 68.791 259.053 69.2962 259.773C69.6407 260.315 69.8089 260.95 69.7774 261.591C70.0764 279.884 33.6342 275.249 15.2636 280.662C4.86333 283.727 -2.35775 289.413 0.711465 294.733C7.44449 306.407 43.354 306.693 64.6151 307.096C160.338 308.914 256.319 311.07 351.513 304.944C372.042 303.621 392.454 301.955 412.894 300.398C422.249 299.689 433.959 297.833 433.993 293.676C434.021 290.783 427.844 288.624 421.754 287.495C411.099 285.518 397.176 283.796 399.19 277.326C399.926 274.967 403.394 272.801 408.216 271.692C411.938 270.838 416.221 270.61 420.245 270.097C424.27 269.584 428.418 268.637 430.116 266.953C434.687 262.418 423.177 259.722 415.076 259.305C405.374 258.809 397.462 255.624 400.809 250.813C403.139 247.462 410.721 245.2 413.028 241.859C413.453 241.255 413.705 240.545 413.759 239.808C413.813 239.07 413.666 238.332 413.334 237.672C411.533 233.643 404.648 230.316 396.52 228.264C388.391 226.211 379.098 225.264 369.876 224.527C333.761 221.624 296.827 221.366 260.107 221.428C230.762 221.467 201.421 221.697 172.086 222.117C147.91 222.461 123.363 222.251 99.7443 224.365Z" fill="#272525"/>
<path d="M358.737 220.832C362.195 223.883 362.996 229.734 363.226 234.183C363.569 240.767 361.339 246.474 359.555 252.662C359.425 253.116 359.256 253.619 358.837 253.84C358.578 253.941 358.292 253.947 358.029 253.856C357.766 253.765 357.545 253.584 357.404 253.344C357.137 252.852 357.031 252.288 357.101 251.732C357.204 249.914 357.909 248.195 358.421 246.446C360.115 240.654 359.452 234.259 356.156 229.228C354.86 227.248 352.619 225.181 354.032 220.694C354.946 217.757 356.538 218.893 358.737 220.832Z" fill="#59595B"/>
<path d="M346.959 238.075C342.147 237.042 337.033 237.483 332.063 237.961C326.643 238.485 320.982 239.143 316.507 241.711C314.215 243.03 312.039 245.179 311.183 247.948C310.798 249.147 310.774 250.434 311.114 251.646C311.279 252.194 311.486 252.828 311.692 253.337C311.998 254.102 312.524 254.181 313.221 254.398C314.094 254.67 314.84 255.283 315.627 255.81C319.226 258.269 323.302 258.279 327.364 258.799C331.444 259.352 335.55 259.688 339.665 259.804C346.371 259.942 358.201 259.35 360.287 252.487C362.219 246.078 353.341 239.421 346.959 238.075Z" fill="#59595B"/>
<path d="M319.793 250.627C319.088 251.188 318.266 251.581 317.387 251.777C314.638 252.576 312.575 254.188 309.719 254.157C300.013 254.095 299.752 240.795 308.344 237.42C314.871 234.858 327.042 244.053 319.793 250.627Z" fill="#59595B"/>
<path d="M349.904 249.456C351.414 248.185 353.071 247.102 354.84 246.229C355.203 246.015 355.603 245.873 356.019 245.809C356.449 245.788 356.878 245.876 357.266 246.064C359.645 247.097 360.896 250.176 359.916 252.579C359.575 253.342 359.123 254.05 358.576 254.68C357.091 256.512 355.355 258.158 354.108 260.162C351.829 263.844 353.049 266.795 354.06 270.614C354.17 270.973 354.236 271.344 354.255 271.719C354.273 273.524 353.774 275.228 351.637 275.421C351.045 275.473 350.375 275.135 350.262 274.55C350.08 273.538 351.265 273.348 351.506 272.58C351.746 271.812 350.97 271 350.602 270.376C349.618 268.733 348.727 267.035 347.935 265.29C346.481 262.039 345.288 258.124 346.374 254.577C347.024 252.521 348.32 250.844 349.904 249.456Z" fill="#59595B"/>
<path d="M336.479 267.918C336.205 268.382 336.084 268.923 336.136 269.46C336.269 269.897 336.516 270.29 336.851 270.6L338.854 272.808C339.473 273.496 340.154 274.209 341.054 274.409C341.955 274.609 343.082 273.982 343.023 273.059C342.948 271.885 341.339 271.599 340.542 270.734C339.573 269.701 339.982 267.979 340.686 266.747C341.964 264.52 343.966 262.801 346.357 261.877C347.137 261.578 347.966 261.361 348.643 260.872C349.32 260.383 349.818 259.515 349.578 258.713C348.547 255.286 343.67 255.073 341.865 257.432C339.645 260.341 338.009 264.584 336.479 267.918Z" fill="#59595B"/>
<path d="M323.787 270.511C324.02 270.983 324.285 271.482 324.728 271.709C325.116 271.865 325.539 271.904 325.949 271.823L328.65 271.544C329.485 271.458 330.369 271.344 331.011 270.742C331.654 270.139 331.798 268.861 331.094 268.355C330.197 267.711 329.114 268.827 328.049 268.947C324.697 269.333 323.924 263.589 325.392 261.371C325.694 260.913 326.062 260.51 326.399 260.083C327.147 259.148 327.729 258.09 328.117 256.957C328.585 255.531 328.461 255.968 327.588 255.452C325.811 254.377 323.807 253.668 321.824 254.474C319.951 255.231 318.494 257.683 319.075 259.897C319.982 263.441 322.185 267.288 323.787 270.511Z" fill="#59595B"/>
<path d="M321.632 261.957C321.781 263.229 321.846 264.509 321.828 265.789C321.773 267.222 321.511 268.661 321.714 270.08C321.917 271.499 322.604 272.852 322.876 274.292C323.006 274.795 322.974 275.327 322.783 275.811C322.56 276.265 321.993 276.544 321.594 276.262C320.192 273.996 318.751 271.623 318.404 268.913C318.116 266.671 318.59 264.288 317.82 262.184C317.322 260.806 316.366 259.746 315.799 258.427C315.28 257.225 314.637 255.761 315.019 254.422C315.232 253.675 315.847 253.361 315.981 252.621C316.002 252.5 316.043 252.359 316.15 252.328C316.218 252.317 316.288 252.332 316.346 252.369C317.59 252.972 320.357 253.644 320.968 255.011C321.333 255.827 321.195 257.301 321.281 258.21L321.632 261.957Z" fill="#59595B"/>
<path d="M320.913 240.771C320.913 240.771 319.841 250.703 314.108 254.019L312.331 253.998C312.331 253.998 318.58 247.962 319.659 239.824L320.913 240.771Z" fill="#E89F40"/>
<path d="M312.675 254.022C313.706 254.366 313.397 254.435 313.847 255.358C314.122 255.919 314.218 256.632 313.864 257.149C313.708 257.347 313.51 257.507 313.284 257.617C313.058 257.727 312.81 257.785 312.558 257.786C311.441 257.844 310.29 257.011 310.152 255.899C310.015 254.786 311.118 253.65 312.214 253.891L312.675 254.022Z" fill="#7C2B4A"/>
<path d="M304 234.094C303.978 234.084 303.953 234.081 303.929 234.085C303.905 234.09 303.882 234.101 303.865 234.118C303.847 234.135 303.835 234.157 303.83 234.181C303.824 234.205 303.826 234.229 303.835 234.252C304.047 235.03 304.122 235.839 304.058 236.642L303.928 242.434C303.959 241.129 312.317 245.303 311.455 240.713C310.95 238.061 306.378 235.272 304 234.094Z" fill="#59595B"/>
<path d="M308.001 233.191C307.978 233.181 307.953 233.178 307.929 233.183C307.905 233.187 307.883 233.198 307.865 233.215C307.848 233.232 307.836 233.254 307.83 233.278C307.825 233.302 307.827 233.327 307.836 233.349C308.047 234.127 308.123 234.936 308.059 235.739L307.925 241.532C307.956 240.226 316.315 244.4 315.452 239.81C314.95 237.158 310.379 234.369 308.001 233.191Z" fill="#59595B"/>
<path d="M110.739 150.368L112.406 146.604L111.049 143.24L111.616 142.589L112.444 143.257L112.114 140.141L113.52 138.023L116.895 137.909L119.72 139.965L119.476 143.333L117.225 146.66L115.166 151.908L110.739 150.368Z" fill="#EACDB0"/>
<path d="M111.379 147.083L98.8095 168.968L84.5117 169.367L78.2667 186.675L104.46 189.323L119.321 148.14L111.379 147.083Z" fill="#59595B"/>
<path d="M99.8818 287.423L106.8 292.048V295.223L100.748 296.376L91.2344 291.758L92.1005 287.423H99.8818Z" fill="#59595B"/>
<path d="M75.0015 169.559L68.0726 170.4C67.6469 168.588 67.3665 166.746 67.2339 164.89C65.2027 164.649 62.8071 164.139 62.0372 162.238C61.8299 161.626 61.7265 160.984 61.7314 160.337L61.3464 152.341C61.3017 151.418 61.2605 150.468 61.5733 149.586C62.1232 148.064 63.6354 147.114 65.1271 146.487C68.9387 144.91 73.4514 144.806 77.1084 146.721C78.1067 147.193 78.9636 147.92 79.5933 148.828C80.4972 150.261 80.4628 152.076 80.401 153.77L80.2257 158.464C80.157 160.261 79.9473 162.338 78.4522 163.34C77.6583 163.874 76.6134 164.001 75.9398 164.68C74.7472 165.899 75.3933 167.92 75.0015 169.559Z" fill="#EACDB0"/>
<path d="M92.1932 138.856C92.4352 138.129 92.7257 137.419 93.0628 136.731C93.8018 135.247 94.8122 133.89 95.3209 132.313C95.8296 130.736 95.6955 128.78 94.4273 127.716C93.6093 127.027 92.4888 126.844 91.4234 126.772C87.8925 126.541 84.3643 127.262 81.2053 128.859C78.2151 130.374 75.6786 132.347 72.2245 131.865C68.9765 131.414 66.9143 132.354 64.0307 134.172C60.9099 136.142 56.4247 137.444 53.7198 139.841C52.6253 140.879 51.7995 142.168 51.3139 143.598C50.4414 146.065 50.2768 148.729 50.8388 151.285C51.4007 153.842 52.6668 156.189 54.4931 158.061C55.3331 158.875 56.2429 159.614 57.2118 160.269C59.1983 161.646 61.587 163.368 63.931 163.519C63.5461 161.536 60.3669 155.719 61.5252 153.763C63.3536 150.664 68.9765 150.347 72.0904 150.32C75.4896 150.282 78.8956 151.938 82.2226 151.697C84.6285 151.535 87.3196 149.734 89.0209 148.095C91.1244 146.081 91.2928 141.511 92.1932 138.856Z" fill="#363636"/>
<path d="M35.3114 285.356L38.061 290.177L37.7173 293.277L33.5929 293.965L27.4064 290.177L29.4686 277.091L35.3114 275.37V285.356Z" fill="#59595B"/>
<path d="M38.061 241.625C38.061 241.625 31.5307 253.678 40.4668 261.254C49.403 268.83 64.8693 280.883 64.8693 280.883L35.6551 274.34L33.5929 284.671C33.5929 284.671 77.9298 299.479 78.9609 298.446C79.992 297.413 90.9903 287.77 90.9903 287.77L67.2752 235.771L41.1542 238.87L38.061 241.625Z" fill="#8E9BA2"/>
<path d="M107.477 234.049C105.328 231.771 103.368 229.323 101.614 226.728C97.8938 221.173 95.5945 214.787 94.9187 208.132C94.6076 204.794 94.5456 201.437 94.7331 198.09C94.8156 196.282 94.9497 194.474 95.1009 192.673C95.1868 191.64 96.1767 187.952 95.6267 187.163C90.0554 179.005 89.3852 172.982 80.2669 172.011C59.4664 169.762 60.6453 171.03 53.5754 179.642C50.733 183.107 45.4779 193.045 43.6632 197.098C41.4635 202.009 39.3257 206.947 37.3495 211.951C35.1464 217.533 33.1461 223.201 31.5066 228.973C31.3245 229.613 30.7402 231.383 30.1318 233.539C28.953 237.599 27.6332 242.985 28.5921 244.559C29.0904 245.857 30.4137 247.241 33.6066 247.882C40.4806 249.259 45.9797 249.259 53.541 245.471C61.1024 241.683 73.6301 244.373 73.6301 244.373C75.6133 244.845 77.6754 245.396 79.906 245.878C96.022 249.48 104.35 239.59 106.965 237.796C109.247 236.236 107.477 234.049 107.477 234.049Z" fill="#59595B"/>
<path d="M71.7433 243.347L108.863 226.128L118.486 238.526L101.989 289.147L90.9903 287.77L94.0836 257.466C94.0836 257.466 84.8038 265.386 68.3063 264.697C60.745 257.121 60.745 257.466 60.745 257.466L71.7433 243.347Z" fill="#8E9BA2"/>
<path d="M281.007 36.4443L86.7456 100.841L203.912 129.317L281.007 36.4443Z" fill="#3A6594"/>
<path d="M81.6761 106.954L123.068 232.303L305.169 171.929C318.951 167.362 326.168 151.704 321.288 136.955L288.705 38.3179L206.562 137.303L81.6761 106.954Z" fill="#3A6594"/>
<path d="M246.152 47.9978C246.452 49.759 246.884 51.4949 247.445 53.1909C249.132 58.3253 251.981 62.9994 255.769 66.8484L281.007 36.4443L246.152 47.9978Z" fill="#31556F"/>
<path d="M291.871 75.5749C294.652 74.6544 297.307 73.39 299.776 71.8109L288.705 38.3179L261.247 71.3977C265.695 74.3891 270.768 76.3209 276.076 77.0449C281.384 77.7689 286.787 77.2661 291.871 75.5749Z" fill="#31556F"/>
<path d="M298.74 68.6729C317.175 62.5605 327.175 42.6316 321.074 24.1604C314.974 5.68922 295.084 -4.32963 276.648 1.78272C258.213 7.89506 248.214 27.824 254.314 46.2952C260.415 64.7664 280.305 74.7852 298.74 68.6729Z" fill="#A06652"/>
<path d="M289.984 51.0148L282.681 28.8996L277.834 30.5078L275.728 24.1267L287.674 20.1699L297.085 48.6663L289.984 51.0148Z" fill="white"/>
<path d="M311.211 87.4699L309.372 85.0594L306.598 80.042L302.797 78.7368L298.745 81.0957C298.745 81.0957 299.697 82.79 301.123 82.6006L303.268 82.3182L304.773 87.005C304.8 87.0949 304.833 87.1824 304.873 87.2668L305.461 89.023C305.461 89.023 307.523 90.4487 307.867 90.1043C308.037 89.9526 308.216 89.8112 308.403 89.6808L308.997 89.9391L311.211 87.4699Z" fill="#B99A6F"/>
<path d="M403.205 278.107L404.105 282.047L397.142 287.791L392.31 284.75L395.341 279.911L402.308 274.167L403.205 278.107Z" fill="#59595B"/>
<path d="M388.402 156.35L391.134 168.316L387.051 223.814L403.328 276.744L395.884 280.094L362.882 218.862L359.067 199.361L357.404 158.189L388.402 156.35Z" fill="#293A53"/>
<path d="M332.64 155.613L335.472 207.123L349.571 272.839L357.012 272.343L357.637 210.794L363.748 148.877L332.64 155.613Z" fill="#293A53"/>
<path d="M357.18 275.49L349.399 280.06L345.106 276.296L348.863 271.995L356.912 271.458L357.18 275.49Z" fill="#59595B"/>
<path d="M370.481 81.6498C375.314 82.8929 379.586 85.5376 382.476 90.9476C384.996 95.6724 385.913 101.11 386.814 106.444C389.361 121.686 390.44 138.436 396.159 152.899C398.641 159.194 400.971 162.91 400.548 170.159C400.438 172.135 395.829 190.542 395.863 190.563C389.437 186.45 381.842 184.561 374.241 185.187C367.488 185.762 322.945 199.571 317.903 192.608C316.803 191.093 324.165 169.56 324.828 166.402C327.005 156.034 329.193 145.667 331.393 135.302C333.833 123.8 336.301 112.25 340.449 101.251C341.854 97.5298 343.447 93.8828 345.223 90.3243C346.344 88.0791 348.571 81.6325 350.904 80.5374C352.829 79.6352 357.328 80.627 359.521 80.6201C363.195 80.6098 366.9 80.7268 370.481 81.6498Z" fill="#DAD9CA"/>
<path d="M372.537 60.0992C367.972 50.3674 352.788 48.6145 350.77 60.8051C350.162 64.4692 349.994 68.2985 351.114 71.8248C352.235 75.3511 354.874 78.5675 358.421 79.6454H358.483L358.424 82.5105C358.396 82.619 358.396 82.7331 358.425 82.8415C358.454 82.9499 358.511 83.0488 358.589 83.1285C358.668 83.2082 358.766 83.2658 358.874 83.2958C358.982 83.3257 359.096 83.3268 359.205 83.2991L362.621 83.3955C363.185 83.4548 363.755 83.3841 364.288 83.1889C365.412 82.6724 365.731 81.2123 365.635 79.976C365.611 79.6798 365.573 79.3837 365.532 79.0875C371.88 76.0433 375.52 66.463 372.537 60.0992Z" fill="#B99A6F"/>
<path d="M355.671 43.7347C352.956 43.2802 350.592 45.8836 348.059 47.2266C345.948 48.3458 343.591 48.6041 341.394 49.527C339.198 50.4499 337.05 52.4059 336.957 54.906C334.782 53.7214 332.427 52.4954 329.959 52.9397C327.492 53.3839 325.148 56.2731 326.096 58.7147C326.935 60.9014 329.753 61.4696 330.657 63.615C332.087 67.0208 327.969 72.2001 330.674 74.4901C331.324 75.0411 332.221 75.1788 332.86 75.7539C333.654 76.4427 333.891 77.6445 334.235 78.7052C335.775 83.5056 340.521 86.7048 345.271 86.1504C348.244 84.8177 350.643 82.018 351.753 78.7499C353.094 74.8276 351.011 73.4122 350.722 69.7069C350.43 65.5807 351.729 61.4995 354.352 58.3049C356.043 56.2903 358.442 54.5685 360.947 54.3722C361.978 54.293 361.635 55.1367 362.789 54.3722C363.288 54.0279 363.979 52.7744 364.13 52.1648C361.435 49.9058 359.242 44.3408 355.671 43.7347Z" fill="#483D3F"/>
<path d="M356.259 80.8057L330.908 105.032L330.726 105.118L310.252 85.1688L305.622 89.7041L326.883 122.13C327.1 122.56 327.227 122.818 327.227 122.818L353.692 110.741L365.075 86.2535L356.259 80.8057Z" fill="#DAD9CA"/>
<path d="M316.005 54.0347L313.304 47.0716L316.222 45.7871L319.126 50.1433L320.222 48.8933L321.814 55.1298L318.958 56.8792L316.005 54.0347Z" fill="#B99A6F"/>
<path d="M370.299 81.8287C366.907 80.3204 362.37 80.6716 357.771 80.5304L341.563 80.0345L321.972 52.8296L316.473 56.5901L332.492 93.8299L353.719 99.2984C357.62 100.304 362.147 102.253 366.178 102.487C372.11 102.832 376.489 95.7204 375.654 90.09C374.973 85.4032 372.994 83.0236 370.299 81.8287Z" fill="#E3E1D4"/>
<path d="M385.016 49.5132C386.415 49.9299 387.938 49.8989 389.268 50.5119C391.261 51.4313 391.103 53.5182 391.639 55.333C392.234 57.3544 393.1 60.068 394.389 61.6521C395.324 62.7954 396.644 63.46 397.792 64.352C398.939 65.2439 399.981 66.5421 399.929 68.109C399.881 69.5932 398.86 70.9087 398.689 72.386C398.472 74.5934 398.833 75.7298 398.115 77.9785C397.743 79.139 397.327 80.365 396.441 81.1433C395.272 82.1764 393.633 82.1213 392.2 81.8561C390.766 81.5909 389.285 81.1674 387.855 81.615C384.762 82.5965 385.277 85.7268 384.418 88.3267C383.102 92.2835 378.459 94.5253 374.96 93.0446C371.994 91.7911 370.327 88.2889 370.523 84.8624C370.619 83.1406 371.33 81.5599 371.409 79.8416C371.485 78.1852 370.595 75.8745 372.117 74.5831C372.489 74.2697 372.959 74.1079 373.293 73.7497C373.554 73.4396 373.733 73.0691 373.815 72.6718C373.986 72.0044 374.01 71.3077 373.886 70.6299C373.762 69.9522 373.493 69.3094 373.097 68.7461C372.53 67.9816 371.722 67.4168 371.378 66.5008C370.99 65.4677 371.334 64.2383 371.423 63.0881C371.64 60.3091 370.169 57.5507 367.873 56.435C366.36 55.7015 364.993 55.2572 363.68 54.1553C363.48 53.9865 360.494 51.2488 360.404 51.8274C360.559 50.8184 361.164 49.9471 361.779 49.1482C362.783 47.8327 363.893 46.5551 365.288 45.7803C369.797 43.2802 369.907 49.279 373.502 48.5559C374.369 48.3803 375.035 47.5985 375.822 47.1371C377.307 46.2693 379.108 46.6205 380.596 47.3162C382.085 48.0118 383.442 49.0414 385.016 49.5132Z" fill="#483D3F"/>
<path d="M113.561 213.938L117.503 215.088L120.651 213.291L121.37 213.766L120.823 214.675L123.858 213.934L126.14 215.047L126.704 218.384L125.051 221.462L121.686 221.672L118.094 219.878L112.63 218.539L113.561 213.938Z" fill="#EACDB0"/>
<path d="M117.51 213.342L93.7125 202.026L90.932 183.362L76.5827 170.878L76.5345 208.91L117.524 221.369L117.51 213.342Z" fill="#59595B"/>
<path d="M60.391 164.25L55.3867 179.546L92.9528 184.677L92.6366 175.001L60.391 164.25Z" fill="#2E4661"/>
<path d="M79.4043 163.957L71.4477 167.934L59.8857 180.159L67.0793 239.855L90.4301 232.943L77.4933 183.276L88.9797 173.781L91.7945 169.249L79.4043 163.957Z" fill="#344E67"/>
<rect x="-16" y="-51" width="497" height="360" fill="white" fill-opacity="0.5"/>
</g>
<defs>
<clipPath id="clip0">
<rect width="434" height="309" fill="white"/>
</clipPath>
</defs>
</svg>
