<svg width="300" height="130" viewBox="0 0 300 130" fill="none" xmlns="http://www.w3.org/2000/svg">
<path d="M246.736 72.8195C250.457 68.0572 250.468 57.9141 244.428 58.1274C237.444 58.3742 230.462 60.6612 226.108 67.3973C219.694 77.3222 221.903 81.3438 225.089 82.9612C227.96 84.4195 232.579 86.4224 235.303 84.7036C237.685 83.201 241.289 79.7946 246.736 72.8195Z" fill="#BBD070"/>
<path d="M271.032 17.6186C271.859 14.6053 270.058 11.5479 266.938 11.3713C258.306 10.8828 241.197 13.4752 228.736 38.1096C225.804 43.906 222.922 48.7994 220.157 52.9293C216.432 58.4928 222.492 73.4406 228.707 70.9507C244.611 64.579 262.145 50.0165 271.032 17.6186Z" fill="#97A43C"/>
<path d="M206.767 77.062C209.072 88.4534 234.483 66.4871 236.984 46.7888C238.556 34.4153 237.174 24.1106 237.181 15.0261C237.185 9.56925 231.146 5.13466 227.082 8.77598C215 19.6002 199.493 41.1205 206.767 77.062Z" fill="#48753A"/>
<path d="M199.892 19.9985C201.596 19.9945 203.315 19.162 204.481 17.919C206.008 16.2919 208.204 15.2715 210.644 15.2715C213.768 15.2715 216.49 16.9427 217.921 19.4171C218.518 20.4486 219.764 21.082 220.956 21.0834C222.072 21.0834 223.117 21.3847 224.009 21.9086C226.866 23.5868 224.198 26.868 220.884 26.868H197.54C194.227 26.868 191.628 23.7585 194.284 21.7775C195.767 20.672 197.734 19.9985 199.892 19.9985Z" fill="white"/>
<path d="M252.263 42.8434C253.562 42.8402 254.872 42.2052 255.762 41.2574C256.926 40.0165 258.6 39.2384 260.461 39.2384C262.842 39.2384 264.918 40.5129 266.01 42.4002C266.465 43.1869 267.416 43.6696 268.324 43.6707C268.67 43.6707 269.007 43.7086 269.331 43.7804C272.566 44.4979 270.159 48.0801 266.845 48.0801H251.895C248.581 48.0801 246.191 44.8377 249.215 43.4806C250.12 43.0743 251.158 42.8434 252.263 42.8434Z" fill="white"/>
<path d="M256.787 60.0029C251.512 59.9954 246.296 60.9834 241.395 62.9019C238.575 64.0059 235.289 63.2674 233.336 60.9527C221.484 46.9088 203.985 38.0214 184.462 38.0214C160.97 38.0214 140.407 50.8853 129.092 70.1205C127.437 72.9341 123.962 74.1718 120.782 73.4334C118.551 72.9154 116.266 72.6528 113.966 72.6548C96.907 72.6548 83.08 86.8435 83.08 104.345C83.0784 105.707 83.1627 107.066 83.332 108.414C83.6689 111.097 86.0979 112.903 88.8024 112.903H294.237C297.115 112.903 299.631 110.861 299.86 107.992C299.957 106.78 300.005 105.563 300.004 104.345C300 79.8572 280.652 60.0029 256.787 60.0029Z" fill="url(#paint0_linear)"/>
<path d="M75.6038 111.096C75.3264 111.096 75.1018 111.321 75.1018 111.598V122.927C75.1018 123.205 75.3265 123.429 75.6038 123.429C75.881 123.429 76.1058 123.654 76.1058 123.931V124.229C76.1058 124.67 75.7479 125.028 75.3063 125.028H34.5972C33.49 125.028 32.4281 124.577 31.6448 123.774C30.8615 122.971 30.4207 121.882 30.4193 120.746V113.784C30.4193 113.221 30.5274 112.664 30.7374 112.143C30.9474 111.623 31.2552 111.15 31.6433 110.752C32.0313 110.354 32.492 110.038 32.999 109.823C33.5061 109.607 34.0495 109.496 34.5983 109.496H75.3059C75.7477 109.496 76.1058 109.854 76.1058 110.296V110.593C76.1058 110.87 75.8811 111.095 75.6038 111.096Z" fill="#FF9F55"/>
<path d="M37.6617 111.096H69.101C72.4147 111.096 75.101 113.783 75.101 117.096V117.43C75.101 120.743 72.4147 123.43 69.101 123.43H37.6617C36.5534 123.43 35.4905 122.978 34.7068 122.174C33.9231 121.369 33.4828 120.279 33.4828 119.141V115.379C33.4842 114.243 33.9251 113.153 34.7087 112.35C35.4922 111.547 36.5543 111.096 37.6617 111.096Z" fill="#EFF7FE"/>
<path d="M5.25 91.4254C5.25 91.4266 5.25098 91.4276 5.25218 91.4276H61.9416C65.2553 91.4276 67.9416 94.1139 67.9416 97.4276V103.496C67.9416 106.81 65.2553 109.496 61.9416 109.496H5.25C3.85761 109.496 2.52226 108.929 1.53769 107.918C0.553124 106.908 0 105.538 0 104.109L0 96.8105C0 95.3817 0.553124 94.0114 1.53769 93.0011C2.52174 91.9913 3.85622 91.4238 5.24782 91.4232C5.24902 91.4232 5.25 91.4242 5.25 91.4254Z" fill="url(#paint1_linear)"/>
<path d="M79.4952 93.2861C79.2561 93.2873 79.0629 93.4815 79.0629 93.7206V107.205C79.0629 107.444 79.2564 107.637 79.4952 107.637C79.734 107.637 79.9276 107.831 79.9276 108.07V108.565C79.9276 109.077 79.5122 109.493 78.9999 109.493H45.8302C44.4378 109.493 43.1025 108.925 42.1179 107.915C41.1333 106.905 40.5802 105.534 40.5802 104.106V96.8158C40.5802 95.387 41.1333 94.0167 42.1179 93.0064C43.1025 91.9961 44.4378 91.4285 45.8302 91.4285H78.9975C79.5112 91.4285 79.9276 91.8449 79.9276 92.3585V92.8515C79.9276 93.0907 79.7344 93.2849 79.4952 93.2861Z" fill="#5284FC"/>
<path d="M13.8036 71.5535C14.0445 71.5535 14.2397 71.7487 14.2397 71.9895V88.7092C14.2397 88.95 14.0445 89.1452 13.8036 89.1452C13.5628 89.1452 13.3676 89.3405 13.3676 89.5813V90.2852C13.3676 90.9148 13.878 91.4252 14.5076 91.4252H47.3394C48.8463 91.4252 50.2915 90.811 51.3571 89.7175C52.4226 88.6241 53.0212 87.1411 53.0212 85.5948V75.1039C53.0212 73.5576 52.4226 72.0746 51.3571 70.9811C50.2915 69.8877 48.8463 69.2734 47.3394 69.2734H14.5076C13.878 69.2734 13.3676 69.7838 13.3676 70.4134V71.1174C13.3676 71.3582 13.5628 71.5535 13.8036 71.5535Z" fill="#FF9F55"/>
<path d="M67.9608 49.3962C67.7058 49.3962 67.4991 49.6029 67.4991 49.8578V66.5264C67.4991 66.7813 67.7058 66.988 67.9608 66.988C68.2157 66.988 68.4224 67.1947 68.4224 67.4496V68.128C68.4224 68.7576 67.912 69.268 67.2824 69.268H32.3871C30.8029 69.268 29.2836 68.6222 28.1633 67.4727C27.0431 66.3232 26.4138 64.7642 26.4138 63.1385V53.2457C26.4138 51.6201 27.0431 50.061 28.1633 48.9115C29.2836 47.762 30.8029 47.1162 32.3871 47.1162H67.2824C67.912 47.1162 68.4224 47.6266 68.4224 48.2562V48.9346C68.4224 49.1896 68.2157 49.3962 67.9608 49.3962Z" fill="#5284FC"/>
<path d="M82.2113 32.0697C81.9561 32.0709 81.7497 32.2782 81.7497 32.5335V44.9258C81.7497 45.1807 81.9564 45.3874 82.2113 45.3874C82.4663 45.3874 82.673 45.5941 82.673 45.849V46.2502C82.673 46.7267 82.2867 47.1129 81.8102 47.1129H44.3722C43.3888 47.1129 42.4457 46.7121 41.7504 45.9986C41.0551 45.285 40.6644 44.3173 40.6644 43.3082V34.151C40.6639 33.651 40.7594 33.1558 40.9454 32.6937C41.1315 32.2316 41.4046 31.8116 41.7489 31.4578C42.0933 31.1041 42.5022 30.8234 42.9523 30.632C43.4024 30.4405 43.8849 30.3419 44.3722 30.3419H81.8081C82.2858 30.3419 82.673 30.7291 82.673 31.2067V31.6059C82.673 31.8612 82.4666 32.0685 82.2113 32.0697Z" fill="#5284FC"/>
<path d="M47.1895 32.0719H75.7484C79.0621 32.0719 81.7484 34.7582 81.7484 38.0719V39.3874C81.7484 42.7011 79.0622 45.3874 75.7484 45.3874H47.1895C46.2063 45.3874 45.2634 44.9867 44.568 44.2734C43.8727 43.5601 43.482 42.5927 43.4817 41.5838V35.8766C43.4817 34.8676 43.8723 33.8998 44.5677 33.1863C45.263 32.4728 46.2061 32.0719 47.1895 32.0719Z" fill="#EFF7FE"/>
<path d="M195.303 117.129C195.709 117.128 196.038 117.457 196.038 117.863V125.28C196.038 125.686 195.709 126.015 195.303 126.015H195.19C194.846 126.015 194.567 126.294 194.567 126.638C194.567 126.983 194.846 127.262 195.19 127.262H220.7C221.093 127.26 221.469 127.099 221.747 126.814C222.024 126.529 222.181 126.143 222.183 125.74V117.41C222.181 117.007 222.024 116.621 221.747 116.336C221.469 116.051 221.093 115.891 220.7 115.889H195.187C194.845 115.889 194.567 116.167 194.567 116.509C194.567 116.852 194.846 117.13 195.189 117.13L195.303 117.129Z" fill="#F08533"/>
<path d="M208.198 87.4503C208.418 87.4497 208.596 87.6275 208.596 87.847V100.25C208.596 100.47 208.418 100.648 208.198 100.648C207.979 100.648 207.8 100.826 207.8 101.046V101.504C207.8 101.976 208.184 102.359 208.656 102.359H240.917C241.735 102.359 242.52 102.026 243.098 101.432C243.677 100.839 244.002 100.034 244.002 99.1941V88.9063C244.002 88.0668 243.677 87.2617 243.098 86.6681C242.52 86.0746 241.735 85.7411 240.917 85.7411H208.654C208.183 85.7411 207.8 86.1234 207.8 86.5951V87.0536C207.8 87.2731 207.979 87.4509 208.198 87.4503Z" fill="#F08533"/>
<path d="M218.068 103.751C218.288 103.751 218.467 103.929 218.467 104.15V114.094C218.467 114.314 218.288 114.492 218.069 114.492C217.849 114.492 217.671 114.67 217.671 114.889V115.188C217.671 115.573 217.983 115.884 218.367 115.884H250.056C251.068 115.884 252.039 115.472 252.754 114.737C253.47 114.003 253.872 113.007 253.872 111.968V106.275C253.872 105.237 253.47 104.241 252.754 103.506C252.039 102.772 251.068 102.359 250.056 102.359H218.365C217.98 102.359 217.669 102.671 217.669 103.055V103.353C217.669 103.573 217.847 103.752 218.068 103.751Z" fill="#495DA1"/>
<path d="M223.929 107.515H236.44C236.534 107.515 236.61 107.439 236.61 107.346C236.61 107.252 236.534 107.176 236.44 107.176H223.929C223.835 107.176 223.759 107.252 223.759 107.346C223.759 107.439 223.835 107.515 223.929 107.515Z" fill="#DECCC5"/>
<path d="M229.081 108.548H242.463C242.557 108.548 242.633 108.472 242.633 108.378C242.633 108.284 242.557 108.208 242.463 108.208H229.081C228.987 108.208 228.911 108.284 228.911 108.378C228.911 108.472 228.987 108.548 229.081 108.548Z" fill="#DECCC5"/>
<path d="M199.297 119.767H211.808C211.902 119.767 211.978 119.691 211.978 119.597C211.978 119.503 211.902 119.427 211.808 119.427H199.297C199.204 119.427 199.128 119.503 199.128 119.597C199.128 119.691 199.204 119.767 199.297 119.767Z" fill="#DECCC5"/>
<path d="M204.451 120.799H217.833C217.927 120.799 218.003 120.723 218.003 120.629C218.003 120.536 217.927 120.46 217.833 120.46H204.451C204.357 120.46 204.281 120.536 204.281 120.629C204.281 120.723 204.357 120.799 204.451 120.799Z" fill="#DECCC5"/>
<path d="M213.868 121.741H219.206C219.3 121.741 219.376 121.665 219.376 121.571C219.376 121.478 219.3 121.402 219.206 121.402H213.868C213.774 121.402 213.698 121.478 213.698 121.571C213.698 121.665 213.774 121.741 213.868 121.741Z" fill="#DECCC5"/>
<path d="M223.791 96.7134H237.173C237.267 96.7134 237.343 96.6374 237.343 96.5437C237.343 96.4499 237.267 96.374 237.173 96.374H223.791C223.697 96.374 223.621 96.4499 223.621 96.5437C223.621 96.6374 223.697 96.7134 223.791 96.7134Z" fill="#DECCC5"/>
<path d="M222.66 97.6553H227.998C228.092 97.6553 228.168 97.5793 228.168 97.4856C228.168 97.3918 228.092 97.3158 227.998 97.3158H222.66C222.566 97.3158 222.49 97.3918 222.49 97.4856C222.49 97.5793 222.566 97.6553 222.66 97.6553Z" fill="#DECCC5"/>
<path d="M224.529 98.6114C224.529 98.4412 224.705 98.1814 224.983 98.4052C225.261 98.6289 224.918 99.4475 224.694 99.3743C224.469 99.3012 224.529 98.7872 224.529 98.6114Z" fill="#EEA886"/>
<path d="M144.136 20.2439C143.788 20.1718 143.517 19.9052 143.402 19.5686C143.319 19.3248 143.222 19.086 143.113 18.8532C142.96 18.5256 142.965 18.1398 143.162 17.8363C143.407 17.4584 143.358 16.9612 143.043 16.6387L142.555 16.138L142.062 15.6316C141.754 15.316 141.265 15.267 140.901 15.5154C140.607 15.7158 140.226 15.7212 139.907 15.5642C139.687 15.4559 139.462 15.3599 139.232 15.2765C138.893 15.1534 138.625 14.8752 138.556 14.5208C138.469 14.0781 138.081 13.7587 137.63 13.7587H136.281C135.83 13.7587 135.442 14.0781 135.355 14.5208C135.286 14.8752 135.018 15.1534 134.679 15.2765C134.449 15.3599 134.224 15.4559 134.004 15.5642C133.685 15.7212 133.304 15.7158 133.01 15.5154C132.646 15.267 132.157 15.316 131.849 15.6316L131.356 16.138L130.868 16.6387C130.553 16.9612 130.504 17.4584 130.749 17.8363C130.946 18.1398 130.951 18.5256 130.798 18.8532C130.688 19.0863 130.592 19.3254 130.509 19.5695C130.394 19.9056 130.123 20.1717 129.775 20.2434C129.345 20.3321 129.037 20.7107 129.037 21.1498V22.6169C129.037 23.0559 129.345 23.4346 129.775 23.5233C130.123 23.595 130.394 23.8611 130.509 24.1972C130.592 24.4412 130.688 24.6804 130.798 24.9135C130.951 25.241 130.946 25.6269 130.749 25.9304C130.504 26.3083 130.553 26.8054 130.868 27.1279L131.356 27.6287L131.849 28.1351C132.157 28.4506 132.646 28.4996 133.01 28.2512C133.304 28.0509 133.685 28.0454 134.004 28.2025C134.223 28.3104 134.447 28.4061 134.676 28.4892C135.017 28.613 135.286 28.8927 135.355 29.2487C135.442 29.6935 135.832 30.0145 136.285 30.0145H137.627C138.079 30.0145 138.467 29.6951 138.553 29.2524C138.623 28.898 138.89 28.6198 139.23 28.4967C139.46 28.4133 139.685 28.3173 139.905 28.2091C140.224 28.052 140.605 28.0574 140.899 28.2578C141.262 28.5062 141.752 28.4572 142.06 28.1416L142.553 27.6352L143.04 27.1355C143.355 26.8121 143.406 26.3139 143.162 25.9337C142.966 25.6286 142.962 25.2421 143.116 24.9138C143.225 24.681 143.321 24.442 143.404 24.1982C143.519 23.8622 143.79 23.5961 144.138 23.5244C144.568 23.4357 144.876 23.057 144.876 22.6179V21.1522C144.876 20.7123 144.567 20.3329 144.136 20.2439ZM136.955 27.0966C136.955 27.0963 136.955 27.096 136.955 27.096C135.95 27.0959 134.969 26.7902 134.133 26.2175C133.298 25.6448 132.647 24.8306 132.262 23.8781C131.878 22.9256 131.777 21.8775 131.973 20.8664C132.169 19.8552 132.653 18.9264 133.363 18.1974C134.074 17.4684 134.979 16.9719 135.964 16.7708C136.95 16.5697 137.971 16.6729 138.899 17.0674C139.828 17.462 140.621 18.1301 141.179 18.9873C141.737 19.8445 142.035 20.8524 142.035 21.8833C142.035 22.568 141.904 23.2459 141.649 23.8785C141.394 24.511 141.02 25.0858 140.548 25.57C140.076 26.0541 139.516 26.4382 138.9 26.7002C138.283 26.9622 137.623 27.0971 136.956 27.0971C136.956 27.0971 136.955 27.0969 136.955 27.0966Z" fill="white"/>
<path d="M153.306 15.1013C153.145 15.0685 153.019 14.9455 152.966 14.7902C152.928 14.6791 152.884 14.5702 152.834 14.4641C152.764 14.314 152.766 14.1372 152.856 13.998C152.968 13.8248 152.946 13.5971 152.802 13.4493L152.578 13.2195L152.351 12.9873C152.21 12.8426 151.986 12.8202 151.819 12.9342C151.685 13.0262 151.51 13.0287 151.363 12.9566C151.263 12.9069 151.159 12.8628 151.054 12.8245C150.899 12.7681 150.776 12.6406 150.744 12.4783C150.705 12.2755 150.527 12.1292 150.32 12.1292H149.702C149.496 12.1292 149.318 12.2755 149.278 12.4783C149.246 12.6406 149.124 12.7681 148.968 12.8245C148.863 12.8628 148.76 12.9069 148.659 12.9566C148.513 13.0287 148.338 13.0262 148.203 12.9342C148.037 12.8202 147.812 12.8426 147.671 12.9873L147.445 13.2195L147.221 13.4493C147.077 13.5971 147.054 13.8248 147.166 13.998C147.256 14.1372 147.258 14.314 147.188 14.4641C147.138 14.571 147.094 14.6808 147.055 14.7928C147.003 14.9467 146.879 15.0685 146.72 15.1013C146.522 15.1419 146.381 15.3153 146.381 15.5165V16.1898C146.381 16.3909 146.522 16.5644 146.72 16.605C146.879 16.6378 147.003 16.7596 147.055 16.9135C147.094 17.0255 147.138 17.1352 147.188 17.2422C147.258 17.3923 147.256 17.5691 147.166 17.7082C147.054 17.8815 147.077 18.1092 147.221 18.257L147.445 18.4868L147.671 18.7192C147.812 18.8638 148.036 18.8863 148.203 18.7727C148.338 18.681 148.513 18.6786 148.659 18.7507C148.76 18.8004 148.863 18.8445 148.968 18.8828C149.124 18.9393 149.246 19.0667 149.278 19.229C149.318 19.4319 149.496 19.5782 149.702 19.5782H150.32C150.527 19.5782 150.705 19.4319 150.744 19.229C150.776 19.0667 150.899 18.9393 151.054 18.8828C151.159 18.8445 151.263 18.8004 151.364 18.7507C151.51 18.6786 151.685 18.681 151.819 18.7727C151.986 18.8863 152.21 18.8638 152.351 18.7192L152.578 18.4868L152.804 18.2598C152.95 18.1133 152.974 17.8848 152.862 17.7111C152.772 17.5729 152.77 17.3972 152.84 17.2481C152.89 17.1407 152.935 17.0304 152.973 16.9179C153.026 16.764 153.15 16.6421 153.309 16.6093C153.506 16.5688 153.648 16.3953 153.648 16.1942V15.52C153.648 15.3169 153.505 15.1419 153.306 15.1013ZM150.011 18.2434C149.55 18.2434 149.1 18.1032 148.717 17.8405C148.334 17.5778 148.035 17.2044 147.859 16.7676C147.683 16.3308 147.637 15.8501 147.727 15.3864C147.817 14.9227 148.039 14.4968 148.365 14.1626C148.69 13.8283 149.106 13.6008 149.557 13.5087C150.009 13.4166 150.478 13.4641 150.903 13.6451C151.329 13.8262 151.693 14.1328 151.949 14.526C152.204 14.9192 152.341 15.3814 152.341 15.8542C152.341 16.4879 152.095 17.0956 151.659 17.5436C151.222 17.9917 150.63 18.2434 150.012 18.2434H150.011Z" fill="white"/>
<g style="mix-blend-mode:hard-light">
<path d="M188.553 36.1768H97.5717C94.217 36.1768 91.4974 38.9675 91.4974 42.41V103.199C91.4974 106.641 94.217 109.432 97.5717 109.432H188.553C191.908 109.432 194.628 106.641 194.628 103.199V42.41C194.628 38.9675 191.908 36.1768 188.553 36.1768Z" fill="white"/>
</g>
<path d="M143.483 109.862V35.7804C143.483 35.5478 143.294 35.3593 143.062 35.3593C142.829 35.3593 142.641 35.5478 142.641 35.7805V109.862C142.641 110.095 142.829 110.283 143.062 110.283C143.294 110.283 143.483 110.095 143.483 109.862Z" fill="#E8E8E8"/>
<path d="M135.617 43.8955H99.195C98.7891 43.8955 98.46 44.2246 98.46 44.6306C98.46 45.0366 98.7891 45.3657 99.195 45.3657H135.617C136.023 45.3657 136.352 45.0366 136.352 44.6306C136.352 44.2246 136.023 43.8955 135.617 43.8955Z" fill="#C1DBD1"/>
<path d="M135.617 49.2827H99.195C98.7891 49.2827 98.46 49.6118 98.46 50.0178C98.46 50.4238 98.7891 50.7529 99.195 50.7529H135.617C136.023 50.7529 136.352 50.4238 136.352 50.0178C136.352 49.6118 136.023 49.2827 135.617 49.2827Z" fill="#C1DBD1"/>
<path d="M135.617 54.67H99.195C98.7891 54.67 98.46 54.9991 98.46 55.4051C98.46 55.8111 98.7891 56.1402 99.195 56.1402H135.617C136.023 56.1402 136.352 55.8111 136.352 55.4051C136.352 54.9991 136.023 54.67 135.617 54.67Z" fill="#C1DBD1"/>
<path d="M135.617 60.0575H99.195C98.7891 60.0575 98.46 60.3866 98.46 60.7926C98.46 61.1986 98.7891 61.5277 99.195 61.5277H135.617C136.023 61.5277 136.352 61.1986 136.352 60.7926C136.352 60.3866 136.023 60.0575 135.617 60.0575Z" fill="#C1DBD1"/>
<path d="M135.617 65.4459H99.195C98.7891 65.4459 98.46 65.775 98.46 66.181C98.46 66.587 98.7891 66.9161 99.195 66.9161H135.617C136.023 66.9161 136.352 66.587 136.352 66.181C136.352 65.775 136.023 65.4459 135.617 65.4459Z" fill="#C1DBD1"/>
<path d="M135.617 70.8331H99.195C98.7891 70.8331 98.46 71.1622 98.46 71.5682C98.46 71.9742 98.7891 72.3033 99.195 72.3033H135.617C136.023 72.3033 136.352 71.9742 136.352 71.5682C136.352 71.1622 136.023 70.8331 135.617 70.8331Z" fill="#C1DBD1"/>
<path d="M135.617 76.2203H99.1951C98.7891 76.2203 98.46 76.5494 98.46 76.9554C98.46 77.3614 98.7891 77.6905 99.1951 77.6905H135.617C136.023 77.6905 136.352 77.3614 136.352 76.9554C136.352 76.5494 136.023 76.2203 135.617 76.2203Z" fill="#C1DBD1"/>
<path d="M135.617 81.6079H99.195C98.7891 81.6079 98.46 81.937 98.46 82.343C98.46 82.7489 98.7891 83.078 99.195 83.078H135.617C136.023 83.078 136.352 82.7489 136.352 82.343C136.352 81.937 136.023 81.6079 135.617 81.6079Z" fill="#C1DBD1"/>
<path d="M135.617 86.9952H99.195C98.7891 86.9952 98.46 87.3243 98.46 87.7303C98.46 88.1363 98.7891 88.4654 99.195 88.4654H135.617C136.023 88.4654 136.352 88.1363 136.352 87.7303C136.352 87.3243 136.023 86.9952 135.617 86.9952Z" fill="#C1DBD1"/>
<path d="M135.617 92.3824H99.195C98.7891 92.3824 98.46 92.7116 98.46 93.1175C98.46 93.5235 98.7891 93.8526 99.195 93.8526H135.617C136.023 93.8526 136.352 93.5235 136.352 93.1175C136.352 92.7116 136.023 92.3824 135.617 92.3824Z" fill="#C1DBD1"/>
<path d="M135.617 97.7698H99.1951C98.7891 97.7698 98.46 98.0989 98.46 98.5049C98.46 98.9108 98.7891 99.24 99.1951 99.24H135.617C136.023 99.24 136.352 98.9108 136.352 98.5049C136.352 98.0989 136.023 97.7698 135.617 97.7698Z" fill="#C1DBD1"/>
<path d="M186.717 43.8955H150.295C149.889 43.8955 149.56 44.2246 149.56 44.6306C149.56 45.0366 149.889 45.3657 150.295 45.3657H186.717C187.123 45.3657 187.452 45.0366 187.452 44.6306C187.452 44.2246 187.123 43.8955 186.717 43.8955Z" fill="#C1DBD1"/>
<path d="M186.717 49.2827H150.295C149.889 49.2827 149.56 49.6118 149.56 50.0178C149.56 50.4238 149.889 50.7529 150.295 50.7529H186.717C187.123 50.7529 187.452 50.4238 187.452 50.0178C187.452 49.6118 187.123 49.2827 186.717 49.2827Z" fill="#C1DBD1"/>
<path d="M186.717 54.67H150.295C149.889 54.67 149.56 54.9991 149.56 55.4051C149.56 55.8111 149.889 56.1402 150.295 56.1402H186.717C187.123 56.1402 187.452 55.8111 187.452 55.4051C187.452 54.9991 187.123 54.67 186.717 54.67Z" fill="#C1DBD1"/>
<path d="M186.717 60.0575H150.295C149.889 60.0575 149.56 60.3866 149.56 60.7926C149.56 61.1986 149.889 61.5277 150.295 61.5277H186.717C187.123 61.5277 187.452 61.1986 187.452 60.7926C187.452 60.3866 187.123 60.0575 186.717 60.0575Z" fill="#C1DBD1"/>
<path d="M186.717 65.4459H150.295C149.889 65.4459 149.56 65.775 149.56 66.181C149.56 66.587 149.889 66.9161 150.295 66.9161H186.717C187.123 66.9161 187.452 66.587 187.452 66.181C187.452 65.775 187.123 65.4459 186.717 65.4459Z" fill="#C1DBD1"/>
<path d="M186.717 70.8331H150.295C149.889 70.8331 149.56 71.1622 149.56 71.5682C149.56 71.9742 149.889 72.3033 150.295 72.3033H186.717C187.123 72.3033 187.452 71.9742 187.452 71.5682C187.452 71.1622 187.123 70.8331 186.717 70.8331Z" fill="#C1DBD1"/>
<path d="M186.717 76.2203H150.295C149.889 76.2203 149.56 76.5494 149.56 76.9554C149.56 77.3614 149.889 77.6905 150.295 77.6905H186.717C187.123 77.6905 187.452 77.3614 187.452 76.9554C187.452 76.5494 187.123 76.2203 186.717 76.2203Z" fill="#C1DBD1"/>
<path d="M186.717 81.6079H150.295C149.889 81.6079 149.56 81.937 149.56 82.343C149.56 82.7489 149.889 83.078 150.295 83.078H186.717C187.123 83.078 187.452 82.7489 187.452 82.343C187.452 81.937 187.123 81.6079 186.717 81.6079Z" fill="#C1DBD1"/>
<path d="M186.717 86.9952H150.295C149.889 86.9952 149.56 87.3243 149.56 87.7303C149.56 88.1363 149.889 88.4654 150.295 88.4654H186.717C187.123 88.4654 187.452 88.1363 187.452 87.7303C187.452 87.3243 187.123 86.9952 186.717 86.9952Z" fill="#C1DBD1"/>
<path d="M186.717 92.3824H150.295C149.889 92.3824 149.56 92.7116 149.56 93.1175C149.56 93.5235 149.889 93.8526 150.295 93.8526H186.717C187.123 93.8526 187.452 93.5235 187.452 93.1175C187.452 92.7116 187.123 92.3824 186.717 92.3824Z" fill="#C1DBD1"/>
<path d="M186.717 97.7698H150.295C149.889 97.7698 149.56 98.0989 149.56 98.5049C149.56 98.9108 149.889 99.24 150.295 99.24H186.717C187.123 99.24 187.452 98.9108 187.452 98.5049C187.452 98.0989 187.123 97.7698 186.717 97.7698Z" fill="#C1DBD1"/>
<path d="M113.341 56.8842C113.447 56.7666 113.527 56.6282 113.568 56.4753C113.686 56.0418 113.826 54.9421 113.151 52.892C112.268 50.2114 109.21 50.4548 108.238 52.1717C107.266 53.8885 107.6 54.9559 109.025 56.8943C110.352 58.6997 112.567 57.7404 113.341 56.8842Z" fill="#EEA886"/>
<path d="M105.715 104.268C106.142 104.297 106.356 104.644 106.301 105.067C106.265 105.344 106.23 105.616 106.221 105.693C106.209 105.798 105.58 105.736 105.094 105.673C104.765 105.63 104.514 105.362 104.482 105.032C104.439 104.603 104.775 104.23 105.206 104.243C105.375 104.249 105.551 104.256 105.715 104.268Z" fill="#EEA886"/>
<path d="M105.264 105.556C105.622 105.572 106.367 105.714 106.615 105.972C106.805 106.169 107.043 106.388 107.275 106.524C107.78 106.821 108.587 106.941 108.888 107.251C109.1 107.469 109.68 108.436 107.562 108.417C105.445 108.397 104.424 108.552 104.196 108.184C104.076 107.991 104.173 107.248 104.293 106.587C104.403 105.974 104.643 105.527 105.264 105.556Z" fill="#152B3D"/>
<path d="M117.239 104.268C117.665 104.297 117.879 104.643 117.823 105.066C117.787 105.342 117.752 105.615 117.743 105.693C117.732 105.798 117.102 105.736 116.617 105.673C116.288 105.63 116.038 105.362 116.005 105.032C115.962 104.603 116.298 104.23 116.729 104.243C116.898 104.249 117.075 104.256 117.239 104.268Z" fill="#EEA886"/>
<path d="M110.053 80.1395C108.797 78.3374 106.107 78.9113 106.206 81.1058C106.312 83.4502 105.765 86.0172 105.538 88.4664C105.286 91.195 104.253 97.6618 104.216 99.1232C104.19 100.143 104.279 102.72 104.334 104.186C104.357 104.785 104.842 105.26 105.441 105.275C106.014 105.289 106.508 104.879 106.597 104.313C107.031 101.535 108.261 93.7887 108.629 92.8442C109.079 91.6905 111.308 83.4698 111.383 82.5465C111.41 82.2062 110.815 81.2329 110.053 80.1395Z" fill="#323657"/>
<path d="M114.595 75.2763C115.293 75.4108 115.582 76.1133 115.703 76.8133C116.056 78.8671 116.81 83.2955 116.924 84.3878C117.074 85.823 117.174 91.3326 117.248 92.2298C117.31 92.9704 117.611 100.487 117.938 103.837C118.01 104.573 117.403 105.3 116.664 105.3C116.176 105.3 115.747 104.982 115.614 104.513C115.021 102.425 113.477 96.7023 113.477 93.6901C113.477 89.9618 111.91 85.584 110.899 83.1239C109.887 80.6638 107.572 80.606 106.951 76.0416C106.951 76.0407 112.32 74.8376 114.595 75.2763Z" fill="#323657"/>
<path d="M111.367 57.005C112.09 57.2232 112.336 58.0763 112.657 58.7597C112.768 58.9962 112.18 59.0707 111.469 59.0783C110.306 59.0907 109.547 57.933 109.029 56.8911C108.738 56.3056 110.211 56.656 111.367 57.005Z" fill="#EEA886"/>
<path d="M106.845 76.4006C106.809 76.5453 106.852 76.6951 106.985 76.7636C107.55 77.0558 109.521 77.6502 115.285 76.4931C115.479 76.4542 115.61 76.2669 115.577 76.0723C115.545 75.8916 115.385 75.7618 115.202 75.7688L107.251 76.0716C107.058 76.079 106.892 76.213 106.845 76.4006Z" fill="#323657"/>
<path d="M113.098 58.9306C113.165 58.9354 113.231 58.9412 113.298 58.9483C113.613 58.9821 114.585 59.0887 114.9 59.1506C115.279 59.2248 117.822 58.6834 118.344 58.6289C118.866 58.5743 121.091 57.0092 121.163 56.8247C121.234 56.6403 122.517 53.3092 122.588 52.5899C122.659 51.8707 123.837 52.2418 123.736 52.7384C123.547 53.6661 123.305 55.9199 123.172 56.5737C123.028 57.2788 122.64 58.8766 122.427 59.0731C122.215 59.2695 120.208 60.8336 118.246 61.4982C117.588 61.7238 116.944 61.9912 116.319 62.2986C115.304 62.7975 114.209 63.142 113.078 63.142H108.312C106.328 63.142 104.466 62.166 103.391 60.4984C102.398 58.9568 101.343 57.2316 101.301 56.7942C101.22 55.9603 103.927 50.4398 104.467 49.7478C105.064 48.9837 105.602 50.5345 105.297 51.4548C104.802 52.9484 104.092 55.0954 103.954 55.5401C103.739 56.2364 105.836 59.275 106.412 59.2848C106.989 59.2946 108.467 59.1004 109.124 59.072C110.037 58.996 110.95 58.7783 111.864 58.8432L113.098 58.9306Z" fill="#EEA886"/>
<path d="M117.564 62.5152C117.431 62.5874 117.301 62.6654 117.186 62.7641C116.852 63.0514 116.155 63.7687 116.073 64.8162C115.929 66.2743 115.676 67.7188 115.317 69.1372C115.104 69.8849 115.506 75.3137 115.559 75.7022C115.596 75.9669 112.112 76.4786 109.521 76.4867C107.827 76.492 106.862 75.1251 106.749 73.4342C106.651 71.9724 106.534 70.3105 106.463 69.5804C106.324 68.1397 105.681 64.6503 105.465 64.1788C105.319 63.8609 104.081 62.044 103.257 60.7418C102.743 59.93 102.596 59.248 103.191 58.4933C103.902 57.5905 105.253 57.7401 106.08 58.5386C106.406 58.8535 106.716 59.1076 106.895 59.1375C107.398 59.2215 110.483 58.6409 110.483 58.6354C110.483 58.6316 110.65 58.8662 111.373 58.8121C112.206 58.7499 113.038 58.6008 113.867 58.698C114.397 58.7601 114.928 58.8229 115.088 58.8439C115.263 58.8666 115.87 58.8054 116.52 58.7262C117.673 58.5857 118.727 58.8812 119.128 59.9707C119.42 60.7606 118.964 61.7565 118.224 62.1576L117.564 62.5152Z" fill="#254380"/>
<path d="M123.713 52.8855C123.559 53.6087 122.715 52.4528 122.6 51.7222C122.578 51.5764 122.536 51.4515 122.466 51.3706C122.285 51.161 121.849 50.6066 121.81 50.5236C121.77 50.4407 121.302 50.1667 121.302 50.0336C121.302 49.9004 121.76 49.7378 122.153 50.1155C122.547 50.4931 122.8 50.5749 122.958 50.5335C123.117 50.492 123.347 49.1353 123.366 48.7992C123.385 48.463 123.512 47.5746 123.718 47.6357C123.808 47.6626 124.085 47.6934 124.141 47.6179C124.199 47.5404 124.259 47.497 124.311 47.5386C124.43 47.6336 124.778 47.7415 124.825 47.886C124.826 47.8891 124.827 47.8922 124.828 47.8955C124.9 48.1571 125.144 48.4003 125.157 48.6715C125.177 49.1004 125.067 50.3545 124.848 50.8041C124.629 51.2538 123.811 52.4271 123.713 52.8855Z" fill="#EEA886"/>
<path d="M104.463 49.75C103.806 50.4071 105.845 50.1362 106.413 49.4009C106.54 49.2362 106.653 49.1134 106.729 49.0788C107.035 48.9402 107.468 48.8605 107.845 48.5843C108.223 48.3082 108.723 48.0768 108.696 47.9841C108.669 47.8913 108.224 47.9284 107.746 48.1412C107.269 48.3541 107.06 48.2504 107.016 48.1412C106.971 48.0321 107.27 47.2484 107.413 47.064C107.557 46.8795 108.583 45.8208 108.412 45.6636C108.271 45.5339 107.827 45.3287 107.836 45.137C107.84 45.0665 107.826 45.0191 107.787 45.0088C107.689 44.9832 107.556 45.0549 107.441 45.14C107.349 45.2074 107.191 45.1039 107.084 45.0656C106.993 45.033 106.826 45.1187 106.522 45.5202C106.485 45.5698 106.168 45.5873 106.114 45.6178C105.802 45.7935 105.492 46.7813 105.394 47.2801C105.295 47.7789 104.846 49.3669 104.463 49.75Z" fill="#EEA886"/>
<path d="M108.16 55.6496C108.638 56.5032 109.589 56.9066 110.512 56.5801C111.52 56.2232 111.594 54.4147 111.812 54.6286C111.85 54.666 111.888 54.698 111.926 54.725C112.448 55.1014 112.206 54.0464 112.581 53.523C112.9 53.11 113.132 52.6707 112.914 52.1968C112.485 51.2689 111.457 49.9663 109.245 51.0607C106.819 52.2639 107.42 54.3269 108.16 55.6496Z" fill="#353A3D"/>
<path d="M112.413 58.8634C112.556 58.8065 112.633 58.6518 112.599 58.5015C112.566 58.3557 112.439 58.2512 112.289 58.2499C111.764 58.2452 110.536 58.2462 109.651 58.3411C109.476 58.3598 109.338 58.4929 109.305 58.6652C109.268 58.8522 109.365 59.0377 109.549 59.0884C110.042 59.2246 111.092 59.3877 112.413 58.8634Z" fill="#254380"/>
<path d="M112.149 54.1866C111.961 53.8679 111.27 53.6529 111.191 54.5556C111.129 55.2563 112.427 56.0203 112.439 55.3687C112.451 54.7171 112.273 54.3984 112.149 54.1866Z" fill="#EEA886"/>
<path d="M122.506 52.8672C122.527 52.7892 122.615 52.7328 122.695 52.7403C122.899 52.7595 123.304 52.8202 123.579 53.0099C123.642 53.0536 123.678 53.1271 123.674 53.2038C123.664 53.3577 123.51 53.4143 123.367 53.3562C123.197 53.2869 122.959 53.1995 122.726 53.1437C122.585 53.1099 122.47 53.0075 122.506 52.8672Z" fill="#E55353"/>
<path d="M123.275 53.3448C123.437 53.2745 123.513 53.0824 123.445 52.9158C123.376 52.7492 123.189 52.6712 123.027 52.7415C122.864 52.8119 122.788 53.0039 122.857 53.1705C122.925 53.3371 123.113 53.4152 123.275 53.3448Z" fill="#353A3D"/>
<path d="M100.986 112.936C101.777 110.444 104.09 108.751 106.705 108.751H114.292C118.351 108.751 121.239 112.697 120.011 116.566L116.225 128.497C116.173 128.66 116.262 128.834 116.424 128.889C116.59 128.944 116.769 128.853 116.822 128.686L120.872 115.924C122.1 112.055 119.212 108.109 115.153 108.109H106.251C103.636 108.109 101.323 109.802 100.532 112.294L95.3907 128.497C95.3389 128.66 95.4277 128.834 95.5901 128.889C95.7561 128.944 95.9353 128.853 95.9882 128.686L100.986 112.936Z" fill="#FFBB55"/>
<path d="M108.888 128.889C109.051 128.834 109.14 128.66 109.088 128.497L105.302 116.565C104.075 112.697 106.963 108.751 111.021 108.751H118.609C121.223 108.751 123.537 110.444 124.328 112.936L129.326 128.686C129.379 128.853 129.558 128.944 129.724 128.889C129.886 128.834 129.975 128.66 129.923 128.497L124.781 112.294C123.99 109.802 121.677 108.109 119.062 108.109H110.16C106.101 108.109 103.213 112.055 104.441 115.924L108.49 128.686C108.543 128.853 108.723 128.944 108.888 128.889Z" fill="#FFBB55"/>
<path d="M124.812 114.419H100.758C100.581 114.419 100.437 114.562 100.437 114.739C100.437 114.917 100.581 115.06 100.758 115.06H124.812C124.99 115.06 125.133 114.917 125.133 114.739C125.133 114.562 124.99 114.419 124.812 114.419Z" fill="#FFBB55"/>
<path d="M127.119 121.386H98.2138C98.0366 121.386 97.8929 121.53 97.8929 121.707C97.8929 121.885 98.0366 122.028 98.2138 122.028H127.119C127.296 122.028 127.44 121.885 127.44 121.707C127.44 121.53 127.296 121.386 127.119 121.386Z" fill="#FFBB55"/>
<path d="M187.409 98.7412C187.403 115.792 186.937 119.129 182.764 122.95C181.131 124.447 178.125 127.554 169.454 129.102C166.852 129.567 163.738 129.891 160 129.988C158.596 130.031 157.19 129.977 155.793 129.828C154.79 129.72 153.795 129.542 152.815 129.294C143.286 126.844 142.574 118.465 146.742 111.416C147.836 109.592 149.069 107.859 150.429 106.234C152.471 103.763 154.659 101.569 156.641 99.5205C158.467 97.6334 160.119 95.8697 161.321 94.1277C161.806 93.4379 162.227 92.7027 162.578 91.9318C162.655 91.7579 162.733 91.5861 162.811 91.4166C163.067 90.8622 163.331 90.3252 163.598 89.8209C164.099 88.8637 164.608 87.9895 165.1 87.2015C165.492 86.5761 165.872 86.0096 166.226 85.5076C166.812 84.6614 167.443 83.8494 168.116 83.0752C168.267 82.901 168.454 82.7607 168.666 82.6698C168.773 82.6229 168.915 82.5607 169.079 82.5017L169.292 82.421L169.52 82.3358L169.748 82.2551L170.036 82.1568L170.216 82.0979L170.322 82.063L170.365 82.0499C171.917 81.5524 173.526 81.2626 175.151 81.1876C180.627 80.9846 187.417 83.7613 187.409 98.7412Z" fill="#4373CF"/>
<path d="M164.278 124.028C164.872 124.264 165.278 124.808 165.402 125.434C165.448 125.668 165.502 125.896 165.56 126.058C165.743 126.562 166.724 127.725 166.305 128.843C165.855 130.055 163.89 128.887 163.088 128.515C162.286 128.144 162.469 127.474 162.384 126.652C162.299 125.831 161.908 125.808 162.052 125.234C162.096 125.061 162.205 124.84 162.337 124.616C162.727 123.952 163.563 123.744 164.278 124.028Z" fill="#213A70"/>
<path d="M164.275 123.29C163.795 123.091 162.665 123.267 162.964 123.691C162.978 123.711 165.119 125.048 165.268 124.615C165.414 124.125 165.112 123.637 164.64 123.441L164.275 123.29Z" fill="#EEA886"/>
<path d="M157.901 125.355C156.843 125.46 155.687 125.645 155.084 126.521C155.041 126.583 154.999 126.645 154.958 126.708C154.372 127.611 152.815 127.659 152.748 128.891C152.681 130.123 154.865 130.161 156.01 129.764C157.156 129.367 157.33 128.16 158.022 127.858C158.715 127.557 159.075 127.313 159.022 126.727C158.999 126.468 158.911 126.138 158.82 125.85C158.701 125.472 158.292 125.289 157.901 125.355Z" fill="#213A70"/>
<path d="M163.985 91.5304C164.03 91.7321 164.036 91.9392 164.002 92.1432C163.876 92.8972 163.541 94.8795 163.26 96.2867C163.116 97.0048 162.986 97.5735 162.905 97.7525C162.799 97.9773 161.98 98.8865 160.971 99.9528C159.914 101.069 158.655 102.358 157.811 103.216C157.343 103.692 156.548 103.569 156.243 102.975C156.063 102.625 156.109 102.202 156.361 101.899C157.039 101.085 158.412 99.439 159.433 98.2294C160.085 97.4578 160.593 96.864 160.687 96.7778C160.981 96.5071 161.325 93.844 161.804 91.6481C161.829 91.5301 161.856 91.4149 161.885 91.3026C162.216 89.988 163.688 90.2075 163.985 91.5304Z" fill="#FFCA55"/>
<path d="M160.373 98.9328C160.796 99.3911 160.706 100.234 160.274 100.684C159.397 101.599 158.475 102.541 157.812 103.216C157.344 103.692 156.549 103.569 156.244 102.975C156.064 102.625 156.11 102.202 156.362 101.899C156.858 101.303 157.727 100.261 158.558 99.2709C159.07 98.6602 159.832 98.3473 160.373 98.9328Z" fill="#EEA886"/>
<path d="M156.726 124.408C156.483 124.402 156.275 124.581 156.244 124.822C156.214 125.051 156.354 125.272 156.581 125.317C157.149 125.43 157.736 125.413 158.299 125.267C158.471 125.222 158.586 125.064 158.592 124.886C158.6 124.647 158.412 124.447 158.172 124.441L156.726 124.408Z" fill="#EEA886"/>
<path d="M172.433 103.816C172.471 103.953 168.557 103.934 165.183 103.892C163.618 103.873 163.475 102.139 163.96 100.651C164.177 99.9866 163.109 95.9745 162.968 94.6713C162.862 93.6279 162.577 88.9587 163.247 88.246C163.661 87.8055 164.712 87.352 165.502 87.0547C166.137 86.8155 166.817 86.7312 167.496 86.7569L169.613 86.8373C169.97 86.8509 170.328 86.8883 170.668 86.9978C170.845 87.0548 171.02 87.1206 171.191 87.195C171.625 87.4013 174.106 88.3093 174.509 89.5809C174.835 90.6092 173.015 93.482 172.306 94.5434C172.13 94.807 172.028 95.1131 172.019 95.4299C172.009 95.8315 171.992 96.4427 171.977 97.1041C171.958 97.962 171.941 98.9061 171.941 99.5959C171.941 101.217 172.368 103.577 172.433 103.816Z" fill="#FFCA55"/>
<path d="M169.437 103.645C171.323 103.753 173.153 104.708 173.785 106.489C173.968 107.004 174.097 107.527 174.103 107.991C174.126 109.685 171.181 115.358 170.736 116.17C169.719 118.021 167.36 121.496 166.28 123.066C165.932 123.572 166.044 123.951 165.442 123.831C164.481 123.64 163.369 122.34 163.696 121.416C164.44 119.313 165.656 115.891 165.866 115.395C167.18 112.339 167.914 110.163 167.471 109.638C167.029 109.113 165.826 108.587 165.477 108.277C165.128 107.967 159.053 109.455 158.417 109.625C156.768 110.062 157.52 113.008 157.885 114.327C158.317 115.889 158.71 120.341 158.903 122.808C158.983 123.829 159.094 124.608 158.077 124.724C157.175 124.827 155.741 124.041 155.508 123.164C154.531 119.495 152.002 109.915 151.902 108.761C151.782 107.366 151.72 105.091 160.51 103.316C160.988 103.219 161.48 103.189 161.967 103.217L169.437 103.645Z" fill="#E8E8E8"/>
<path d="M168.023 78.5939C167.668 78.5094 167.301 78.46 166.936 78.4612C166.059 78.464 164.484 78.872 165.018 81.8961C165.745 86.0184 166.515 86.3437 168.441 85.4902C170.367 84.6367 170.195 81.9976 170.292 80.6988C170.373 79.6071 169.052 78.8385 168.023 78.5939Z" fill="#EEA886"/>
<path d="M167.174 86.5314C167.092 87.2098 167.187 88.2783 167.853 88.4331C168.214 88.5171 168.648 88.5367 169.144 88.4141C169.881 88.232 170.211 87.4296 170.13 86.675C170.01 85.5571 169.888 83.9415 170.048 82.9558C170.265 81.6139 168.132 84.208 167.384 85.1498C167.249 85.3198 167.2 85.654 167.207 85.871C167.212 86.0917 167.201 86.3124 167.174 86.5314Z" fill="#EEA886"/>
<path d="M170.428 81.3227C170.386 81.711 169.981 81.5118 169.591 81.4769C169.298 81.4506 169.162 81.6523 169.103 81.8031C169.067 81.8934 168.995 81.9718 168.9 81.9903C168.749 82.0196 168.61 81.8919 168.614 81.7379C168.622 81.3855 168.582 80.8438 168.274 80.7118C167.807 80.5121 165.282 81.3383 164.91 81.0043C164.539 80.6703 164.715 78.3597 165.385 78.0443C165.827 77.8361 166.785 77.456 167.775 77.4933C168.793 77.5316 170.297 77.7113 170.477 78.7145C170.571 79.2359 170.534 80.3607 170.428 81.3227Z" fill="#3A3F47"/>
<path d="M166.471 86.7115C169.163 86.0208 170.412 89.8192 167.689 90.3795C167.411 90.4369 167.118 90.4582 166.812 90.4334C164.084 90.2118 166.347 86.7432 166.471 86.7115Z" fill="#EEA886"/>
<path d="M162.742 102.591C162.259 103.032 161.712 103.915 162.364 103.964C163.237 104.03 164.227 104.09 165.266 104.128C166.511 104.173 166.543 103.061 165.307 102.903L163.286 102.644C162.986 102.605 162.966 102.386 162.742 102.591Z" fill="#FFCA55"/>
<path d="M165.471 102.457C165.371 102.275 165.142 102.249 164.958 102.346C164.767 102.446 164.659 102.656 164.706 102.866C164.758 103.097 164.841 103.395 164.961 103.616C165.042 103.767 165.223 103.81 165.389 103.766C165.636 103.701 165.797 103.462 165.738 103.213C165.683 102.975 165.596 102.684 165.471 102.457Z" fill="#EEA886"/>
<path d="M174.935 100.107C174.81 100.255 173.167 100.933 171.311 101.666C169.565 102.357 167.664 103.021 166.65 103.368C166.232 103.511 165.775 103.312 165.593 102.91C165.406 102.5 165.564 102.017 165.957 101.797C166.963 101.233 168.862 100.166 170.283 99.3469C171.241 98.7936 171.979 98.3515 172.083 98.2489C172.409 97.9313 172.493 97.4205 172.253 96.531C172.014 95.6415 171.463 91.553 171.402 91.0738C171.342 90.5947 171.558 89.3276 172.72 89.261C173.382 89.2231 173.858 89.3167 174.146 89.4044C174.371 89.473 174.552 89.6253 174.618 89.8511C174.722 90.2077 174.864 90.9617 174.984 92.5527C175.202 95.4472 175.229 99.7573 174.935 100.107Z" fill="#FFCA55"/>
<path d="M172.01 95.3845C172.016 95.4131 172.019 95.4296 172.019 95.4589C172.009 95.8199 171.58 95.8949 171.506 95.5416C171.069 93.4596 171.5 91.9635 171.509 91.9308C171.394 92.6542 171.93 95.0368 172.01 95.3845Z" fill="#C9A043"/>
<path d="M163.265 96.286C163.272 96.32 163.262 96.3052 163.255 96.3391C163.221 96.5071 163.188 96.6664 163.157 96.8138C163.093 97.1111 162.803 97.0938 162.776 96.791C162.761 96.6129 162.749 96.4344 162.742 96.2575C162.728 95.9362 163.203 95.9704 163.265 96.286Z" fill="#C9A043"/>
<path d="M170.388 99.4202C171.282 100.173 170.541 101.973 169.444 102.377C168.321 102.79 167.276 103.154 166.599 103.385C166.164 103.534 165.691 103.31 165.527 102.88C165.375 102.481 165.538 102.031 165.911 101.822C166.788 101.331 168.4 100.425 169.759 99.6478C170.103 99.4505 170.084 99.1642 170.388 99.4202Z" fill="#EEA886"/>
<path d="M159.853 106.352C161.19 105.682 160.73 103.668 159.234 103.645C157.728 103.623 157.216 105.646 158.552 106.342C158.959 106.554 159.443 106.558 159.853 106.352Z" fill="#444C94"/>
<path d="M159.035 106.468C159.133 106.593 159.301 106.639 159.449 106.58L164.901 104.413C165.011 104.37 165.083 104.264 165.083 104.146C165.083 103.946 164.883 103.807 164.695 103.877L159.193 105.914C158.966 105.998 158.887 106.278 159.035 106.468Z" fill="#303669"/>
<path d="M165.074 102.657C164.932 102.443 164.64 102.51 164.386 102.464C164.129 102.419 163.791 102.355 163.519 102.289C163.122 102.194 162.136 102.325 161.884 102.586C161.632 102.847 160.834 104.669 160.682 104.78C160.431 104.965 161.098 105.327 161.356 105.503C161.485 105.591 161.655 105.625 161.872 105.518C162.474 105.22 162.882 104.568 163.197 104.454C163.344 104.4 163.821 104.246 164.289 104.096C164.909 103.898 165.434 103.199 165.074 102.657Z" fill="#EEA886"/>
<path d="M162.199 103.067C162.462 102.733 161.819 102.575 161.464 102.809C161.34 102.918 160.835 103.301 160.713 103.393C160.591 103.485 160.897 103.743 161.799 103.343C162.002 103.252 162.128 103.158 162.199 103.067Z" fill="#EEA886"/>
<path d="M152.101 106.319C155.48 106.49 157.948 103.172 156.811 99.9852C156.127 98.0687 154.297 96.8016 152.262 96.8358L150.898 96.8586C147.661 96.9129 145.447 100.148 146.569 103.185C147.22 104.949 148.861 106.155 150.739 106.25L152.101 106.319Z" fill="#303669"/>
<path d="M151.786 102.904C152.263 102.66 152.368 101.883 152.021 101.17C151.673 100.456 151.005 100.077 150.528 100.321C150.051 100.566 149.946 101.343 150.293 102.056C150.641 102.769 151.309 103.149 151.786 102.904Z" fill="#518AFA"/>
<path d="M169.068 81.4092C169.111 81.0458 169.812 80.9115 169.867 81.4573C169.921 82.003 169.548 82.9602 169.282 82.8663C169.016 82.7725 169.008 81.9113 169.068 81.4092Z" fill="#EEA886"/>
<path d="M169.455 83.3213C169.961 83.3213 170.37 82.7218 170.37 81.9821C170.37 81.2425 169.961 80.6429 169.455 80.6429C168.95 80.6429 168.541 81.2425 168.541 81.9821C168.541 82.7218 168.95 83.3213 169.455 83.3213Z" fill="#FFCA55"/>
<path d="M169.826 80.9443C169.811 81.0665 169.695 81.1485 169.573 81.1286C169.466 81.1111 169.399 81.0203 169.41 80.9126C169.465 80.3845 169.564 78.8647 168.932 78.1251C168.686 77.837 168.171 77.4812 167.746 77.4932H168.215C168.763 77.479 169.066 77.6635 169.242 77.849C170.037 78.6668 169.904 80.3406 169.826 80.9443Z" fill="#FFCA55"/>
<path d="M167.505 84.7385C167.459 84.7633 167.402 84.7441 167.379 84.697C167.357 84.6513 167.376 84.5963 167.421 84.5723C168.706 83.8786 169.22 82.6295 169.34 82.2968C169.357 82.2497 169.405 82.2248 169.453 82.2394C169.503 82.2548 169.532 82.3073 169.514 82.3571C169.391 82.7124 168.864 84.0072 167.505 84.7385Z" fill="#FFCA55"/>
<path d="M167.38 85.0121C167.548 85.0121 167.685 84.8719 167.685 84.6989C167.685 84.5259 167.548 84.3856 167.38 84.3856C167.211 84.3856 167.075 84.5259 167.075 84.6989C167.075 84.8719 167.211 85.0121 167.38 85.0121Z" fill="#FFCA55"/>
<path d="M87.5279 90.8926C87.5858 91.0404 87.7237 91.1412 87.8818 91.155C88.2993 91.1915 89.1023 91.28 89.383 91.4395C89.7691 91.6589 92.3675 90.8185 92.4154 90.6253C92.4724 90.4586 92.297 90.3361 92.1209 90.3361H87.9077C87.6205 90.3361 87.4232 90.6251 87.5279 90.8926Z" fill="#DE9673"/>
<path d="M79.8617 84.7806C80.7295 84.8532 81.3615 85.633 81.3025 86.5019C81.2343 87.5067 81.2141 88.6622 81.4518 88.9138C82.875 90.4178 87.5705 90.5425 88.9513 90.5459C89.1637 90.5465 89.3364 90.7182 89.3364 90.9306C89.3364 91.121 89.2002 91.2809 89.011 91.3026C87.3431 91.4943 79.8011 92.263 79.0193 90.5936C78.3951 89.2567 78.2842 87.4206 78.2975 86.1456C78.3062 85.315 79.034 84.7113 79.8617 84.7806Z" fill="#DE9673"/>
<path d="M77.9903 121.879C78.1811 122.043 78.4695 122.022 78.6333 121.83C78.7835 121.654 78.778 121.394 78.6205 121.225L78.1794 120.751C78.0113 120.57 77.7351 120.543 77.5347 120.687C77.2774 120.871 77.2605 121.248 77.5003 121.455L77.9903 121.879Z" fill="#2F4563"/>
<path d="M75.6877 121.979C76.3494 121.143 77.4178 121.607 78.4249 121.957C78.4558 121.968 78.4832 121.975 78.5063 121.978C78.8275 122.014 78.9796 122.161 78.9413 122.663C78.9031 123.165 79.4104 125.283 79.7646 125.316C80.1188 125.348 81.3228 125.356 81.5408 126.171C81.7589 126.986 77.7203 126.815 77.4704 126.146C77.2204 125.477 75.4814 122.24 75.6877 121.979Z" fill="#1E2D40"/>
<path d="M83.0862 95.1857C84.0236 95.4199 84.6896 96.1776 85.1357 97.0347C86.9286 100.479 91.4112 109.76 88.9257 112.021C87.7249 113.112 86.5677 114.105 84.9063 115.57C84.0224 116.348 82.9556 117.251 81.691 118.601L81.6389 118.658C80.7369 119.623 79.9924 120.438 79.7637 120.69L79.7424 120.714L79.7169 120.742L79.4878 120.967C79.1444 121.303 78.5985 121.314 78.2418 120.992C77.9005 120.684 77.842 120.17 78.0981 119.788C78.5756 119.076 79.3259 117.917 79.8286 116.945C80.9347 114.807 82.7918 112.294 83.6512 111.597C85.1233 110.397 85.5285 110.16 85.5285 109.012C85.5285 108.108 81.8024 104.159 79.8212 102.123C79.0365 101.316 78.4454 100.317 78.4109 99.1924C78.37 97.8577 78.6123 96.122 80.0083 95.4658C81.1673 94.9171 82.2702 94.9819 83.0862 95.1857Z" fill="#323657"/>
<path d="M77.8495 124.854C78.3892 124.513 78.5826 123.867 78.7415 123.248C78.9885 122.287 77.0584 123.762 77.0198 124.753C77.0136 124.911 77.0147 125.041 77.027 125.118C77.0565 125.303 77.452 125.105 77.8495 124.854Z" fill="#EEA987"/>
<path d="M79.0226 122.283C78.9927 122.842 78.5965 123.325 78.0455 123.427C77.3604 123.553 76.7212 123.05 76.6933 122.354C76.6509 121.294 76.6043 119.77 76.6208 118.475C76.6517 116.054 76.5336 114.151 77.259 112.225C77.9323 110.423 77.7791 109.737 77.8387 108.506C77.8882 107.484 77.4581 102.937 77.3113 101.429C77.2795 101.103 77.2176 100.783 77.1699 100.458C77.0381 99.562 76.9447 97.5991 78.2716 96.1045C78.7489 95.5661 79.4354 95.3243 80.1791 95.2563C82.7939 95.0173 84.2876 97.8745 83.8404 100.462C83.3342 103.39 82.5085 107.224 81.305 110.102C81.1193 110.543 81.017 110.933 80.9454 111.323C80.5436 113.51 79.8547 116.251 79.4843 118.444C79.2768 119.672 79.0885 121.049 79.0226 122.283Z" fill="#323657"/>
<path d="M80.9517 78.9863C80.8277 79.2184 80.7381 79.4681 80.6858 79.7273C80.6285 79.9878 80.5873 80.2517 80.5625 80.5175C80.5298 80.8519 80.5148 81.1878 80.5178 81.5239C80.5178 81.5239 77.5237 80.8548 78.0151 80.1388C78.7796 79.0249 79.8973 77.5796 80.8272 78.5597C80.9696 78.7097 81.0275 78.8555 80.9517 78.9863Z" fill="#EEA987"/>
<path d="M80.8432 72.5379C82.0959 72.6016 82.9592 73.0187 83.1186 74.2629C83.1897 74.8175 83.0851 76.0018 83.1785 76.5531C83.2499 76.9743 83.3495 77.4241 83.465 77.5587C83.699 77.8316 82.8374 77.9331 82.747 78.1296C82.6566 78.326 82.4854 79.2483 81.8844 79.8027C81.2835 80.3572 78.3096 78.684 78.1618 77.7388C78.0139 76.7936 75.9558 72.7389 79.2179 72.5545C79.8791 72.5171 80.4127 72.516 80.8432 72.5379Z" fill="#EEA886"/>
<path d="M84.6884 87.5866C84.6278 87.7842 84.8565 90.8118 84.8352 91.0727C84.7214 92.5047 85.0809 94.681 85.2234 95.4603C85.2538 95.625 85.1725 95.7911 85.0207 95.8617C83.1814 96.717 80.9951 97.038 79.4636 97.1562C78.4362 97.2354 78.0689 96.437 78.2046 95.4155C78.4705 93.4673 78.864 92.5778 78.7566 91.2615C78.6971 90.5215 78.513 89.7477 78.1333 88.7894C77.0357 86.0215 77.0952 84.1781 77.2739 82.6577C77.3039 82.4031 77.3412 82.1668 77.3827 81.9498C77.582 80.9079 78.5941 80.3465 79.6485 80.4628C80.2792 80.5324 80.8558 80.8409 81.3265 81.2663C81.763 81.6607 82.3495 82.1508 83.3716 83.0812C85.1277 84.6791 85.4351 85.1637 84.6884 87.5866Z" fill="#FFCA55"/>
<path d="M76.7566 126.38C76.733 125.334 77.806 124.913 78.5533 124.181C78.6001 124.135 78.6108 124.038 78.8288 124.127C79.0468 124.217 79.1372 124.555 79.351 124.663C79.5648 124.771 80.8688 125.162 81.5846 125.522C81.8431 125.652 82.9354 126.08 83.0928 126.437C83.2502 126.793 83.1992 127.329 81.3251 127.201C79.451 127.072 77.395 127.345 76.9845 127.134C76.8256 127.052 76.765 126.751 76.7566 126.38Z" fill="#23344A"/>
<path d="M80.1572 75.9689C82.1469 75.8785 83.6861 73.3704 82.1542 72.0976C81.633 71.6645 80.8429 71.4289 79.6476 71.655C77.5107 72.0591 77.1661 73.6075 77.3727 75.1564C77.4513 75.7465 79.4974 75.9954 80.0922 75.9716C80.1141 75.9708 80.1357 75.9698 80.1572 75.9689Z" fill="#464240"/>
<path d="M79.7913 75.3975C79.5595 74.9827 78.7617 75.2043 78.8532 75.834C78.9447 76.4638 79.5829 77.0968 79.7945 76.7912C80.0062 76.4856 80.1327 76.0076 79.7913 75.3975Z" fill="#EEA987"/>
<path d="M78.6053 83.2595C79.3159 83.3527 79.8258 83.9904 79.7924 84.7063C79.7434 85.7564 79.7356 87.1137 79.9977 87.3904C81.4282 88.9021 86.4573 89.1476 87.8961 89.1871C88.1285 89.1935 88.3305 89.3452 88.4 89.5672C88.5032 89.8966 88.2734 90.2344 87.9286 90.2521C85.6956 90.3666 78.6368 90.5998 77.9002 89.021C77.254 87.6372 77.1579 85.718 77.1802 84.4401C77.1933 83.6928 77.8642 83.1623 78.6053 83.2595Z" fill="#EEA987"/>
<path d="M78.5903 74.0185C78.6799 73.1152 78.1108 72.1377 77.2058 72.0678C76.7746 72.0345 76.2942 72.2046 75.8805 72.8547C74.8254 74.5126 77.1367 76.8253 78.0737 75.4523C78.346 75.0499 78.5201 74.5862 78.5811 74.1003C78.5846 74.073 78.5876 74.0458 78.5903 74.0185Z" fill="#464240"/>
<path d="M80.6855 79.7257C80.6857 79.7267 80.6857 79.7277 80.6855 79.7287C80.6669 79.8131 80.6501 79.8979 80.6349 79.9829C80.5888 80.2417 80.3132 80.3933 80.1067 80.2308C80.0817 80.2111 80.057 80.191 80.0326 80.1705C79.7243 79.9122 80.1352 79.4813 80.5029 79.6442C80.6013 79.6878 80.6657 79.714 80.6811 79.7203C80.6835 79.7212 80.685 79.7232 80.6855 79.7257Z" fill="#A77860"/>
<path d="M94.629 90.2117H85.7956C85.6473 90.2117 85.5271 90.3319 85.5271 90.4802C85.5271 90.6284 85.6473 90.7487 85.7956 90.7487H94.629C94.7773 90.7487 94.8975 90.6284 94.8975 90.4802C94.8975 90.3319 94.7773 90.2117 94.629 90.2117Z" fill="#6E6760"/>
<path d="M98.5331 82.15L94.5446 90.2628C94.4805 90.3932 94.5332 90.553 94.6622 90.6198C94.7912 90.6866 94.9478 90.6351 95.0119 90.5047L99.0003 82.3918C99.0644 82.2615 99.0118 82.1016 98.8827 82.0348C98.7537 81.9681 98.5972 82.0196 98.5331 82.15Z" fill="#6E6760"/>
<path d="M86.8001 89.5327C86.8633 89.3278 87.0448 89.1823 87.2577 89.1568C87.692 89.1046 88.4039 88.9935 88.664 88.8047C89.0491 88.5253 91.6485 89.5949 91.6964 89.8416C91.7529 90.0542 91.5433 90.2105 91.3233 90.2105H87.3004C86.948 90.2105 86.6963 89.8694 86.8001 89.5327Z" fill="#EEA987"/>
<path d="M78.2248 80.3248C78.0551 80.2961 77.9526 80.121 78.0108 79.959C78.0572 79.8298 78.1915 79.7543 78.3261 79.7818L80.5253 80.2309C80.6361 80.2535 80.7156 80.351 80.7156 80.4641C80.7156 80.6114 80.5832 80.7233 80.438 80.6987L78.2248 80.3248Z" fill="#FFCA55"/>
<path d="M78.5166 83.2737C79.2667 83.383 80.0115 82.8278 79.7606 82.1126C79.6159 81.6999 79.3307 81.3359 78.783 81.2651C78.208 81.1908 77.8469 81.497 77.6213 81.8789C77.2562 82.4967 77.8065 83.1702 78.5166 83.2737Z" fill="#EEA987"/>
<path d="M220.504 105.448C219.682 105.621 219.511 106.481 219.089 107.209C218.887 107.557 218.228 109.61 217.946 110.135C217.665 110.66 216.535 111.03 216.589 111.952C216.644 112.874 218.717 113.018 219.299 112.577C219.882 112.136 221.746 109.373 221.966 108.976C222.186 108.578 222.262 107.212 221.872 106.824C221.483 106.437 221.058 105.636 221.066 105.448C221.07 105.37 220.817 105.382 220.504 105.448Z" fill="#292929"/>
<path d="M223.739 78.2282C222.442 78.2666 221.354 79.1196 220.599 80.1745C219.442 81.7902 217.79 84.167 217.382 85.1147C216.737 86.611 215.626 88.7491 215.626 89.4444C215.626 90.1396 216.199 92.9719 216.486 93.5067C216.773 94.0415 218.744 103.164 218.852 103.752C218.9 104.017 219.008 104.494 219.111 104.937C219.242 105.496 219.82 105.824 220.369 105.655C220.781 105.529 221.066 105.155 221.073 104.724C221.108 102.709 221.181 97.0739 220.932 95.7616C220.627 94.1561 219.707 91.8325 219.849 91.1012C219.992 90.3699 222.287 88.3399 223.863 87.2528C225.44 86.1657 227.304 84.4554 227.412 82.6917C227.457 81.9415 227.327 81.1494 227.163 80.4868C226.905 79.4468 226.19 78.559 225.141 78.3443C224.745 78.2634 224.276 78.2123 223.739 78.2282Z" fill="#434975"/>
<path d="M219.782 77.6756C218.333 77.7992 217.213 78.8492 216.211 79.9022C216.119 79.9989 216.033 80.0793 215.957 80.1354C215.42 80.536 211.683 84.1978 210.607 85.9888C209.532 87.7799 209.165 88.0462 209.388 88.8266C209.612 89.6069 209.935 91.6861 210.177 92.2209C210.375 92.6609 212.527 101.375 213.285 104.451C213.447 105.11 213.831 105.663 214.507 105.602C214.941 105.562 215.179 105.027 215.126 104.593C214.939 103.06 214.516 99.3039 214.664 97.7316C214.852 95.7321 214.471 92.8092 213.649 91.339C212.827 89.8689 213.403 88.8844 214.344 88.2164C215.006 87.7469 217.773 86.1103 219.358 85.1794C220.103 84.7423 220.751 84.1582 221.185 83.4114C222.363 81.38 224.212 77.2975 219.782 77.6756Z" fill="#434975"/>
<path d="M213.98 105.401C213.754 105.426 213.679 105.717 213.469 105.806C213.375 105.846 211.896 108.092 211.615 108.411C211.333 108.731 209.559 109.253 209.532 109.471C209.505 109.689 209.773 110.89 211.225 110.914C212.677 110.938 213.884 109.658 214.478 109.176C215.071 108.695 216.782 108.167 216.104 106.985C215.865 106.568 215.684 106.231 215.549 105.969C215.337 105.557 214.891 105.297 214.43 105.349L213.98 105.401Z" fill="#292929"/>
<path d="M221.079 105.483C221.384 106.082 221.411 106.925 221.161 107.549C221.056 107.808 220.966 108.074 220.889 108.344C220.593 109.386 219.437 110.736 218.645 110.696C218.3 110.678 218.13 110.555 218.048 110.422C217.917 110.209 218.025 109.943 218.11 109.708C218.358 109.019 218.91 107.508 219.179 106.928C219.237 106.802 219.316 106.21 219.357 105.967C219.376 105.847 220.344 105.435 220.908 105.433C221.008 105.433 221.033 105.393 221.079 105.483Z" fill="#434975"/>
<path d="M212.219 107.458C211.8 108.095 211.745 109.211 212.492 109.064C213.164 108.932 213.918 108.157 214.307 107.716C214.502 107.495 214.881 107.182 215.211 106.924C215.557 106.654 215.675 106.178 215.479 105.786C215.318 105.465 214.982 105.272 214.624 105.294L214.295 105.314C213.858 105.341 213.459 105.573 213.218 105.939L212.219 107.458Z" fill="#434975"/>
<path d="M219.411 77.802C218.223 77.7655 217.252 78.5022 216.482 79.4084C216.316 79.6036 216.169 79.7635 216.073 79.8407C215.954 79.937 215.539 80.2814 214.963 80.8173C212.68 82.9446 213.068 86.2278 216.003 87.2901C218.036 88.0261 221.769 89.0659 223.423 87.674C223.87 87.2983 224.218 87.008 224.326 86.9253C224.712 86.6284 227.221 85.1146 227.418 82.6916C227.468 82.0684 227.443 81.5171 227.376 81.042C227.176 79.6075 225.883 78.7433 224.461 78.4693C222.95 78.1782 220.947 77.8492 219.411 77.802Z" fill="#FFC955"/>
<path d="M216.79 70.9631C217.128 71.5496 217.354 72.7225 217.491 73.9557C217.739 76.1952 219.449 78.7249 221.682 79.0219C222.878 79.1809 224.222 79.2748 225.551 79.1956C226.138 79.1606 226.482 78.5419 226.292 77.9865C226.208 77.7377 226.114 77.4626 226.017 77.1811C225.714 76.297 225.379 75.3453 225.202 74.9141C224.826 74.0006 224.961 72.4693 225.257 71.9389C225.507 71.4899 226.798 68.5718 227.188 67.6865C227.263 67.5168 227.33 67.3444 227.376 67.1646C227.563 66.4386 227.938 64.4386 226.628 63.7215C225.784 63.2612 224.892 62.9025 223.969 62.6522C223.668 62.5706 223.358 62.5273 223.047 62.5053L221.453 62.3926C220.936 62.356 220.417 62.3894 219.903 62.4551C219.703 62.4807 219.472 62.5066 219.223 62.5285C218.39 62.6017 217.53 62.7468 217.354 64.1657C217.179 65.5845 217.008 66.3267 216.829 66.6989C216.649 67.0711 215.822 69.2834 216.79 70.9631Z" fill="#FFC955"/>
<path d="M225.864 66.106C225.441 64.3682 227.113 63.2004 227.986 64.7616C228.721 66.0768 228.671 67.8504 228.837 68.5565C229.003 69.2627 229.983 75.8626 229.805 76.4313C229.626 76.9999 228.926 77.9593 227.869 77.8501C227.081 77.7688 224.512 76.4743 223.256 75.8207C222.847 75.6079 222.591 75.3362 222.73 74.8966C222.928 74.272 223.774 73.6204 224.39 73.8418L225.017 74.0668C226.021 74.427 227.047 73.5914 226.895 72.536C226.597 70.4589 226.194 67.6724 226.117 67.2021C226.079 66.9683 225.976 66.5683 225.864 66.106Z" fill="#FFC955"/>
<path d="M218.215 65.0915C218.334 63.8801 217.138 62.9776 216.468 63.9943C215.97 64.7452 215.931 66.4151 215.859 66.7294C215.81 66.9403 215.367 68.6099 215.081 69.6866C214.935 70.2353 215.15 70.8156 215.618 71.1373C216.46 71.7159 217.613 71.1798 217.714 70.1635L218.215 65.0915Z" fill="#FFC955"/>
<path d="M217.238 72.5585C217.238 70.7531 218.419 69.1601 220.146 68.6349L226.272 66.7725C226.439 66.7218 226.62 66.7586 226.754 66.8705C226.858 66.957 226.924 67.0807 226.937 67.2151L227.293 70.6752C227.525 72.9378 226.213 75.0755 224.091 75.8932L222.813 76.3853C220.127 77.4203 217.238 75.4375 217.238 72.5585Z" fill="#1D3B54"/>
<path d="M220.276 60.0213C219.782 59.2503 218.601 59.4833 218.678 60.3962C218.749 61.2198 219.95 62.4303 220.537 61.8484C220.656 61.731 220.75 61.6094 220.808 61.4859C220.938 61.2094 220.676 60.644 220.276 60.0213Z" fill="#1D3B54"/>
<path d="M221.145 60.0989C220.654 60.5144 220.42 61.1498 220.473 61.7907C220.489 61.9882 220.506 62.2022 220.522 62.4204C220.523 62.4377 220.525 62.4549 220.526 62.4722C220.627 63.6367 220.153 64.5375 221.318 64.6331C222.712 64.7476 223.087 61.7597 223.187 60.3637C223.209 60.0504 223.262 59.7123 223.358 59.3557C223.701 58.0845 222.136 59.2597 221.145 60.0989Z" fill="#EEA886"/>
<path d="M220.543 52.1029C220.451 52.114 220.358 52.1256 220.268 52.1445C219.756 52.2516 217.968 52.8205 217.874 55.5498C217.764 58.7368 219.084 61.3552 219.534 61.7448C219.984 62.1345 222.36 61.4905 222.755 59.7911C223.15 58.0918 223.855 56.8006 223.581 55.4188C223.312 54.0592 223.363 51.7623 220.543 52.1029Z" fill="#EEA886"/>
<path d="M217.873 55.9302C217.867 56.0237 217.771 56.066 217.761 55.9729C217.632 54.7965 217.722 52.6118 219.963 51.8161C223.092 50.7051 224.471 52.9632 224.929 54.3515C225.272 55.3889 225.399 57.9228 225.442 59.1377C225.457 59.571 225.615 59.6285 225.335 59.9592C224.357 61.1114 222.56 60.6531 222.565 59.1423C222.566 58.7475 222.558 58.3405 222.538 57.9318C222.47 56.5416 221.078 55.7476 219.696 55.9077C219.093 55.9775 218.463 56.0034 217.906 55.9309C217.885 55.9282 217.874 55.9087 217.873 55.9302Z" fill="#1D3B54"/>
<path d="M220.708 61.7387C220.577 61.7765 220.477 61.8921 220.487 62.0279C220.501 62.2082 220.698 62.3216 220.85 62.2248C220.95 62.1616 221.043 62.0982 221.13 62.035C221.457 61.7962 221.213 61.5672 220.83 61.6998C220.786 61.7152 220.745 61.728 220.708 61.7387Z" fill="#A77860"/>
<path d="M216.76 71.1483C216.59 70.7732 215.564 70.6354 215.643 71.0395C215.869 72.1894 216.459 72.0987 216.814 71.9231C216.984 71.839 217.008 71.6208 216.915 71.4556C216.868 71.3712 216.814 71.2685 216.76 71.1483Z" fill="#CFA345"/>
<path d="M216.33 71.4649C216.448 74.1025 213.334 75.5825 211.363 73.826C210.873 73.3892 210.541 72.8029 210.417 72.158L210.33 71.7013C209.82 69.0314 212.823 67.1008 215.04 68.6733C215.8 69.2118 216.268 70.0705 216.309 71.0004L216.33 71.4649Z" fill="#1D3B54"/>
<path d="M217.238 78.2304C217.238 78.3976 217.103 78.5332 216.935 78.5332C216.773 78.5332 216.64 78.4057 216.633 78.2439L216.266 70.0307C216.254 69.7554 216.473 69.5249 216.748 69.5228C217.018 69.5207 217.238 69.739 217.238 70.009V78.2304Z" fill="#1D3B54"/>
<path d="M222.928 74.1659C223.008 73.8877 222.86 73.5952 222.59 73.4904C222.41 73.4207 222.241 73.3519 222.205 73.3271C222.123 73.2703 222.01 72.4234 221.623 72.1014C221.236 71.7794 220.731 71.4324 220.632 71.2785C220.533 71.1246 220.313 71.5732 220.658 71.9584C221.004 72.3437 221.006 72.6471 220.159 72.454C219.691 72.3448 218.156 71.3974 218.174 71.7587C218.178 71.8462 218.052 72.1216 217.965 72.1108C217.94 72.1077 217.923 72.109 217.915 72.1156C217.867 72.1561 217.928 72.2373 218.048 72.3376C218.086 72.3687 217.92 72.6802 217.898 72.7235C217.874 72.7723 217.981 72.8575 218.144 72.9545C218.808 73.3482 218.269 72.4392 218.072 73.1852C218.032 73.3326 219.029 73.8204 219.242 73.887C219.454 73.9536 221.591 74.7394 221.956 74.7798C222.292 74.817 222.757 74.7567 222.851 74.4319L222.928 74.1659Z" fill="#EEA886"/>
<path d="M223.896 73.6879C223.262 73.4986 222.674 73.5664 222.475 74.1978C222.318 74.696 222.525 75.4573 222.988 75.6974C223.661 76.0455 224.678 76.5611 225.626 76.9981C226.182 77.254 226.83 76.9958 227.081 76.4379L227.859 74.707C227.907 74.5997 227.814 74.4825 227.699 74.5045C227.69 74.5061 227.682 74.5085 227.674 74.5116L227.592 74.5432C227.36 74.6322 227.108 74.6427 226.87 74.5723C226.241 74.3856 224.92 73.9936 223.896 73.6879Z" fill="#FFC955"/>
<path d="M213.792 105.96C214.26 105.591 213.66 105.95 213.134 106.233C213.045 106.281 213.512 106.181 213.792 105.96Z" fill="#434975"/>
<path d="M225.929 77.1346C225.668 77.0105 225.362 77.2678 225.59 77.4457C225.773 77.5884 226.128 77.4954 226.053 77.2763C226.032 77.216 225.986 77.1619 225.929 77.1346Z" fill="#CFA345"/>
<path d="M210.608 73.1524L208.395 64.8597C208.356 64.7141 208.427 64.5617 208.564 64.4989C208.747 64.4154 208.959 64.5249 208.997 64.7219L210.608 73.1524Z" fill="#1D3B54"/>
<defs>
<linearGradient id="paint0_linear" x1="83.08" y1="75.462" x2="300" y2="75.462" gradientUnits="userSpaceOnUse">
<stop stop-color="#40D5E6"/>
<stop offset="1" stop-color="#5577FF"/>
</linearGradient>
<linearGradient id="paint1_linear" x1="21699.9" y1="14346.2" x2="21699.9" y2="18165.8" gradientUnits="userSpaceOnUse">
<stop stop-color="#40D5E6"/>
<stop offset="1" stop-color="#5577FF"/>
</linearGradient>
</defs>
</svg>
