<svg width="161" height="21" viewBox="0 0 161 21" fill="none" xmlns="http://www.w3.org/2000/svg">
<path d="M0.69 20H4.278V1.8H0.69V20ZM16.5968 6.636C14.8288 6.636 13.5288 7.234 12.7228 8.456V7H9.36881V20H12.7228V12.98C12.7228 10.822 13.8408 9.756 15.5828 9.756C17.1428 9.756 18.1568 10.692 18.1568 12.434V20H21.5108V12.018C21.5108 10.328 21.0428 9.028 20.1068 8.066C19.1968 7.104 18.0268 6.636 16.5968 6.636ZM31.4059 16.1L28.2599 7H24.5679L29.5079 20H33.3299L38.2699 7H34.5779L31.4059 16.1ZM52.3332 18.388C53.6592 17.062 54.3352 15.424 54.3352 13.5C54.3352 11.576 53.6592 9.964 52.3332 8.638C51.0072 7.312 49.3692 6.636 47.4452 6.636C45.5212 6.636 43.8832 7.312 42.5572 8.638C41.2312 9.964 40.5812 11.576 40.5812 13.5C40.5812 15.424 41.2312 17.062 42.5572 18.388C43.8832 19.714 45.5212 20.364 47.4452 20.364C49.3692 20.364 51.0072 19.714 52.3332 18.388ZM44.9232 16.074C44.2732 15.398 43.9352 14.54 43.9352 13.5C43.9352 12.46 44.2732 11.602 44.9232 10.926C45.5992 10.25 46.4312 9.912 47.4452 9.912C48.4592 9.912 49.2912 10.25 49.9672 10.926C50.6432 11.602 50.9812 12.46 50.9812 13.5C50.9812 14.54 50.6432 15.398 49.9672 16.074C49.2912 16.75 48.4592 17.088 47.4452 17.088C46.4312 17.088 45.5992 16.75 44.9232 16.074ZM60.2365 5.44C61.3805 5.44 62.3165 4.504 62.3165 3.386C62.3165 2.268 61.3805 1.306 60.2365 1.306C59.1185 1.306 58.1825 2.268 58.1825 3.386C58.1825 4.504 59.1185 5.44 60.2365 5.44ZM61.9265 20V7H58.5725V20H61.9265ZM73.0621 20.364C75.5841 20.364 77.7941 19.038 78.9381 16.984L76.0261 15.32C75.5061 16.386 74.3881 17.036 73.0361 17.036C72.0221 17.036 71.1901 16.698 70.5401 16.048C69.8901 15.372 69.5521 14.514 69.5521 13.5C69.5521 11.42 71.0341 9.938 73.0361 9.938C74.3621 9.938 75.4801 10.614 76.0001 11.68L78.8861 9.99C77.8201 7.936 75.5841 6.636 73.0621 6.636C71.1121 6.636 69.4741 7.286 68.1481 8.612C66.8481 9.938 66.1981 11.55 66.1981 13.5C66.1981 15.45 66.8481 17.062 68.1481 18.388C69.4741 19.714 71.1121 20.364 73.0621 20.364ZM95.0226 14.878C95.1006 14.384 95.1526 13.942 95.1526 13.5C95.1526 11.55 94.5286 9.938 93.2806 8.612C92.0586 7.286 90.4726 6.636 88.5746 6.636C86.5726 6.636 84.9086 7.286 83.6346 8.612C82.3606 9.912 81.7106 11.55 81.7106 13.5C81.7106 15.476 82.3606 17.114 83.6606 18.414C84.9606 19.714 86.6766 20.364 88.8346 20.364C91.3306 20.364 93.2286 19.428 94.5026 17.582L91.7986 16.022C91.1486 16.88 90.1606 17.322 88.8866 17.322C86.8846 17.322 85.6626 16.516 85.2206 14.878H95.0226ZM85.1686 12.278C85.5586 10.614 86.7806 9.652 88.5746 9.652C90.1086 9.652 91.4086 10.51 91.7986 12.278H85.1686ZM101.958 10.692C101.958 10.042 102.608 9.626 103.466 9.626C104.428 9.626 105.13 10.068 105.546 10.952L108.406 9.392C107.392 7.624 105.572 6.636 103.466 6.636C102.062 6.636 100.892 7 99.93 7.754C98.994 8.482 98.526 9.496 98.526 10.77C98.526 13.474 100.944 14.28 102.868 14.774C104.194 15.112 105.234 15.502 105.234 16.204C105.234 16.958 104.636 17.322 103.44 17.322C102.114 17.322 101.282 16.75 100.892 15.632L97.98 17.27C98.942 19.324 100.762 20.364 103.44 20.364C104.922 20.364 106.17 20 107.158 19.298C108.172 18.57 108.666 17.53 108.666 16.204C108.692 13.422 106.222 12.512 104.324 12.122C102.998 11.784 101.958 11.394 101.958 10.692Z" fill="#2E2F31"/>
<path d="M115.064 20.364C116.546 20.364 117.768 19.142 117.768 17.66C117.768 16.178 116.546 14.956 115.064 14.956C113.582 14.956 112.334 16.178 112.334 17.66C112.334 19.142 113.53 20.364 115.064 20.364ZM125.835 5.206C126.849 4.192 126.849 2.658 125.835 1.696C124.873 0.733999 123.339 0.733999 122.325 1.696C121.363 2.658 121.363 4.192 122.325 5.206C123.339 6.168 124.873 6.168 125.835 5.206ZM126.251 20V7H121.935V20H126.251ZM138.548 6.636C136.91 6.636 135.714 7.182 134.934 8.3V7H130.618V20H134.934V13.084C134.934 11.55 135.714 10.718 137.066 10.718C138.236 10.718 139.016 11.42 139.016 12.772V20H143.332V12.226C143.332 8.612 141.356 6.636 138.548 6.636ZM155.846 13.5L160.214 7H155.222L151.868 12.434V1.8H147.552V20H151.868V14.462L155.56 20H160.396L155.846 13.5Z" fill="#30A5E0"/>
</svg>
