<svg width="222" height="150" viewBox="0 0 222 150" fill="none" xmlns="http://www.w3.org/2000/svg">
<mask id="mask0" mask-type="alpha" maskUnits="userSpaceOnUse" x="0" y="0" width="222" height="150">
<path fill-rule="evenodd" clip-rule="evenodd" d="M0 0H221.951V150H0V0Z" fill="white"/>
</mask>
<g mask="url(#mask0)">
<path fill-rule="evenodd" clip-rule="evenodd" d="M203.049 37.8048H129.878C140.318 37.8048 148.78 29.3418 148.78 18.9028C148.78 8.46276 140.318 -0.000244141 129.878 -0.000244141H21.3409C10.9019 -0.000244141 2.43888 8.46276 2.43888 18.9028C2.43888 29.3418 10.9019 37.8048 21.3409 37.8048H57.9269C47.4869 37.8048 39.0249 46.2678 39.0249 56.7068V56.7078C39.0249 64.8098 44.1319 71.7018 51.2959 74.3898H18.9029C8.46288 74.3898 -0.00012207 82.8538 -0.00012207 93.2928C-0.00012207 103.733 8.46288 112.196 18.9029 112.196H66.4639C56.0239 112.196 47.5609 120.659 47.5609 131.098C47.5609 141.537 56.0239 150 66.4639 150H187.195C197.635 150 206.098 141.537 206.098 131.098C206.098 120.659 197.635 112.196 187.195 112.196H167.683C178.122 112.196 186.585 103.733 186.585 93.2928C186.585 85.1908 181.478 78.2978 174.315 75.6098H203.049C213.488 75.6098 221.951 67.1468 221.951 56.7078V56.7068C221.951 46.2678 213.488 37.8048 203.049 37.8048Z" fill="#F5F6F8"/>
</g>
<path fill-rule="evenodd" clip-rule="evenodd" d="M147.561 78.1543C147.561 101.053 128.998 119.618 106.098 119.618C83.1976 119.618 64.6346 101.053 64.6346 78.1543C64.6346 55.2553 83.1976 36.6913 106.098 36.6913C128.998 36.6913 147.561 55.2553 147.561 78.1543Z" fill="#AAE4FB"/>
<path fill-rule="evenodd" clip-rule="evenodd" d="M147.561 78.1543C147.561 101.053 128.998 119.618 106.098 119.618C83.1976 119.618 64.6346 101.053 64.6346 78.1543C64.6346 55.2553 83.1976 36.6913 106.098 36.6913C128.998 36.6913 147.561 55.2553 147.561 78.1543Z" stroke="#6B85A0" stroke-width="2"/>
<path fill-rule="evenodd" clip-rule="evenodd" d="M115.883 22.7671C136.662 26.6891 153.104 42.8681 157.416 63.5081C157.999 66.2991 160.468 68.2921 163.321 68.2921C167.188 68.2921 170.027 64.7191 169.231 60.9341C163.902 35.6101 143.726 15.7661 118.228 10.9151C114.473 10.2011 110.976 13.0191 110.976 16.8411C110.976 19.7401 113.034 22.2291 115.883 22.7671Z" fill="#F4B089"/>
<path fill-rule="evenodd" clip-rule="evenodd" d="M115.883 22.7671C136.662 26.6891 153.104 42.8681 157.416 63.5081C157.999 66.2991 160.468 68.2921 163.321 68.2921C167.188 68.2921 170.027 64.7191 169.231 60.9341C163.902 35.6101 143.726 15.7661 118.228 10.9151C114.473 10.2011 110.976 13.0191 110.976 16.8411C110.976 19.7401 113.034 22.2291 115.883 22.7671Z" stroke="#6B85A0" stroke-width="2"/>
<path fill-rule="evenodd" clip-rule="evenodd" d="M60.9073 109.738C62.8923 107.753 63.2643 104.653 61.7623 102.282C56.6333 94.1812 53.6583 84.5822 53.6583 74.2842C53.6583 49.4262 70.9583 28.6192 94.1723 23.2202C96.8843 22.5902 98.7803 20.1392 98.7803 17.3552C98.7803 13.4252 95.1013 10.5822 91.2763 11.4812C62.7833 18.1772 41.5693 43.7482 41.5693 74.2842C41.5693 86.9392 45.2193 98.7382 51.5163 108.699C53.5863 111.973 58.1673 112.477 60.9073 109.738Z" fill="#F7ADB4"/>
<path fill-rule="evenodd" clip-rule="evenodd" d="M60.9073 109.738C62.8923 107.753 63.2643 104.653 61.7623 102.282C56.6333 94.1812 53.6583 84.5822 53.6583 74.2842C53.6583 49.4262 70.9583 28.6192 94.1723 23.2202C96.8843 22.5902 98.7803 20.1392 98.7803 17.3552C98.7803 13.4252 95.1013 10.5822 91.2763 11.4812C62.7833 18.1772 41.5693 43.7482 41.5693 74.2842C41.5693 86.9392 45.2193 98.7382 51.5163 108.699C53.5863 111.973 58.1673 112.477 60.9073 109.738Z" stroke="#6B85A0" stroke-width="2"/>
<path fill-rule="evenodd" clip-rule="evenodd" d="M163.275 80.4883C160.421 80.4883 157.963 82.4853 157.368 85.2763C152.316 108.959 131.287 126.723 106.097 126.723C95.3024 126.723 85.2714 123.458 76.9324 117.865C74.5324 116.255 71.3364 116.554 69.2934 118.598C66.5904 121.301 67.0544 125.788 70.2294 127.917C80.4864 134.795 92.8194 138.813 106.097 138.813C137.108 138.813 163.002 116.936 169.205 87.7753C170.003 84.0213 167.113 80.4883 163.275 80.4883Z" fill="#E7C5F7"/>
<path fill-rule="evenodd" clip-rule="evenodd" d="M163.275 80.4883C160.421 80.4883 157.963 82.4853 157.368 85.2763C152.316 108.959 131.287 126.723 106.097 126.723C95.3024 126.723 85.2714 123.458 76.9324 117.865C74.5324 116.255 71.3364 116.554 69.2934 118.598C66.5904 121.301 67.0544 125.788 70.2294 127.917C80.4864 134.795 92.8194 138.813 106.097 138.813C137.108 138.813 163.002 116.936 169.205 87.7753C170.003 84.0213 167.113 80.4883 163.275 80.4883Z" stroke="#6B85A0" stroke-width="2"/>
<path fill-rule="evenodd" clip-rule="evenodd" d="M147.561 74.2847C147.561 97.1847 128.998 115.748 106.098 115.748C83.1976 115.748 64.6346 97.1847 64.6346 74.2847C64.6346 51.3847 83.1976 32.8217 106.098 32.8217C128.998 32.8217 147.561 51.3847 147.561 74.2847Z" fill="white"/>
<path fill-rule="evenodd" clip-rule="evenodd" d="M147.561 74.2847C147.561 97.1847 128.998 115.748 106.098 115.748C83.1976 115.748 64.6346 97.1847 64.6346 74.2847C64.6346 51.3847 83.1976 32.8217 106.098 32.8217C128.998 32.8217 147.561 51.3847 147.561 74.2847Z" stroke="#6B85A0" stroke-width="2"/>
<path d="M99.4634 66.5449C99.4634 69.9029 96.7404 72.6259 93.3824 72.6259C90.0234 72.6259 87.3004 69.9029 87.3004 66.5449" stroke="#6B85A0" stroke-width="2" stroke-linecap="round" stroke-linejoin="round"/>
<path d="M124.895 66.5449C124.895 69.9029 122.172 72.6259 118.813 72.6259C115.455 72.6259 112.732 69.9029 112.732 66.5449" stroke="#6B85A0" stroke-width="2" stroke-linecap="round" stroke-linejoin="round"/>
<path fill-rule="evenodd" clip-rule="evenodd" d="M122.683 88.3818C122.683 89.7558 121.57 90.8698 120.196 90.8698C118.822 90.8698 117.707 89.7558 117.707 88.3818C117.707 87.0078 118.822 85.8948 120.196 85.8948C121.57 85.8948 122.683 87.0078 122.683 88.3818Z" stroke="#6B85A0" stroke-width="2"/>
<path d="M128.211 77.6016H133.187L128.211 82.5776H133.187" stroke="#6B85A0" stroke-width="2" stroke-linecap="round" stroke-linejoin="round"/>
<path d="M138.162 69.3091H144.797L138.162 75.9431H144.797" stroke="#6B85A0" stroke-width="2" stroke-linecap="round" stroke-linejoin="round"/>
</svg>
