<svg width="22" height="22" viewBox="0 0 22 22" fill="none" xmlns="http://www.w3.org/2000/svg">
<path fill-rule="evenodd" clip-rule="evenodd" d="M13.9101 8.089V7.669C13.9101 6.388 13.9171 5.106 13.9081 3.823C13.9001 2.678 13.4151 1.781 12.4161 1.209C10.4851 0.101001 8.1331 1.501 8.0941 3.783C8.0721 5.088 8.0901 6.393 8.0891 7.697V8.089H7.6781C6.3961 8.089 5.1141 8.084 3.8321 8.091C2.7721 8.096 1.9081 8.512 1.3231 9.405C0.708101 10.344 0.649101 11.349 1.1731 12.342C1.7181 13.374 2.6151 13.889 3.7761 13.905C5.0801 13.924 6.3851 13.909 7.6891 13.91H8.0891V14.314C8.0891 15.596 8.0901 16.878 8.0891 18.159C8.0891 18.875 8.2871 19.524 8.7431 20.083C9.5231 21.038 10.7771 21.402 11.9321 21.01C13.1121 20.609 13.8931 19.528 13.9071 18.233C13.9201 16.917 13.9101 15.601 13.9111 14.285C13.9111 14.166 13.9211 14.047 13.9271 13.91H14.3731C15.6551 13.909 16.9371 13.921 18.2191 13.906C19.8941 13.888 21.1711 12.606 21.1601 10.977C21.1491 9.365 19.8671 8.109 18.2081 8.091C17.5161 8.083 16.8241 8.089 16.1321 8.089H13.9101Z" fill="white"/>
</svg>
