<svg width="16" height="16" viewBox="0 0 16 16" fill="none" xmlns="http://www.w3.org/2000/svg">
<path d="M15.1317 6.88466H9.11625V0.869191C9.11625 0.595162 8.74415 0.000976562 7.99997 0.000976562C7.25579 0.000976562 6.88368 0.595194 6.88368 0.869191V6.88469H0.868215C0.594218 6.88466 0 7.25676 0 8.00091C0 8.74506 0.594218 9.1172 0.868215 9.1172H6.88371V15.1327C6.88371 15.4067 7.25579 16.0009 8 16.0009C8.74421 16.0009 9.11629 15.4067 9.11629 15.1327V9.1172H15.1318C15.4058 9.1172 16 8.74512 16 8.00091C16 7.2567 15.4057 6.88466 15.1317 6.88466Z" fill="#30A5E0"/>
</svg>
