<svg width="16" height="15" viewBox="0 0 16 15" fill="none" xmlns="http://www.w3.org/2000/svg">
<path d="M15.5268 6.45545C14.5624 4.05665 11.9583 2.85722 7.71422 2.85722H5.71425V0.571538C5.71425 0.416676 5.65768 0.282736 5.54463 0.169685C5.43151 0.0565721 5.2977 0 5.14287 0C4.98801 0 4.85407 0.0565721 4.74101 0.169685L0.169622 4.74105C0.0565721 4.85426 0 4.98814 0 5.1429C0 5.29764 0.0565721 5.43152 0.169622 5.54466L4.74105 10.1162C4.85422 10.2291 4.98816 10.2859 5.1429 10.2859C5.2976 10.2859 5.43151 10.2292 5.54466 10.1162C5.65774 10.0031 5.71428 9.86916 5.71428 9.71437V7.42853H7.71425C8.29746 7.42853 8.81971 7.44629 9.28098 7.48194C9.74222 7.51768 10.2008 7.58167 10.656 7.67405C11.1114 7.7663 11.5073 7.89267 11.8437 8.05354C12.1799 8.21441 12.494 8.42118 12.7857 8.67405C13.0774 8.92717 13.3155 9.22758 13.5001 9.57592C13.6845 9.92417 13.8289 10.3362 13.9331 10.8124C14.0372 11.2887 14.0894 11.8274 14.0894 12.4284C14.0894 12.7557 14.0744 13.1219 14.0448 13.5267C14.0448 13.5622 14.0374 13.6322 14.0224 13.7364C14.0076 13.8407 14.0001 13.9194 14.0001 13.9729C14.0001 14.0621 14.0254 14.1365 14.0759 14.1961C14.1266 14.2556 14.1966 14.2852 14.2859 14.2852C14.3811 14.2852 14.4644 14.2347 14.5359 14.1335C14.5774 14.08 14.616 14.0144 14.6519 13.937C14.6876 13.8597 14.7279 13.7705 14.7724 13.6692C14.8172 13.568 14.8484 13.4968 14.8662 13.4551C15.622 11.7589 16 10.4167 16 9.42853C16 8.24415 15.8423 7.25296 15.5268 6.45545Z" fill="white"/>
</svg>
