<svg width="21" height="20" viewBox="0 0 21 20" fill="none" xmlns="http://www.w3.org/2000/svg">
<path fill-rule="evenodd" clip-rule="evenodd" d="M11.308 8.86771C12.3108 9.87091 13.3122 10.8727 14.3158 11.8769C14.4126 11.6798 14.5144 11.4824 14.6169 11.2838C14.8525 10.8274 15.0914 10.3642 15.2806 9.88217C15.5955 9.0805 15.4208 8.32361 14.8444 7.67072C14.7927 7.61271 14.7388 7.55624 14.6706 7.48501C14.6455 7.45868 14.6184 7.43035 14.5888 7.39917C14.6214 7.37375 14.6527 7.35072 14.6827 7.3287C14.7429 7.28441 14.7976 7.24422 14.8459 7.19694C16.5301 5.51561 18.2143 3.83139 19.8971 2.14717C19.9064 2.13786 19.9157 2.12858 19.925 2.1193C19.9997 2.04496 20.0743 1.97063 20.1398 1.88717C20.6569 1.22994 20.3405 0.267944 19.5331 0.0469439C19.0521 -0.085945 18.6606 0.0729439 18.3183 0.415277C17.5867 1.14879 16.8542 1.8815 16.1218 2.61421C15.145 3.59131 14.1683 4.5684 13.1934 5.54739C13.1435 5.59735 13.1108 5.6659 13.0782 5.73414C13.0628 5.76652 13.0474 5.79884 13.0302 5.82905L12.9016 5.78283C12.8579 5.73343 12.816 5.68232 12.774 5.63123C12.6884 5.52696 12.6028 5.4228 12.503 5.33361C11.8992 4.79339 11.1813 4.58539 10.4244 4.86272C9.90867 5.05247 9.41478 5.30076 8.92698 5.54598C8.71668 5.6517 8.50751 5.75685 8.2982 5.8565C9.3053 6.86432 10.3074 7.86674 11.308 8.86771ZM13.0752 12.9838C12.8624 12.7707 12.6501 12.5581 12.4274 12.3354C11.495 14.455 10.305 16.387 8.78464 18.144C5.05504 16.4402 2.74224 13.608 1.81684 9.56762C2.98864 9.78462 4.11144 9.77622 5.23004 9.54522C6.35004 9.31422 7.38464 8.88442 8.36044 8.22642C8.27159 8.13789 8.18375 8.05001 8.09657 7.96278C7.80047 7.66654 7.5119 7.37782 7.21664 7.09662C7.17604 7.05742 7.05144 7.06442 6.99124 7.09662C5.10124 8.07942 3.13144 8.28242 1.07764 7.71962C0.467235 7.55302 -0.0647649 8.02622 0.0052351 8.65762C0.0120671 8.71784 0.0186704 8.77816 0.0252764 8.8385C0.0552205 9.112 0.0852217 9.38603 0.136835 9.65442C1.09864 14.6384 3.94904 18.0572 8.66424 19.922C9.07164 20.0844 9.40064 19.9892 9.69324 19.6686C10.6942 18.5654 11.6028 17.3908 12.3644 16.1112C12.7005 15.5456 13.0125 14.9658 13.3198 14.3948C13.4567 14.1404 13.5927 13.8877 13.7294 13.6388C13.5034 13.4128 13.289 13.1981 13.0752 12.9838Z" fill="#818E94"/>
</svg>
