<svg width="296" height="252" viewBox="0 0 296 252" fill="none" xmlns="http://www.w3.org/2000/svg">
<g clip-path="url(#clip0)">
<path d="M40.8766 69.6635C40.8766 69.6635 40.8766 69.6267 40.8766 69.6083C40.8766 45.7529 59.4507 26.4135 82.3631 26.4135C89.5729 26.4109 96.6495 28.3546 102.845 32.0393C113.489 20.5488 131.504 12.9976 151.942 12.9976C183.032 12.9976 208.525 30.4813 210.959 52.7052C218.703 49.0851 227.347 47.8407 235.799 49.1292C244.251 50.4178 252.13 54.1815 258.442 59.9447C264.754 65.708 269.216 73.212 271.262 81.5084C273.308 89.8049 272.847 98.5214 269.939 106.556C276.924 114.512 281.079 124.562 281.079 135.497C281.079 157.284 264.534 175.587 242.166 180.746C243.437 183.957 243.459 187.526 242.229 190.753C240.999 193.979 238.605 196.628 235.518 198.178C232.432 199.729 228.877 200.069 225.552 199.131C222.227 198.193 219.375 196.046 217.555 193.111C209.301 199.255 198.242 203.033 186.083 203.033C171.619 203.033 158.707 197.716 150.229 189.389C138.755 197.841 123.228 203.033 106.132 203.033C80.5616 203.033 58.4984 191.421 48.2628 174.639C46.257 175.04 44.2163 175.242 42.1707 175.242C19.9752 175.242 1.97836 151.607 1.97836 122.449C1.98203 93.8386 19.2804 70.5454 40.8766 69.6635Z" fill="white"/>
<path d="M217.099 195.849C219.371 198.6 222.509 200.502 226.001 201.245C229.493 201.987 233.134 201.526 236.33 199.938C239.527 198.349 242.092 195.725 243.606 192.494C245.121 189.263 245.497 185.614 244.673 182.142C267.387 176.039 283.06 157.126 283.06 135.493C283.06 124.76 279.303 114.64 272.181 106.126C274.904 97.9537 275.234 89.1739 273.131 80.8206C271.029 72.4673 266.582 64.8883 260.315 58.9762C254.047 53.0641 246.22 49.0652 237.754 47.4502C229.289 45.8352 220.538 46.6716 212.532 49.8607C210.573 39.4984 203.826 29.9959 193.304 22.8745C182.006 15.2277 167.318 11.0166 151.942 11.0166C132.32 11.0166 113.985 17.9212 102.481 29.5586C96.3069 26.2022 89.3913 24.4414 82.3629 24.4362C58.9872 24.4362 39.8653 43.7205 38.9351 67.8148C16.9565 69.9534 0.00378418 93.4928 0.00378418 122.427C0.00378418 152.628 18.9235 177.196 42.1742 177.196C43.8916 177.196 45.6063 177.062 47.303 176.796C58.4688 193.964 81.3775 204.987 106.128 204.987C122.43 204.987 137.956 200.357 150.052 191.924C159.207 200.247 172.233 204.987 186.083 204.987C197.491 204.987 208.425 201.757 217.099 195.849ZM149.056 187.765C137.453 196.315 122.217 201.022 106.136 201.022C82.179 201.022 60.1269 190.249 49.9575 173.577L49.2222 172.394L47.8655 172.666C45.9879 173.041 44.0779 173.231 42.1631 173.232C21.0927 173.232 3.95242 150.449 3.95242 122.419C3.95242 109.036 7.84592 96.3958 14.9123 86.8308C21.85 77.4422 31.0893 72.0442 40.9499 71.6327L42.847 71.5004V69.6006C42.847 46.8733 60.5718 28.3864 82.3555 28.3864C89.2133 28.3911 95.9437 30.239 101.841 33.7366L103.216 34.5524L104.319 33.3802C114.981 21.853 132.806 14.9705 151.961 14.9705C181.586 14.9741 206.661 31.6421 208.988 52.907L209.289 55.6592L211.797 54.4834C219.187 51.0263 227.437 49.8372 235.504 51.0662C243.571 52.2953 251.091 55.8873 257.115 61.3882C263.14 66.8891 267.396 74.0517 269.348 81.9705C271.299 89.8892 270.857 98.2084 268.078 105.876L267.677 106.979L268.449 107.857C275.435 115.805 279.111 125.363 279.111 135.493C279.111 155.924 263.74 173.739 241.732 178.813L239.489 179.331L240.335 181.47C241.416 184.22 241.43 187.274 240.374 190.034C239.318 192.794 237.268 195.059 234.626 196.386C231.985 197.712 228.943 198.004 226.097 197.204C223.251 196.403 220.807 194.569 219.246 192.06L218.11 190.223L216.385 191.509C208.142 197.642 197.388 201.022 186.098 201.022C172.656 201.022 160.093 196.245 151.63 187.945L150.427 186.761L149.056 187.765Z" fill="#373737"/>
<path d="M251.25 217.451C246.261 217.451 242.216 213.409 242.216 208.423C242.216 203.437 246.261 199.395 251.25 199.395C256.239 199.395 260.283 203.437 260.283 208.423C260.283 213.409 256.239 217.451 251.25 217.451Z" fill="white"/>
<path d="M262.265 208.423C262.265 206.242 261.618 204.111 260.406 202.298C259.194 200.485 257.471 199.072 255.456 198.238C253.441 197.404 251.223 197.185 249.083 197.611C246.944 198.036 244.978 199.086 243.436 200.628C241.893 202.169 240.843 204.134 240.417 206.272C239.992 208.41 240.21 210.627 241.045 212.641C241.88 214.656 243.294 216.377 245.107 217.589C246.921 218.8 249.054 219.446 251.235 219.446C254.16 219.446 256.966 218.285 259.034 216.218C261.103 214.15 262.265 211.346 262.265 208.423ZM258.305 208.423C258.303 209.817 257.887 211.179 257.111 212.337C256.334 213.496 255.232 214.398 253.942 214.93C252.653 215.462 251.235 215.6 249.867 215.326C248.499 215.053 247.243 214.381 246.257 213.394C245.271 212.407 244.601 211.151 244.329 209.783C244.058 208.416 244.198 206.999 244.733 205.711C245.267 204.423 246.171 203.322 247.331 202.548C248.491 201.773 249.855 201.36 251.25 201.36C253.122 201.362 254.917 202.107 256.24 203.432C257.564 204.756 258.306 206.551 258.305 208.423Z" fill="#373737"/>
<path d="M260.284 236.482C256.684 236.482 253.765 233.565 253.765 229.967C253.765 226.369 256.684 223.452 260.284 223.452C263.884 223.452 266.802 226.369 266.802 229.967C266.802 233.565 263.884 236.482 260.284 236.482Z" fill="white"/>
<path d="M268.784 229.967C268.782 228.287 268.282 226.646 267.346 225.25C266.411 223.854 265.083 222.767 263.529 222.126C261.976 221.485 260.267 221.318 258.619 221.647C256.971 221.976 255.457 222.786 254.269 223.975C253.082 225.163 252.273 226.677 251.946 228.325C251.619 229.972 251.788 231.68 252.432 233.232C253.075 234.783 254.165 236.11 255.563 237.043C256.96 237.976 258.603 238.474 260.284 238.474C262.54 238.472 264.702 237.575 266.296 235.979C267.89 234.384 268.785 232.222 268.784 229.967ZM264.825 229.967C264.825 230.865 264.558 231.742 264.059 232.488C263.56 233.235 262.851 233.816 262.022 234.16C261.192 234.503 260.279 234.593 259.398 234.418C258.517 234.243 257.708 233.811 257.073 233.176C256.438 232.541 256.006 231.733 255.831 230.852C255.655 229.972 255.745 229.06 256.089 228.23C256.433 227.401 257.015 226.692 257.761 226.194C258.508 225.695 259.386 225.429 260.284 225.429C261.488 225.43 262.642 225.908 263.494 226.759C264.345 227.61 264.824 228.764 264.825 229.967Z" fill="#373737"/>
<path d="M277.34 250.02C275.274 250.02 273.6 248.346 273.6 246.282C273.6 244.219 275.274 242.545 277.34 242.545C279.405 242.545 281.079 244.219 281.079 246.282C281.079 248.346 279.405 250.02 277.34 250.02Z" fill="white"/>
<path d="M283.06 246.283C283.06 245.152 282.725 244.046 282.096 243.106C281.467 242.166 280.574 241.433 279.529 241C278.483 240.567 277.333 240.454 276.223 240.675C275.114 240.895 274.094 241.44 273.294 242.24C272.494 243.039 271.949 244.058 271.728 245.167C271.508 246.276 271.621 247.426 272.054 248.471C272.487 249.515 273.22 250.408 274.161 251.037C275.102 251.665 276.208 252 277.339 252C278.856 251.998 280.31 251.395 281.382 250.323C282.455 249.252 283.058 247.798 283.06 246.283V246.283ZM279.1 246.283C279.1 246.631 278.997 246.971 278.804 247.26C278.61 247.55 278.335 247.776 278.013 247.909C277.691 248.042 277.337 248.077 276.996 248.009C276.654 247.941 276.34 247.773 276.094 247.527C275.848 247.281 275.68 246.967 275.612 246.626C275.544 246.285 275.579 245.931 275.712 245.609C275.846 245.287 276.071 245.013 276.361 244.819C276.651 244.626 276.991 244.522 277.339 244.522C277.806 244.522 278.254 244.708 278.585 245.038C278.915 245.368 279.1 245.816 279.1 246.283Z" fill="#373737"/>
</g>
<defs>
<clipPath id="clip0">
<rect width="296" height="252" fill="white" transform="matrix(-1 0 0 1 296 0)"/>
</clipPath>
</defs>
</svg>
