<svg width="24" height="24" viewBox="0 0 24 24" fill="none" xmlns="http://www.w3.org/2000/svg">
<path fill-rule="evenodd" clip-rule="evenodd" d="M23.029 11.975C23.543 11.876 23.829 11.529 24 11.063V10.407C23.9674 10.2509 23.9379 10.0939 23.9085 9.93694C23.8432 9.58891 23.7779 9.24099 23.678 8.904C22.257 4.13 19.084 1.21 14.262 0.049C14.2245 0.0403366 14.188 0.0275034 14.1514 0.0146398C14.1373 0.00968555 14.1232 0.00472681 14.109 0H12.75C12.15 0.364 11.985 0.905 11.99 1.587C12.0069 3.86459 12.0044 6.14273 12.0018 8.42061C12.0009 9.24312 12 10.0656 12 10.888C12 11.601 12.403 12 13.121 12H22.68C22.797 12 22.916 11.998 23.029 11.975ZM0 13.1253V14.7193C0.0220279 14.8579 0.0426517 14.9968 0.0632747 15.1356C0.11006 15.4507 0.156841 15.7657 0.22 16.0773C0.78 18.8573 2.318 20.9593 4.689 22.4693C6.041 23.3303 7.527 23.8183 9.125 23.9623C9.15897 23.9655 9.19211 23.9753 9.22523 23.985C9.24378 23.9905 9.26233 23.996 9.281 24.0003H10.828C10.9462 23.9818 11.0646 23.9645 11.1828 23.9472C11.4417 23.9093 11.7003 23.8714 11.957 23.8213C15.963 23.0323 19.112 19.9023 19.911 15.9173C19.946 15.7413 19.977 15.5653 20.002 15.3873C20.098 14.7083 19.596 14.0843 18.898 14.0163C18.7823 14.0042 18.6648 14.0042 18.548 14.0043C18.5397 14.0043 18.5313 14.0043 18.523 14.0043C17.8148 14.0039 17.1064 14.0042 16.398 14.0045C15.1228 14.005 13.8474 14.0055 12.572 14.0023C11.309 13.9993 10.252 13.1673 9.968 11.9533C9.92 11.7503 9.899 11.5363 9.899 11.3273C9.897 9.2663 9.901 7.2043 9.905 5.1423C9.907 4.3983 9.306 3.8763 8.572 4.0053C4.87 4.6573 2.24 6.6873 0.731 10.1393C0.344 11.0243 0.131 11.9593 0.042 12.9213C0.037724 12.9705 0.0258296 13.0186 0.0139179 13.0669C0.00911536 13.0863 0.00431 13.1058 0 13.1253Z" fill="#818E94"/>
</svg>
