<svg width="16" height="16" viewBox="0 0 16 16" fill="none" xmlns="http://www.w3.org/2000/svg">
<path d="M15.7083 1.93437H11.2083C11.1762 1.60263 10.5252 0.701156 10.1408 0.342086C9.89758 0.115179 9.589 0 9.22383 0H6.30746C5.94229 0 5.63371 0.115179 5.39046 0.342086C5.00604 0.701156 4.3639 1.60263 4.33181 1.93437H0.291667C0.130667 1.93437 0 2.053 0 2.19976C0 2.34652 0.130667 3 0.291667 3H1L2.4455 14.6786C2.45629 15.1356 2.76896 16 3.877 16H12.123C13.231 16 13.5437 15.1356 13.5542 14.6842L15 3H15.7083C15.8693 3 16 2.34652 16 2.19976C16 2.053 15.8693 1.93437 15.7083 1.93437ZM5.75781 13.6115C5.75781 13.7582 5.161 13.8768 5 13.8768C4.839 13.8768 4.25391 13.7582 4.25391 13.6115L3.75391 4.85364C3.75391 4.70688 4.339 4.58825 4.5 4.58825C4.661 4.58825 5.25781 4.70688 5.25781 4.85364L5.75781 13.6115ZM8.75391 13.6115C8.75391 13.7582 8.161 13.8768 8 13.8768C7.839 13.8768 7.26172 13.7582 7.26172 13.6115V4.85364C7.26172 4.70688 7.839 4.58825 8 4.58825C8.161 4.58825 8.75391 4.70688 8.75391 4.85364V13.6115ZM11.7539 13.6115C11.7539 13.7582 11.161 13.8768 11 13.8768C10.839 13.8768 10.2578 13.7582 10.2578 13.6115L10.7578 4.85364C10.7578 4.70688 11.339 4.58825 11.5 4.58825C11.661 4.58825 12.2539 4.70688 12.2539 4.85364L11.7539 13.6115ZM6 1.32066C6.13067 1.19911 6.184 1.05354 6.38846 1.05354H9.05061C9.25506 1.05354 9.36933 1.19911 9.5 1.32066C9.73479 1.53907 9.99354 1.65624 10.0262 1.93437H5.39046C5.5 1.80997 5.7655 1.53907 6 1.32066Z" fill="#818E94"/>
</svg>
