<svg width="30" height="30" viewBox="0 0 30 30" fill="none" xmlns="http://www.w3.org/2000/svg">
<circle cx="15" cy="15" r="13.75" stroke="white" stroke-width="2.5"/>
<g clip-path="url(#clip0)">
<path d="M21.7083 8.93437H18.2083C18.1762 8.60263 17.5252 7.70116 17.1408 7.34209C16.8976 7.11518 16.589 7 16.2238 7H13.3075C12.9423 7 12.6337 7.11518 12.3905 7.34209C12.006 7.70116 11.3639 8.60263 11.3318 8.93437H8.29167C8.13067 8.93437 8 9.053 8 9.19976C8 9.34652 8.13067 9.46515 8.29167 9.46515H8.88696L9.4455 21.6786C9.45629 22.1356 9.76896 23 10.877 23H19.123C20.231 23 20.5437 22.1356 20.5542 21.6842L21.113 9.46515H21.7083C21.8693 9.46515 22 9.34652 22 9.19976C22 9.053 21.8693 8.93437 21.7083 8.93437ZM12.375 20.6115C12.375 20.7582 12.2443 20.8768 12.0833 20.8768C11.9223 20.8768 11.7917 20.7582 11.7917 20.6115V11.8536C11.7917 11.7069 11.9223 11.5883 12.0833 11.5883C12.2443 11.5883 12.375 11.7069 12.375 11.8536V20.6115ZM15.2917 20.6115C15.2917 20.7582 15.161 20.8768 15 20.8768C14.839 20.8768 14.7083 20.7582 14.7083 20.6115V11.8536C14.7083 11.7069 14.839 11.5883 15 11.5883C15.161 11.5883 15.2917 11.7069 15.2917 11.8536V20.6115ZM18.2083 20.6115C18.2083 20.7582 18.0777 20.8768 17.9167 20.8768C17.7557 20.8768 17.625 20.7582 17.625 20.6115V11.8536C17.625 11.7069 17.7557 11.5883 17.9167 11.5883C18.0777 11.5883 18.2083 11.7069 18.2083 11.8536V20.6115ZM13 8.32066C13.1307 8.19911 13.184 8.05354 13.3885 8.05354H16.0506C16.2551 8.05354 16.3693 8.19911 16.5 8.32066C16.7348 8.53907 16.9935 8.65624 17.0262 8.93437H12.3905C12.5 8.80997 12.7655 8.53907 13 8.32066Z" fill="white"/>
</g>
<defs>
<clipPath id="clip0">
<rect width="16" height="16" fill="white" transform="translate(7 7)"/>
</clipPath>
</defs>
</svg>
