<svg width="15" height="18" viewBox="0 0 15 18" fill="none" xmlns="http://www.w3.org/2000/svg">
<path fill-rule="evenodd" clip-rule="evenodd" d="M8.31434 4.13601V2.43001C8.88134 2.99801 9.45334 3.57001 10.0193 4.13601H8.31434ZM9.94003 5.53223L11.0763 5.53201V5.80901C11.0763 6.09809 11.0761 6.38716 11.0759 6.67622C11.0753 7.44709 11.0747 8.21781 11.0783 8.98801C11.0803 9.38301 11.3813 9.68101 11.7573 9.68401C12.1353 9.68701 12.4353 9.39301 12.4523 9.00101C12.4545 8.94966 12.4541 8.8983 12.4537 8.84659V8.84653C12.4535 8.82576 12.4533 8.80492 12.4533 8.78401C12.4533 8.44637 12.453 8.10873 12.4526 7.77109C12.4517 6.82573 12.4507 5.88037 12.4573 4.93501C12.4593 4.66001 12.3613 4.45901 12.1703 4.26801C10.9227 3.02691 9.68117 1.78064 8.43844 0.533195L8.15034 0.244009C7.99034 0.0840087 7.80834 -0.000991277 7.57534 8.72309e-06C6.75261 0.00182691 5.93008 0.00157897 5.10758 0.00133104C4.12058 0.00103352 3.13361 0.000736003 2.14634 0.00400872C0.990336 0.00700872 0.0043363 0.988009 0.0033363 2.14001C-0.000663697 6.25701 -0.0036637 10.373 0.0103363 14.49C0.0113363 14.787 0.0913363 15.115 0.231336 15.377C0.649336 16.166 1.30534 16.612 2.23134 16.609C3.39941 16.605 4.56748 16.6055 5.73556 16.6059H5.74154C6.32347 16.6061 6.9054 16.6063 7.48734 16.606L7.52481 16.6062C7.59176 16.6066 7.65947 16.607 7.72434 16.596C8.07734 16.533 8.32634 16.213 8.29734 15.867C8.26734 15.498 7.97334 15.232 7.57934 15.231C6.54572 15.2299 5.51178 15.23 4.47789 15.2302H4.47787H4.47785C3.70227 15.2303 2.92671 15.2304 2.15134 15.23C1.57234 15.23 1.37834 15.04 1.37834 14.472C1.37734 10.355 1.37734 6.23901 1.37834 2.12201C1.37834 1.57901 1.57934 1.38001 2.12334 1.37901H6.68634H6.92334V4.72301C6.92334 5.26701 7.18534 5.53101 7.73134 5.53201C8.46359 5.53267 9.19584 5.53245 9.93862 5.53223H9.93932H9.94003ZM11.076 14.6969V15.5779C11.067 15.5824 11.058 15.5867 11.049 15.5909C11.0439 15.5933 11.0388 15.5957 11.0337 15.5982C11.0298 15.6001 11.0259 15.602 11.022 15.6039C10.9347 15.5149 10.8476 15.4257 10.7605 15.3364L10.7603 15.3363C10.5861 15.1579 10.412 14.9795 10.236 14.8029C9.90804 14.4739 9.49304 14.4499 9.20204 14.7389C8.91204 15.0289 8.93504 15.4449 9.26304 15.7729L11.246 17.7649C11.556 18.0769 11.968 18.0779 12.279 17.7659C12.7606 17.2843 13.2417 16.8016 13.7226 16.319L14.203 15.8369C14.589 15.4499 14.635 15.0499 14.328 14.7409C14.022 14.4329 13.617 14.4769 13.233 14.8619C13.0793 15.0162 12.9268 15.1713 12.7743 15.3265C12.6826 15.4196 12.591 15.5128 12.499 15.6059C12.484 15.5969 12.469 15.5879 12.453 15.5779V15.3469L12.4532 14.4707V14.4692C12.4533 13.5938 12.4535 12.7183 12.452 11.8429C12.452 11.3939 12.175 11.0829 11.776 11.0779C11.365 11.0719 11.078 11.3819 11.077 11.8419C11.0755 12.5554 11.0757 13.2682 11.0759 13.9814V13.9815V13.9828L11.076 14.6969ZM6.21664 7.61651L7.11671 7.61629C7.71715 7.61606 8.3179 7.61584 8.91864 7.61651C9.36764 7.61751 9.67764 7.89351 9.68364 8.29251C9.68964 8.70251 9.37764 8.99151 8.91964 8.99251C7.12464 8.99451 5.33064 8.99451 3.53664 8.99251C3.07564 8.99251 2.76664 8.70451 2.77164 8.29351C2.77664 7.89451 3.08864 7.61651 3.53564 7.61651C4.13156 7.61584 4.72704 7.61606 5.32267 7.61629H5.32278L6.21664 7.61651ZM6.91504 11.0761C6.91804 10.6841 6.61004 10.3891 6.18704 10.3861C5.86768 10.384 5.54833 10.3844 5.22934 10.3848C5.10184 10.3849 4.9744 10.3851 4.84704 10.3851C4.71084 10.3851 4.57465 10.3848 4.43846 10.3846C4.12065 10.3839 3.80285 10.3833 3.48504 10.3861C3.07504 10.3901 2.77304 10.6821 2.77104 11.0691C2.76804 11.4541 3.07104 11.7591 3.47704 11.7601C4.38504 11.7651 5.29304 11.7651 6.20104 11.7601C6.61204 11.7581 6.91204 11.4631 6.91504 11.0761Z" fill="#30A5E0"/>
</svg>
