<svg width="30" height="23" viewBox="0 0 30 23" fill="none" xmlns="http://www.w3.org/2000/svg">
<path fill-rule="evenodd" clip-rule="evenodd" d="M15.0115 14.8178C15.825 14.8074 16.5692 14.5602 17.2408 14.1002C19.4885 12.5661 21.7315 11.0228 23.9758 9.4829C24.9646 8.80555 25.9558 8.13165 26.94 7.44625C27.4223 7.11045 27.5631 6.61135 27.4685 6.0513C27.3865 5.56945 27.0623 5.29 26.6065 5.18075C26.1888 5.0784 25.8231 5.2279 25.4769 5.4648C22.2935 7.65095 19.1088 9.8348 15.9242 12.0187C15.3069 12.4419 14.8154 12.4407 14.1923 12.0141C11.0319 9.84515 7.87268 7.6774 4.70999 5.51195C4.54845 5.40155 4.37883 5.29345 4.19768 5.2279C3.59883 5.0071 2.9423 5.23595 2.69191 5.7339C2.36883 6.37675 2.52922 7.0863 3.10153 7.47845C6.33345 9.69795 9.56537 11.9186 12.8031 14.1301C13.4665 14.582 14.2073 14.8143 15.0115 14.8178ZM30 4.5517V18.4471C29.9827 18.492 29.9573 18.5357 29.9504 18.5817C29.6354 20.6897 28.1931 22.3307 26.1946 22.8482C25.98 22.9045 25.7631 22.9494 25.5473 23H4.45385C4.39962 22.9816 4.34654 22.954 4.29231 22.9448C2.31231 22.6527 0.683077 21.1727 0.171923 19.197C0.107308 18.9486 0.0565385 18.6978 0 18.4471V4.5517C0.0173077 4.4965 0.045 4.4436 0.0530769 4.3861C0.339231 2.36095 1.78731 0.69575 3.72 0.1748C3.96231 0.10925 4.20923 0.0575 4.45385 0H25.5473C25.6004 0.0184 25.6535 0.04485 25.7088 0.05405C27.6888 0.3473 29.3169 1.8262 29.8281 3.80305C29.8927 4.0503 29.9435 4.30215 30 4.5517Z" fill="#C2CACD"/>
</svg>
