<svg width="21" height="20" viewBox="0 0 21 20" fill="none" xmlns="http://www.w3.org/2000/svg">
<path fill-rule="evenodd" clip-rule="evenodd" d="M9.3947 1.98201H18.2047C18.2097 1.99401 18.2147 2.00626 18.2197 2.01851C18.2247 2.03076 18.2297 2.04301 18.2347 2.05501C18.1968 2.08184 18.1594 2.10921 18.1219 2.13658C18.0575 2.18367 17.9931 2.23074 17.9267 2.27501C17.6296 2.47306 17.3326 2.67122 17.0357 2.86937C15.7493 3.72772 14.4633 4.58581 13.1707 5.43401C12.9157 5.60101 12.8127 5.77501 12.8137 6.08801C12.8247 9.32586 12.8235 12.5644 12.8223 15.8019C12.8221 16.373 12.8218 16.944 12.8217 17.515C12.8217 17.7821 12.8217 17.914 12.7557 17.9793C12.6912 18.043 12.5638 18.043 12.3117 18.043C11.4597 18.044 10.6077 18.044 9.7567 18.042C9.68042 18.042 9.60458 18.0363 9.51868 18.0298C9.47507 18.0265 9.42887 18.023 9.3787 18.02V15.298C9.22575 15.4484 9.07506 15.5962 8.92629 15.742C8.42631 16.2323 7.94805 16.7012 7.4787 17.179C7.41472 17.2449 7.41366 17.3865 7.41282 17.4984C7.41278 17.5037 7.41274 17.5089 7.4127 17.514C7.4077 18.188 7.4087 18.862 7.4117 19.537C7.4127 19.996 7.4157 20 7.8757 20C12.0737 20 16.2717 19.999 20.4707 19.998H20.4737C20.5407 19.998 20.6077 19.9907 20.677 19.9831C20.7132 19.9791 20.75 19.9751 20.7877 19.972V0.0300101C20.7474 0.0269862 20.709 0.023285 20.6718 0.0197029C20.5984 0.0126238 20.5298 0.00601009 20.4607 0.00601009C19.405 0.00576009 18.3493 0.00569759 17.2936 0.00563509C14.1266 0.00544759 10.9597 0.0052601 7.7917 1.00878e-05C7.5047 -0.000989912 7.4017 0.0720101 7.4047 0.37401C7.41136 1.00916 7.41146 1.6443 7.41156 2.27956C7.41167 2.98053 7.41178 3.68163 7.4207 4.38301C7.4227 4.54901 7.5107 4.75101 7.6257 4.87301C8.00716 5.27759 8.40287 5.6685 8.79818 6.05903C8.91585 6.17527 9.03349 6.29148 9.1507 6.40801C9.18685 6.44416 9.22805 6.47526 9.28181 6.51584C9.3143 6.54037 9.35138 6.56835 9.3947 6.60301V1.98201ZM4.624 7.74611C5.313 8.41311 6.013 9.09111 6.714 9.77011C6.694 9.81011 6.675 9.85011 6.656 9.89011H0V11.9951H6.662C6.66966 12.014 6.67766 12.0325 6.6856 12.0508C6.69114 12.0636 6.69666 12.0764 6.702 12.0891C6.14026 12.6582 5.57853 13.2266 5.02708 13.7846C4.90215 13.911 4.77775 14.0369 4.654 14.1621C4.9399 14.4491 5.21391 14.7252 5.47305 14.9863C5.67707 15.1918 5.87187 15.3881 6.056 15.5731C7.616 14.0151 9.184 12.4501 10.731 10.9071C9.97135 10.1475 9.20277 9.37913 8.43132 8.60793C7.65407 7.83093 6.8739 7.05101 6.097 6.27411C5.87011 6.501 5.63944 6.73143 5.40225 6.96839C5.15123 7.21914 4.8929 7.47721 4.624 7.74611Z" fill="#FC6180"/>
</svg>
