<svg width="20" height="20" viewBox="0 0 20 20" fill="none" xmlns="http://www.w3.org/2000/svg">
<g clip-path="url(#clip0)">
<path d="M10.0001 0.000976562C4.486 0.000976562 0 4.48691 0 10.0009C0 15.5149 4.486 20.0008 10.0001 20.0008C15.5141 20.0008 20 15.5149 20 10.0009C20 4.48691 15.5141 0.000976562 10.0001 0.000976562ZM10.0001 18.3615C5.38993 18.3615 1.63933 14.611 1.63933 10.0009C1.63933 5.39084 5.38993 1.64031 10.0001 1.64031C14.6101 1.64031 18.3607 5.39084 18.3607 10.0009C18.3607 14.611 14.6101 18.3615 10.0001 18.3615Z" fill="white"/>
<path d="M14.3259 6.16191L8.38852 12.0994L5.67391 9.38478C5.35378 9.06471 4.83483 9.06471 4.51471 9.38478C4.19464 9.70491 4.19464 10.2239 4.51471 10.544L7.80891 13.8382C7.96898 13.9982 8.17875 14.0783 8.38852 14.0783C8.59829 14.0783 8.80805 13.9982 8.96812 13.8382L15.4851 7.32118C15.8052 7.00106 15.8052 6.48211 15.4851 6.16198C15.165 5.84185 14.646 5.84185 14.3259 6.16191Z" fill="white"/>
</g>
<defs>
<clipPath id="clip0">
<rect width="20" height="20" fill="white"/>
</clipPath>
</defs>
</svg>
