<svg width="24" height="22" viewBox="0 0 24 22" fill="none" xmlns="http://www.w3.org/2000/svg">
<path d="M24 9.9C24 8.679 23.0182 7.7 21.8182 7.7H14.9236L15.9709 2.673C15.9927 2.563 16.0036 2.442 16.0036 2.321C16.0036 1.87 15.8182 1.452 15.5236 1.155L14.3673 0L7.18909 7.238C6.78545 7.645 6.54545 8.195 6.54545 8.8V19.8C6.54545 20.3835 6.77532 20.9431 7.18449 21.3556C7.59366 21.7682 8.14862 22 8.72727 22H18.5455C19.4509 22 20.2255 21.45 20.5527 20.658L23.8473 12.903C23.9455 12.65 24 12.386 24 12.1V9.9ZM0 22H4.36364V8.8H0V22Z" fill="#2E2F31"/>
</svg>
