<svg width="24" height="24" viewBox="0 0 24 24" fill="none" xmlns="http://www.w3.org/2000/svg">
<path fill-rule="evenodd" clip-rule="evenodd" d="M14.916 6.345C14.919 5.42625 14.082 4.614 13.1175 4.59825C12.0907 4.58175 11.2035 5.3955 11.2102 6.3465C11.217 7.26525 12.0472 8.04375 13.038 8.06025C14.0408 8.0775 14.913 7.281 14.916 6.345ZM8.45025 11.1548C8.6025 11.1135 8.7195 11.0843 8.8365 11.0513C10.2885 10.6418 10.8135 11.1143 10.4692 12.585C10.1595 13.9125 9.7395 15.2153 9.44775 16.5465C9.0555 18.3428 10.1145 19.521 11.9445 19.3305C12.6038 19.2623 13.242 19.005 13.893 18.8505C14.436 18.7222 14.6813 18.3953 14.643 17.8305C14.2875 17.8965 13.9462 17.997 13.5998 18.0187C12.726 18.0735 12.3863 17.7038 12.4875 16.8345C12.5198 16.554 12.5843 16.275 12.6578 16.0013C12.9683 14.838 13.3335 13.6868 13.5938 12.5115C14.0175 10.6042 13.1235 9.51975 11.1803 9.62175C10.5083 9.657 9.85275 9.96225 9.1815 10.1108C8.63475 10.2308 8.42175 10.56 8.45025 11.1548ZM11.0933 0H12.9067C13.026 0.02925 13.143 0.0705 13.2638 0.08625C18.2423 0.759 21.6022 3.47175 23.3438 8.16075C23.6775 9.06 23.787 10.0425 24 10.986V13.0133C23.9708 13.0935 23.9265 13.1722 23.9153 13.2548C23.1908 18.4568 20.3175 21.8692 15.3405 23.4975C14.5582 23.7533 13.7197 23.8365 12.9067 24H11.0933C10.8158 23.9587 10.5352 23.9265 10.2592 23.8748C5.36625 22.9635 2.085 20.1795 0.52725 15.435C0.27075 14.6543 0.17175 13.8218 0 13.0133V10.986C0.02925 10.9058 0.0735 10.827 0.0855 10.7437C0.80925 5.54175 3.6825 2.1285 8.66025 0.501C9.4425 0.246 10.281 0.16275 11.0933 0Z" fill="#818E94"/>
</svg>
