<svg width="22" height="24" viewBox="0 0 22 24" fill="none" xmlns="http://www.w3.org/2000/svg">
<path fill-rule="evenodd" clip-rule="evenodd" d="M11.2594 0H10.7424C10.5731 0.0265412 10.403 0.0497673 10.2329 0.0729969C9.85811 0.124162 9.48324 0.175343 9.11736 0.262C6.12836 0.965 3.73436 3.635 3.41536 6.657C3.3569 7.21236 3.34924 7.77329 3.34158 8.33458C3.33666 8.69503 3.33174 9.05562 3.31336 9.415C3.17236 12.161 2.24536 14.618 0.519358 16.776C0.479725 16.8258 0.439015 16.8751 0.398315 16.9243C0.335293 17.0005 0.272295 17.0766 0.213358 17.155C-0.00164243 17.441 -0.0656424 17.745 0.0743576 18.091C0.458358 19.042 1.27536 19.61 2.30536 19.61C8.13936 19.612 13.9734 19.613 19.8074 19.61C20.9094 19.609 21.6994 18.994 21.9634 17.952C22.0604 17.565 21.9594 17.232 21.7074 16.93C20.4564 15.426 19.6014 13.725 19.1364 11.832C18.8634 10.725 18.7394 9.599 18.7634 8.461C18.7874 7.237 18.6564 6.041 18.1704 4.908C17.0544 2.309 15.1404 0.657 12.3044 0.127C12.0679 0.0830003 11.8271 0.0588518 11.5866 0.0347331C11.4773 0.0237698 11.3681 0.0128127 11.2594 0ZM10.6423 23.9632C10.7101 23.975 10.7781 23.9868 10.8459 24H11.2589C11.2821 23.995 11.3054 23.9896 11.3288 23.9841C11.38 23.9722 11.4317 23.9602 11.4839 23.952C12.5029 23.802 13.2999 23.311 13.8559 22.444C14.0949 22.071 14.1559 21.68 13.9359 21.282C13.7119 20.879 13.3449 20.709 12.8859 20.711C12.5091 20.7128 12.132 20.7124 11.7549 20.7121C11.5035 20.7118 11.2521 20.7116 11.0009 20.712C10.8188 20.712 10.6367 20.7112 10.4546 20.7103C9.97434 20.7081 9.49384 20.7059 9.01386 20.719C8.55886 20.73 8.23886 20.98 8.04586 21.378C7.86286 21.756 7.90786 22.122 8.15886 22.462C8.68086 23.167 9.36086 23.649 10.2159 23.876C10.3557 23.9133 10.4988 23.9382 10.6423 23.9632Z" fill="#818E94"/>
</svg>
