<svg width="16" height="16" viewBox="0 0 16 16" fill="none" xmlns="http://www.w3.org/2000/svg">
<path fill-rule="evenodd" clip-rule="evenodd" d="M9.78659 0.669541C10.6208 -0.228459 11.8344 -0.226459 12.7137 0.691541C13.2823 1.28554 13.5489 1.97454 13.2823 2.80554C13.1774 3.13154 12.9353 3.49254 12.7226 3.66754L11.7445 2.66901C11.0931 2.0041 10.4412 1.3386 9.78659 0.669541ZM3.51563 12.1151L3.51883 12.1141L3.53523 12.1094C3.95801 11.9871 4.38162 11.8646 4.80663 11.7418C3.82631 10.7418 2.8606 9.75767 1.89299 8.7716L1.8844 8.76284L1.88321 8.76445C1.87673 8.7732 1.86345 8.79114 1.85793 8.81084C1.79797 9.02557 1.73783 9.24029 1.67768 9.45504L1.67768 9.45506L1.67767 9.45508C1.45855 10.2374 1.23935 11.02 1.02861 11.8038C0.90117 12.2808 1.34916 12.7238 1.81774 12.6038C1.91181 12.5799 2.00433 12.5527 2.09717 12.5254L2.09719 12.5254L2.09721 12.5254L2.09761 12.5253C2.13233 12.5151 2.1671 12.5049 2.20201 12.4948C2.63753 12.3691 3.0733 12.243 3.50995 12.1167L3.51563 12.1151ZM15.7239 14.5826H8.00021H6.78466C4.61528 14.5826 2.44493 14.5826 0.275551 14.5836C0.0275385 14.5836 0.00205108 14.6106 0.0010708 14.8726C0.000580653 14.9936 0.000580653 15.1144 0.000580653 15.2353C0.000580653 15.3561 0.000580653 15.4771 9.05094e-05 15.5986C-0.000889778 15.9986 -0.000889778 15.9996 0.397107 15.9996H9.44026H15.7063C15.965 15.9996 15.9994 15.9656 15.9994 15.7046C16.0003 15.4216 16.0003 15.1386 15.9984 14.8546C15.9974 14.6126 15.966 14.5826 15.7239 14.5826ZM5.76133 10.6353L5.7979 10.6725C7.75946 8.67154 9.72101 6.67054 11.663 4.69054C11.3418 4.36256 11.0189 4.03301 10.6958 3.70317C10.0515 3.04545 9.40603 2.38656 8.77013 1.73654C6.81936 3.72754 4.85879 5.72754 2.90213 7.72254C3.84967 8.68716 4.81154 9.66737 5.76133 10.6353Z" fill="#818E94"/>
</svg>
