<svg width="22" height="22" viewBox="0 0 22 22" fill="none" xmlns="http://www.w3.org/2000/svg">
<path fill-rule="evenodd" clip-rule="evenodd" d="M15.0875 11.4138C16.4186 10.0392 16.9629 8.35579 17 6.54506C16.9705 4.8122 16.5169 3.27573 15.4325 1.96203C14.4491 0.772262 13.2032 0.0402513 11.6083 0.00165314C10.0531 -0.036945 8.79351 0.602295 7.77165 1.71622C6.62541 2.96762 6.07977 4.47024 6.00831 6.13605C5.92584 8.06325 6.45361 9.80491 7.76546 11.271C9.77757 13.5185 12.9875 13.5841 15.0875 11.4138ZM3.01348 15.6871C1.65916 16.738 0.502818 17.9482 0 19.6576V20.0196C0.0127717 20.0664 0.024312 20.1138 0.0358532 20.1611C0.0608354 20.2636 0.0858213 20.366 0.123307 20.4637C0.471991 21.367 1.14127 21.8593 2.08594 21.9862C2.18642 21.9988 2.28919 21.9987 2.39164 21.9986C2.40095 21.9986 2.41025 21.9986 2.41955 21.9986C4.49896 21.9989 6.57837 21.9988 8.65778 21.9986C12.2964 21.9984 15.935 21.9982 19.5736 22C20.421 22.0007 21.1225 21.6973 21.5917 20.9829C21.7256 20.7781 21.8054 20.5369 21.8852 20.2957C21.9217 20.1853 21.9583 20.0749 22 19.9679V19.6059C21.9437 19.467 21.8925 19.325 21.8413 19.1831C21.7294 18.8726 21.6174 18.5622 21.452 18.284C20.2819 16.3153 18.5501 15.0107 16.4615 14.1715C15.7668 13.8929 15.0667 13.957 14.3872 14.3397C12.1471 15.6009 9.89264 15.5927 7.63612 14.3653C7.01068 14.0253 6.34756 13.9522 5.67965 14.2108C4.72608 14.5804 3.82457 15.0576 3.01348 15.6871Z" fill="white"/>
</svg>
