<svg width="20" height="22" viewBox="0 0 20 22" fill="none" xmlns="http://www.w3.org/2000/svg">
<path fill-rule="evenodd" clip-rule="evenodd" d="M9.01426 14.0014C8.00782 14.0014 7.00138 13.9977 5.99404 14.0023C5.48355 14.0041 5.12021 14.2915 5.02847 14.749C4.88314 15.4746 5.30461 15.9934 6.05489 15.9962C7.55275 16.0017 9.0515 15.998 10.5494 15.998C11.0253 15.998 11.5022 16.0035 11.9782 15.9962C12.4896 15.988 12.8311 15.7409 12.951 15.3127C13.1527 14.5916 12.7139 14.0041 11.9645 14.0014C10.9808 13.9986 9.99799 14.0014 9.01426 14.0014ZM10.0032 11.9987H10.6107C11.7648 11.9978 12.9199 12.0052 14.0731 11.9923C14.6025 11.9868 14.9421 11.6321 14.9947 11.0859C15.0429 10.583 14.7577 10.1483 14.2919 10.0341C14.1648 10.0028 14.0286 10.0009 13.8969 10.0009C11.3081 10 8.71835 10 6.12953 10C6.02874 10 5.92613 10.0009 5.82624 10.012C5.45485 10.0553 5.15429 10.3122 5.05168 10.6696C4.84465 11.3927 5.27779 11.9932 6.02601 11.996C7.35175 12.0024 8.67749 11.9978 10.0032 11.9987ZM3.76457 0H12.1565C12.8611 0.264 13.0002 0.465667 13.0002 1.23017C13.0002 2.30633 12.9956 3.3825 13.0029 4.45867C13.0047 4.675 13.0238 4.89683 13.0738 5.10675C13.3474 6.25258 14.3175 6.99967 15.5402 7.00792C16.6875 7.01525 17.8357 7.00517 18.9839 7.01158C19.6148 7.01433 19.9921 7.37275 19.993 7.98967C19.9975 11.3667 20.0094 14.7428 19.9857 18.1188C19.9739 19.8898 18.6893 21.4417 16.9657 21.8607C16.7248 21.9202 16.4784 21.9551 16.2339 22H3.76457C3.55093 21.9624 3.33456 21.934 3.12365 21.8845C1.27271 21.4546 0.0117813 19.8752 0.00450842 17.9575C-0.00367353 15.7987 0.0017811 13.6391 0.0017811 11.4803C0.0017811 9.00075 -0.00367353 6.52208 0.00450842 4.0425C0.0108722 2.13217 1.25816 0.560083 3.10001 0.121C3.31911 0.0696667 3.54275 0.0394167 3.76457 0Z" fill="white"/>
</svg>
