<svg width="30" height="27" viewBox="0 0 30 27" fill="none" xmlns="http://www.w3.org/2000/svg">
<path fill-rule="evenodd" clip-rule="evenodd" d="M1.20684 6.35736e-05C0.632967 -0.00384947 0.225872 0.172238 0 0.705716V10.4831C0.225872 11.0153 0.632967 11.1927 1.20684 11.1888C3.41188 11.1762 5.61549 11.178 7.81978 11.1797H7.82004C8.59169 11.1803 9.36343 11.1809 10.1354 11.1809C10.897 11.1809 11.249 10.8353 11.249 10.0853V1.10224C11.249 0.353542 10.8983 0.00788966 10.1354 0.00788966C9.36344 0.00788966 8.5917 0.0085035 7.82005 0.00911728C5.61567 0.0108707 3.41197 0.0126235 1.20684 6.35736e-05ZM28.8812 22.3547C26.7643 22.3534 24.6461 22.3534 22.5292 22.3534C20.3637 22.3534 18.1969 22.3534 16.0302 22.3547C15.3722 22.3547 15.0019 22.7278 14.9993 23.3852L14.9987 23.6296C14.9974 24.1197 14.9961 24.6105 15.0006 25.1004C15.0045 25.6834 15.3893 26.076 15.9684 26.076C20.3191 26.0787 24.6724 26.0787 29.0244 26.076C29.6048 26.076 29.9922 25.686 29.9974 25.1043C29.9992 24.7426 29.9986 24.3808 29.998 24.0191C29.9977 23.8382 29.9974 23.6573 29.9974 23.4765C29.9974 22.6978 29.6573 22.3547 28.8812 22.3547ZM0 15.6037C0.227185 15.0716 0.631654 14.8942 1.20684 14.8968C3.38991 14.9102 5.57157 14.9081 7.75388 14.9061C8.54759 14.9053 9.34138 14.9046 10.1354 14.9046C10.897 14.9046 11.249 15.2503 11.249 16.0003V25.0133C11.249 25.7229 10.8865 26.0776 10.1642 26.0776C9.29769 26.078 8.43091 26.0774 7.56404 26.0768C5.4449 26.0753 3.32521 26.0738 1.20684 26.0868C0.632967 26.0894 0.225872 25.9133 0 25.3798V15.6037ZM16.0771 3.73218H22.4895L24.1138 3.73235C25.7383 3.73259 27.3631 3.73284 28.9873 3.73088C29.6097 3.73088 29.9932 3.35132 29.9971 2.73697C30.0011 2.16566 29.9998 1.59305 29.9971 1.02175C29.9945 0.386533 29.6176 0.00957626 28.9768 0.00957626C24.6537 0.00827191 20.3306 0.00827191 16.0075 0.00957626C15.3864 0.00957626 15.0029 0.389141 14.999 1.00218C14.9963 1.55523 14.9977 2.10827 14.999 2.66132C15.0003 3.3761 15.3575 3.73218 16.0771 3.73218ZM22.5069 7.45662H28.918C29.6389 7.45662 29.9974 7.81271 29.9974 8.52619L29.9982 8.80292C29.9995 9.26338 30.0007 9.72324 29.9974 10.184C29.9935 10.7997 29.6114 11.1792 28.9902 11.1792C24.6684 11.1818 20.3454 11.1818 16.0223 11.1805C15.3814 11.1792 15.0032 10.8036 14.9993 10.1697C14.9967 9.59836 14.9967 9.02575 15.0006 8.45445C15.0032 7.83879 15.3867 7.45792 16.0078 7.45792C17.6318 7.45597 19.2566 7.45621 20.8816 7.45646H20.8816L22.5069 7.45662ZM28.8812 14.9045H22.5003C20.3532 14.9045 18.2061 14.9045 16.0604 14.9058C15.3644 14.9058 15.0006 15.271 14.9993 15.9662C14.9991 16.0465 14.9989 16.1268 14.9987 16.2071C14.9974 16.689 14.9961 17.1709 15.0006 17.6527C15.0058 18.2345 15.3893 18.6271 15.9684 18.6271C20.3217 18.6297 24.6724 18.6297 29.0257 18.6271C29.6061 18.6271 29.9922 18.2371 29.9974 17.6553C30.0007 17.1967 29.9995 16.7362 29.9982 16.2754C29.9979 16.1832 29.9977 16.091 29.9974 15.9988C29.9974 15.2501 29.6442 14.9058 28.8812 14.9045Z" fill="#C2CACD"/>
</svg>
