<svg width="23" height="24" viewBox="0 0 23 24" fill="none" xmlns="http://www.w3.org/2000/svg">
<path fill-rule="evenodd" clip-rule="evenodd" d="M11.5079 15.995C13.7699 15.991 15.6019 14.201 15.6009 11.997C15.5989 9.793 13.7659 8.006 11.5039 8.005C9.23089 8.003 7.39189 9.799 7.39989 12.013C7.40589 14.217 9.24489 15.999 11.5079 15.995ZM10.1539 0H12.8479C12.8749 0.014 12.9009 0.033 12.9299 0.041C13.9669 0.288 14.5779 1.045 14.5799 2.089C14.5809 2.525 14.5759 2.963 14.5809 3.4C14.5969 4.916 16.2779 5.858 17.6329 5.112C18.0309 4.893 18.4379 4.687 18.8149 4.437C19.8659 3.742 21.1209 4.164 21.6969 5.155C22.0089 5.691 22.3159 6.232 22.6629 6.746C23.3399 7.749 22.9449 8.942 21.9509 9.51C21.5649 9.731 21.1749 9.947 20.7899 10.172C19.3809 10.994 19.3829 12.908 20.7939 13.73C21.1169 13.919 21.4369 14.113 21.7699 14.283C22.9619 14.892 23.2299 16.353 22.6189 17.409C22.3079 17.946 21.9819 18.474 21.6569 19.004C21.0709 19.962 19.9049 20.26 18.9049 19.707C18.4739 19.468 18.0499 19.216 17.6169 18.978C16.2739 18.242 14.5989 19.189 14.5809 20.693C14.5759 21.138 14.5839 21.583 14.5779 22.028C14.5669 22.889 13.9809 23.649 13.1389 23.907C13.0419 23.936 12.9449 23.969 12.8479 24H10.1539C10.1259 23.986 10.0999 23.966 10.0709 23.959C9.03389 23.713 8.42289 22.954 8.42189 21.911C8.42089 21.45 8.43089 20.989 8.41789 20.528C8.37789 19.143 6.81189 18.204 5.53589 18.8C5.05889 19.022 4.57089 19.229 4.12489 19.503C3.14989 20.102 1.90289 19.773 1.30089 18.741C0.992892 18.212 0.689892 17.678 0.345892 17.17C-0.367108 16.115 0.0908921 14.908 1.09289 14.361C1.51989 14.129 1.94489 13.892 2.35789 13.638C3.56589 12.893 3.56689 11.106 2.35989 10.362C1.96689 10.12 1.55989 9.901 1.15889 9.672C0.118892 9.075 -0.249108 7.784 0.340892 6.757C0.677892 6.172 1.02889 5.594 1.39189 5.023C1.92489 4.184 3.00789 3.88 3.91889 4.306C4.41689 4.538 4.91089 4.78 5.39889 5.032C6.77089 5.74 8.40589 4.798 8.42089 3.285C8.42489 2.84 8.41489 2.393 8.42489 1.949C8.44089 1.14 8.97089 0.419 9.74989 0.134C9.88289 0.085 10.0189 0.044 10.1539 0Z" fill="#818E94"/>
</svg>
