<svg width="15" height="8" viewBox="0 0 15 8" fill="none" xmlns="http://www.w3.org/2000/svg">
<rect width="7" height="2" rx="1" fill="#B8C5CB"/>
<path d="M11.0001 0C11.5524 2.41411e-08 12.0001 0.447715 12.0001 1V7C12.0001 7.55228 11.5524 8 11.0001 8C10.4478 8 10.0001 7.55228 10.0001 7L10.0001 1C10.0001 0.447715 10.4478 -2.41411e-08 11.0001 0Z" fill="#B8C5CB"/>
<path d="M10.293 0.293044C10.6835 -0.09748 11.3167 -0.09748 11.7072 0.293044L13.8285 2.41436C14.2191 2.80489 14.2191 3.43805 13.8285 3.82858C13.438 4.2191 12.8049 4.2191 12.4143 3.82858L10.293 1.70726C9.90249 1.31673 9.90249 0.683568 10.293 0.293044Z" fill="#B8C5CB"/>
<path d="M11.7072 0.293044C12.0978 0.683568 12.0979 1.31658 11.7073 1.70711L9.58601 3.82843C9.19549 4.21895 8.56232 4.21895 8.1718 3.82843C7.78128 3.4379 7.78128 2.80474 8.1718 2.41421L10.293 0.293044C10.6835 -0.09748 11.3167 -0.09748 11.7072 0.293044Z" fill="#B8C5CB"/>
<rect y="3" width="5" height="2" rx="1" fill="#B8C5CB"/>
<rect y="6" width="3" height="2" rx="1" fill="#B8C5CB"/>
</svg>
