<svg width="24" height="24" viewBox="0 0 24 24" fill="none" xmlns="http://www.w3.org/2000/svg">
<path fill-rule="evenodd" clip-rule="evenodd" d="M23.9244 10.6675C23.8865 10.3302 23.4931 10.0767 23.153 10.0767C22.0533 10.0767 21.0774 9.43094 20.6682 8.43233C20.2501 7.40952 20.5197 6.21668 21.3393 5.46489C21.5972 5.22906 21.6286 4.83427 21.4122 4.56004C20.8494 3.8453 20.2096 3.19968 19.5112 2.64015C19.2376 2.42065 18.8363 2.45119 18.5992 2.71382C17.8839 3.50597 16.5991 3.80039 15.6063 3.38614C14.5731 2.95153 13.9216 1.90461 13.9854 0.780798C14.0063 0.427806 13.7484 0.120891 13.3964 0.0799036C12.5001 -0.0237706 11.5958 -0.0269853 10.6968 0.0727598C10.3489 0.111158 10.0909 0.410839 10.1026 0.759367C10.1417 1.8721 9.48236 2.90072 8.45946 3.3197C7.47853 3.72038 6.20273 3.42846 5.48889 2.64336C5.25297 2.38476 4.85818 2.35297 4.58333 2.56719C3.86413 3.13146 3.21002 3.77762 2.642 4.48646C2.42046 4.76203 2.45305 5.16146 2.71362 5.39854C3.54882 6.15489 3.8185 7.35808 3.3846 8.39268C2.97035 9.37906 1.94611 10.0148 0.773545 10.0148C0.393049 10.0025 0.122032 10.2579 0.0804191 10.6039C-0.0251304 11.5054 -0.0263805 12.424 0.0752398 13.3329C0.112923 13.6717 0.518244 13.923 0.862128 13.923C1.90709 13.8963 2.91034 14.5432 3.3312 15.5674C3.75072 16.5902 3.48104 17.7823 2.66022 18.5347C2.40349 18.7705 2.3709 19.1647 2.58726 19.4389C3.14484 20.1491 3.78465 20.7954 4.48564 21.3595C4.76058 21.5811 5.16063 21.5498 5.39897 21.2872C6.11692 20.4931 7.40164 20.1992 8.39052 20.6143C9.42628 21.0475 10.0778 22.0944 10.014 23.2188C9.99323 23.572 10.2525 23.8794 10.603 23.9198C11.0615 23.9733 11.5228 24 11.9854 24C12.4244 24 12.8636 23.9759 13.3027 23.927C13.6507 23.8886 13.9085 23.5889 13.8968 23.2398C13.8565 22.1277 14.517 21.0991 15.5386 20.6808C16.5261 20.2774 17.7966 20.5727 18.5105 21.357C18.7478 21.615 19.1398 21.6462 19.4162 21.4327C20.134 20.8698 20.7868 20.2241 21.3575 19.5133C21.5789 19.2384 21.5477 18.8383 21.2858 18.6013C20.4506 17.845 20.1796 16.6416 20.6135 15.6077C21.0214 14.6345 22.0076 13.981 23.0683 13.981L23.2167 13.9848C23.5608 14.0128 23.8774 13.7478 23.9191 13.3965C24.0248 12.4942 24.026 11.5764 23.9244 10.6675ZM12.0188 16.0281C9.8116 16.0281 8.01618 14.2326 8.01618 12.0254C8.01618 9.81823 9.8116 8.02272 12.0188 8.02272C14.226 8.02272 16.0214 9.81823 16.0214 12.0254C16.0214 14.2326 14.226 16.0281 12.0188 16.0281Z" fill="#2E2F31"/>
</svg>
