<svg width="19" height="19" viewBox="0 0 19 19" fill="none" xmlns="http://www.w3.org/2000/svg">
<path fill-rule="evenodd" clip-rule="evenodd" d="M13.0301 9.85741C14.1797 8.67022 14.6498 7.21636 14.6818 5.65255C14.6563 4.15599 14.2646 2.82904 13.3281 1.69448C12.4788 0.666954 11.4028 0.0347625 10.0253 0.00142771C8.68226 -0.0319071 7.59439 0.520164 6.71188 1.48219C5.72194 2.56294 5.25071 3.86066 5.18899 5.29932C5.11777 6.96372 5.57357 8.46788 6.70654 9.73401C8.44427 11.675 11.2164 11.7318 13.0301 9.85741ZM2.60255 13.548C1.43291 14.4556 0.434252 15.5007 0 16.977V17.2897C0.0110303 17.3301 0.0209972 17.371 0.0309648 17.4119C0.0525401 17.5004 0.0741187 17.5889 0.106492 17.6732C0.407629 18.4533 0.985645 18.8785 1.80149 18.9881C1.88826 18.999 1.97702 18.9989 2.06549 18.9988C2.07353 18.9988 2.08158 18.9988 2.08962 18.9988C3.88483 18.999 5.68005 18.9989 7.47527 18.9988C10.6183 18.9987 13.7614 18.9985 16.9045 19C17.6363 19.0006 18.2421 18.7386 18.6474 18.1216C18.7631 17.9447 18.8319 17.7364 18.9009 17.5281C18.9324 17.4328 18.964 17.3374 19 17.245V16.9323C18.9514 16.8124 18.9072 16.6898 18.8629 16.5672C18.7663 16.2991 18.6696 16.031 18.5267 15.7907C17.5162 14.0905 16.0206 12.9638 14.2167 12.239C13.6168 11.9984 13.0122 12.0538 12.4253 12.3843C10.4907 13.4735 8.54364 13.4664 6.59483 12.4064C6.05468 12.1128 5.48199 12.0496 4.90515 12.273C4.08161 12.5922 3.30304 13.0043 2.60255 13.548Z" fill="white"/>
</svg>
