<svg width="30" height="30" viewBox="0 0 30 30" fill="none" xmlns="http://www.w3.org/2000/svg">
<path d="M15.0001 0.00100708C6.72901 0.00100708 0 6.72991 0 15.0009C0 23.2719 6.72901 30.0008 15.0001 30.0008C23.2711 30.0008 30 23.2719 30 15.0009C30 6.72991 23.2711 0.00100708 15.0001 0.00100708ZM15.0001 27.5418C8.0849 27.5418 2.459 21.9161 2.459 15.0009C2.459 8.08581 8.0849 2.46001 15.0001 2.46001C21.9152 2.46001 27.541 8.08581 27.541 15.0009C27.541 21.9161 21.9152 27.5418 15.0001 27.5418Z" fill="white"/>
<path d="M21.489 9.2429L12.5829 18.1491L8.51099 14.0772C8.0308 13.5971 7.25237 13.5971 6.77218 14.0772C6.29209 14.5574 6.29209 15.3358 6.77218 15.816L11.7135 20.7573C11.9536 20.9973 12.2682 21.1174 12.5829 21.1174C12.8976 21.1174 13.2122 20.9973 13.4523 20.7573L23.2278 10.9818C23.7079 10.5016 23.7079 9.72319 23.2278 9.243C22.7476 8.76281 21.9691 8.76281 21.489 9.2429Z" fill="white"/>
</svg>
