<svg width="26" height="24" viewBox="0 0 26 24" fill="none" xmlns="http://www.w3.org/2000/svg">
<path fill-rule="evenodd" clip-rule="evenodd" d="M1.439 13.1687C0.562 13.1807 0.317 13.3477 0 14.1747V14.6237C0.218 15.3727 0.734 15.6327 1.47 15.5817C1.81545 15.5572 2.16233 15.5502 2.50936 15.5432H2.50942C2.74301 15.5385 2.97667 15.5337 3.21 15.5237C5.507 15.4247 7.771 15.0937 9.996 14.5047C14.009 13.4437 17.608 11.5897 20.676 8.72569C20.9278 8.49077 21.1737 8.24889 21.4228 8.00389L21.4228 8.00388L21.4228 8.00386C21.5268 7.90159 21.6313 7.79877 21.737 7.69569C21.7641 7.72177 21.7899 7.7462 21.8147 7.76966L21.8152 7.77009L21.8154 7.77027L21.8154 7.77029L21.8156 7.77046C21.8627 7.81508 21.9062 7.85625 21.948 7.89869C22.1974 8.15127 22.4466 8.40434 22.6959 8.65743L22.6965 8.65802L22.6982 8.65974L22.6991 8.66067L22.6995 8.66111C23.0747 9.04207 23.45 9.4231 23.826 9.80269C24.119 10.0987 24.468 10.2367 24.881 10.1537C25.523 10.0257 25.874 9.57369 25.875 8.87069C25.876 7.98346 25.876 7.09622 25.876 6.20895C25.8759 4.5331 25.8758 2.85711 25.883 1.18069C25.886 0.420691 25.556 0.0116905 24.803 0.00769054C22.213 -0.00330946 19.623 -0.00430946 17.033 0.0166905C16.77 0.0186905 16.463 0.138691 16.256 0.305691C15.711 0.745691 15.703 1.55169 16.204 2.06569C16.732 2.60662 17.2641 3.14235 17.797 3.67888L17.7971 3.67899L17.7973 3.67921C18.0041 3.88747 18.2111 4.09585 18.418 4.30469C18.4071 4.31949 18.3976 4.33273 18.3889 4.34479L18.3889 4.34481L18.3889 4.34486C18.3707 4.37026 18.3563 4.39039 18.34 4.40869C16.01 7.05769 13.332 9.25669 10.202 10.8657C7.449 12.2807 4.545 13.1287 1.439 13.1687ZM25.9598 21.9654L25.9599 21.9651C25.9731 21.9134 25.9863 21.8616 26 21.81V14.119C25.9944 14.1049 25.988 14.0911 25.9816 14.0773C25.9685 14.0489 25.9554 14.0206 25.95 13.991C25.724 12.78 24.788 11.988 23.578 11.986H21.31C19.961 11.988 18.921 12.97 18.905 14.346C18.877 16.768 18.877 19.192 18.906 21.615C18.921 22.912 19.869 23.891 21.133 23.949C22.025 23.99 22.922 23.983 23.814 23.943C24.792 23.898 25.612 23.193 25.887 22.239C25.9132 22.1484 25.9365 22.0569 25.9598 21.9654L25.9598 21.9654L25.9598 21.9654ZM0 21.3046C0.0137423 21.2531 0.0267697 21.2014 0.0398003 21.1496C0.0675425 21.0394 0.0952991 20.9291 0.13 20.8216C0.444 19.8416 1.349 19.1756 2.368 19.1726C3.17 19.1706 3.972 19.1696 4.774 19.1736C6.035 19.1786 7.055 20.2046 7.099 21.5066C7.142 22.7596 6.183 23.8746 4.944 23.9416C4.043 23.9896 3.136 23.9876 2.235 23.9476C1.12 23.8986 0.272 23.1046 0.053 21.9896C0.0468931 21.9604 0.032959 21.9331 0.0190081 21.9057C0.012399 21.8927 0.00578617 21.8798 0 21.8666V21.3046ZM12.4473 23.9792C12.6295 23.9839 12.8118 23.9886 12.9927 23.9999C12.9927 23.9819 12.9937 23.9659 12.9947 23.9479C13.1428 23.9479 13.2912 23.9508 13.4395 23.9537C13.7618 23.9599 14.0842 23.9662 14.4047 23.9429C15.5937 23.8589 16.5337 22.8169 16.5387 21.6009C16.5427 20.7779 16.5427 19.9549 16.5387 19.1309C16.5337 17.9949 15.6977 16.9369 14.5897 16.8299C13.5937 16.7339 12.5777 16.7139 11.5827 16.7979C10.2847 16.9079 9.4617 17.9349 9.4607 19.2609C9.4607 19.5165 9.46059 19.7723 9.46048 20.028C9.46026 20.5397 9.46003 21.0515 9.4607 21.5629C9.4637 22.6839 10.1797 23.6539 11.2617 23.8789C11.6478 23.9586 12.0475 23.9689 12.4473 23.9792Z" fill="#818E94"/>
</svg>
