<svg width="14" height="16" viewBox="0 0 14 16" fill="none" xmlns="http://www.w3.org/2000/svg">
<path d="M13.7083 1.93437H10.2083C10.1762 1.60263 9.52525 0.701156 9.14083 0.342086C8.89758 0.115179 8.589 0 8.22383 0H5.30746C4.94229 0 4.63371 0.115179 4.39046 0.342086C4.00604 0.701156 3.3639 1.60263 3.33181 1.93437H0.291667C0.130667 1.93437 0 2.053 0 2.19976C0 2.34652 0.130667 2.46515 0.291667 2.46515H0.886958L1.4455 14.6786C1.45629 15.1356 1.76896 16 2.877 16H11.123C12.231 16 12.5437 15.1356 12.5542 14.6842L13.113 2.46515H13.7083C13.8693 2.46515 14 2.34652 14 2.19976C14 2.053 13.8693 1.93437 13.7083 1.93437ZM4.375 13.6115C4.375 13.7582 4.24433 13.8768 4.08333 13.8768C3.92233 13.8768 3.79167 13.7582 3.79167 13.6115V4.85364C3.79167 4.70688 3.92233 4.58825 4.08333 4.58825C4.24433 4.58825 4.375 4.70688 4.375 4.85364V13.6115ZM7.29167 13.6115C7.29167 13.7582 7.161 13.8768 7 13.8768C6.839 13.8768 6.70833 13.7582 6.70833 13.6115V4.85364C6.70833 4.70688 6.839 4.58825 7 4.58825C7.161 4.58825 7.29167 4.70688 7.29167 4.85364V13.6115ZM10.2083 13.6115C10.2083 13.7582 10.0777 13.8768 9.91667 13.8768C9.75567 13.8768 9.625 13.7582 9.625 13.6115V4.85364C9.625 4.70688 9.75567 4.58825 9.91667 4.58825C10.0777 4.58825 10.2083 4.70688 10.2083 4.85364V13.6115ZM5 1.32066C5.13067 1.19911 5.184 1.05354 5.38846 1.05354H8.05061C8.25506 1.05354 8.36933 1.19911 8.5 1.32066C8.73479 1.53907 8.99354 1.65624 9.02621 1.93437H4.39046C4.5 1.80997 4.7655 1.53907 5 1.32066Z" fill="#979797"/>
</svg>
