<svg width="24" height="24" viewBox="0 0 24 24" fill="none" xmlns="http://www.w3.org/2000/svg">
<path d="M10.8528 11.9198L0.22982 22.5428C-0.0653047 22.8379 -0.0653047 23.316 0.22982 23.6111C0.377195 23.7589 0.570695 23.8324 0.76382 23.8324C0.95732 23.8324 1.15045 23.7589 1.29782 23.6111L12.0007 12.9083L22.7036 23.6111C22.8513 23.7589 23.0444 23.8324 23.2376 23.8324C23.4307 23.8324 23.6242 23.7589 23.7716 23.6111C24.0667 23.316 24.0667 22.8379 23.7716 22.5428L13.1489 11.9198L23.7787 1.28925C24.0738 0.994129 24.0738 0.516004 23.7787 0.220879C23.4836 -0.0738706 23.0054 -0.0738706 22.7107 0.220879L12.0011 10.9313L1.29032 0.221254C0.995195 -0.0734956 0.517445 -0.0734956 0.22232 0.221254C-0.0728047 0.516379 -0.0728047 0.994504 0.22232 1.28963L10.8528 11.9198Z" fill="#979B9D"/>
</svg>
