<svg width="26" height="20" viewBox="0 0 26 20" fill="none" xmlns="http://www.w3.org/2000/svg">
<path fill-rule="evenodd" clip-rule="evenodd" d="M13.01 12.885C13.715 12.876 14.36 12.661 14.942 12.261C16.89 10.927 18.834 9.585 20.779 8.246C21.636 7.657 22.495 7.071 23.348 6.475C23.766 6.183 23.888 5.749 23.806 5.262C23.735 4.843 23.454 4.6 23.059 4.505C22.697 4.416 22.38 4.546 22.08 4.752C19.321 6.653 16.561 8.552 13.801 10.451C13.266 10.819 12.84 10.818 12.3 10.447C9.561 8.561 6.823 6.676 4.082 4.793C3.942 4.697 3.795 4.603 3.638 4.546C3.119 4.354 2.55 4.553 2.333 4.986C2.053 5.545 2.192 6.162 2.688 6.503C5.489 8.433 8.29 10.364 11.096 12.287C11.671 12.68 12.313 12.882 13.01 12.885ZM26 3.958V16.041C25.985 16.08 25.963 16.118 25.957 16.158C25.684 17.991 24.434 19.418 22.702 19.868C22.516 19.917 22.328 19.956 22.141 20H3.86C3.813 19.984 3.767 19.96 3.72 19.952C2.004 19.698 0.592 18.411 0.149 16.693C0.093 16.477 0.049 16.259 0 16.041V3.958C0.015 3.91 0.039 3.864 0.046 3.814C0.294 2.053 1.549 0.605 3.224 0.152C3.434 0.095 3.648 0.05 3.86 0H22.141C22.187 0.016 22.233 0.039 22.281 0.047C23.997 0.302 25.408 1.588 25.851 3.307C25.907 3.522 25.951 3.741 26 3.958Z" fill="white"/>
</svg>
