<svg width="30" height="30" viewBox="0 0 30 30" fill="none" xmlns="http://www.w3.org/2000/svg">
<path d="M14.9997 20.8305C15.1494 20.8305 15.2709 20.7093 15.2709 20.5593V11.6102C15.2709 11.4602 15.1494 11.339 14.9997 11.339C14.85 11.339 14.7285 11.4602 14.7285 11.6102V20.5593C14.7285 20.7093 14.85 20.8305 14.9997 20.8305Z" fill="white"/>
<path d="M12.2878 20.8305C12.4375 20.8305 12.559 20.7093 12.559 20.5593V11.6102C12.559 11.4602 12.4375 11.339 12.2878 11.339C12.1381 11.339 12.0166 11.4602 12.0166 11.6102V20.5593C12.0166 20.7093 12.1381 20.8305 12.2878 20.8305Z" fill="white"/>
<path d="M17.7116 20.8305C17.8613 20.8305 17.9828 20.7093 17.9828 20.5593V11.6102C17.9828 11.4602 17.8613 11.339 17.7116 11.339C17.5619 11.339 17.4404 11.4602 17.4404 11.6102V20.5593C17.4404 20.7093 17.5619 20.8305 17.7116 20.8305Z" fill="white"/>
<path d="M21.237 8.62712H17.4284C17.3986 8.28814 17.2942 7.71647 16.9368 7.34956C16.7106 7.11769 16.4237 7 16.0842 7H13.3726C13.033 7 12.7461 7.11769 12.52 7.34956C12.1625 7.71647 12.0581 8.28814 12.0283 8.62712H8.7624C8.6127 8.62712 8.49121 8.74834 8.49121 8.89831C8.49121 9.04827 8.6127 9.16949 8.7624 9.16949H9.31589L9.83521 21.6498C9.84524 22.1167 10.136 23 11.1662 23H18.8332C19.8634 23 20.1541 22.1167 20.1639 21.6555L20.6835 9.16949H21.237C21.3867 9.16949 21.5082 9.04827 21.5082 8.89831C21.5082 8.74834 21.3867 8.62712 21.237 8.62712ZM12.9094 7.72705C13.0309 7.60285 13.1825 7.54237 13.3726 7.54237H16.0842C16.2743 7.54237 16.4259 7.60285 16.5473 7.72705C16.7656 7.95024 16.8532 8.34292 16.8836 8.62712H12.5734C12.6038 8.34292 12.6913 7.95024 12.9094 7.72705ZM19.6218 21.6384C19.6202 21.7222 19.5827 22.4576 18.8332 22.4576H11.1662C10.4248 22.4576 10.3803 21.7208 10.3773 21.6327L9.85853 9.16949H20.1406L19.6218 21.6384Z" fill="white"/>
<circle cx="15" cy="15" r="14.5" stroke="white"/>
</svg>
