<svg width="22" height="24" viewBox="0 0 22 24" fill="none" xmlns="http://www.w3.org/2000/svg">
<path fill-rule="evenodd" clip-rule="evenodd" d="M9.91696 15.269C8.80896 15.269 7.70096 15.265 6.59196 15.27C6.02996 15.272 5.62996 15.586 5.52896 16.086C5.36896 16.879 5.83296 17.446 6.65896 17.449C8.30796 17.455 9.95796 17.451 11.607 17.451C12.131 17.451 12.656 17.457 13.18 17.449C13.743 17.44 14.119 17.17 14.251 16.702C14.473 15.914 13.99 15.272 13.165 15.269C12.082 15.266 11 15.269 9.91696 15.269ZM11 13.085H11.669C12.94 13.084 14.212 13.092 15.482 13.078C16.065 13.072 16.439 12.687 16.497 12.094C16.55 11.548 16.236 11.076 15.723 10.952C15.583 10.918 15.433 10.916 15.288 10.916C12.437 10.915 9.58496 10.915 6.73396 10.915C6.62296 10.915 6.50996 10.916 6.39996 10.928C5.99096 10.975 5.65996 11.254 5.54696 11.642C5.31896 12.427 5.79596 13.079 6.61996 13.082C8.07996 13.089 9.53996 13.084 11 13.085ZM4.14096 0H13.372C14.147 0.288 14.3 0.508 14.3 1.342C14.3 2.516 14.295 3.69 14.303 4.864C14.305 5.1 14.326 5.342 14.381 5.571C14.682 6.821 15.749 7.636 17.094 7.645C18.356 7.653 19.619 7.642 20.882 7.649C21.576 7.652 21.991 8.043 21.992 8.716C21.997 12.4 22.01 16.083 21.984 19.766C21.971 21.698 20.558 23.391 18.662 23.848C18.397 23.913 18.126 23.951 17.857 24H4.14096C3.90596 23.959 3.66796 23.928 3.43596 23.874C1.39996 23.405 0.0129592 21.682 0.00495918 19.59C-0.00404082 17.235 0.00195918 14.879 0.00195918 12.524C0.00195918 9.819 -0.00404082 7.115 0.00495918 4.41C0.0119592 2.326 1.38396 0.611 3.40996 0.132C3.65096 0.076 3.89696 0.043 4.14096 0Z" fill="#818E94"/>
</svg>
