<svg width="24" height="21" viewBox="0 0 24 21" fill="none" xmlns="http://www.w3.org/2000/svg">
<path fill-rule="evenodd" clip-rule="evenodd" d="M7.30725 5.72922C6.80581 5.74551 6.05837 5.17293 6.09266 4.55921C6.08837 4.0132 6.65838 3.44491 7.21382 3.43633C8.01783 3.42519 8.51069 4.04063 8.51241 4.55321C8.51498 5.11979 7.89611 5.71208 7.30725 5.72922ZM7.3081 18.308V18.2994C7.03749 18.2994 6.76694 18.2995 6.49641 18.2995C5.68553 18.2997 4.87489 18.2998 4.06377 18.2985C3.96735 18.2985 3.87093 18.2938 3.77439 18.2891C3.68727 18.2848 3.60004 18.2805 3.51262 18.2797C3.05661 18.2754 2.54661 17.7963 2.46089 17.3651C2.36832 16.904 2.57661 16.4617 3.02661 16.1942C3.21776 16.0811 3.42005 16.0117 3.65319 16.0117C4.9571 16.0136 6.26074 16.0141 7.56426 16.0147C8.60694 16.0152 9.64955 16.0157 10.6922 16.0168C10.8456 16.0168 11.0007 16.0228 11.1516 16.0425C11.9779 16.1505 12.4339 17.0874 11.9727 17.7371C11.7387 18.0654 11.4276 18.2865 10.9767 18.2865C10.6843 18.2871 10.3915 18.2924 10.0987 18.2977C9.89709 18.3014 9.69547 18.305 9.49385 18.3071C9.23885 18.3095 8.98386 18.309 8.72886 18.3084C8.61957 18.3082 8.51027 18.308 8.40098 18.308H7.3081ZM7.38782 0H7.20353C7.17248 0.00369629 7.14159 0.00787076 7.11073 0.0120423C7.07001 0.0175443 7.02934 0.0230412 6.98839 0.027429C6.71752 0.0557151 6.50324 0.184288 6.34038 0.381434C6.28837 0.444438 6.23601 0.507279 6.18363 0.570148C5.96663 0.830589 5.74925 1.09149 5.55522 1.36631C4.84444 2.37366 4.13613 3.38225 3.42786 4.39077C2.46374 5.76359 1.49972 7.13628 0.529722 8.50555C0.177431 9.00527 0.0368577 9.54271 0.0240003 10.1256C0.0223289 10.2164 0.0159495 10.3072 0.00957014 10.398C0.00613509 10.4469 0.00270004 10.4958 0 10.5447V14.5639C0.00143994 14.5832 0.00326692 14.6025 0.00509083 14.6218C0.0086955 14.6598 0.0122882 14.6978 0.0128573 14.7354C0.0162378 14.9975 0.0217482 15.2596 0.0272586 15.5217C0.0399122 16.1236 0.0525658 16.7255 0.0394291 17.3274C0.00942871 18.7143 1.12287 19.9066 2.26718 20.3351C2.64775 20.4774 3.03861 20.5417 3.44405 20.5443C3.88463 20.5486 4.3252 20.5537 4.76664 20.5597C4.79769 20.5603 4.82916 20.5638 4.86075 20.5674C4.87451 20.5689 4.88829 20.5704 4.90207 20.5717H9.71242C9.79246 20.5697 9.87249 20.5673 9.95246 20.565C10.0712 20.5615 10.1898 20.558 10.3081 20.5554C10.3454 20.5547 10.3827 20.5539 10.42 20.5531C10.7126 20.5469 11.0046 20.5408 11.2973 20.54C11.9282 20.5383 12.4819 20.324 12.9902 19.9966C13.7659 19.496 14.2896 18.8197 14.5014 17.954C14.5639 17.6978 14.5648 17.425 14.5656 17.1602L14.5656 17.1491C14.5699 14.9008 14.5699 12.6542 14.5656 10.4076C14.5648 10.1161 14.5399 9.82557 14.5134 9.53499C14.4765 9.13127 14.3119 8.76527 14.0779 8.43269L13.9302 8.22172C12.8934 6.74047 11.8559 5.25826 10.8036 3.78777C10.0815 2.77749 9.33773 1.78067 8.59463 0.784738C8.54207 0.714301 8.48952 0.643869 8.43698 0.573437C8.33659 0.438546 8.19746 0.328052 8.06094 0.219632C8.04825 0.209553 8.03558 0.199492 8.02297 0.189431C7.87554 0.0728582 7.69125 0.0300004 7.50011 0.0188574C7.47601 0.0172146 7.45227 0.0124233 7.42843 0.00761242C7.41495 0.0048928 7.40144 0.00216691 7.38782 0ZM23.9541 13.9335C23.9689 13.8627 23.9836 13.792 24 13.7218V13.0952C23.998 13.0851 23.9956 13.0749 23.9933 13.0646C23.9877 13.0401 23.9821 13.0154 23.9803 12.9906C23.9357 12.5672 23.8217 12.1652 23.5971 11.7915C23.3148 11.3229 23.032 10.8547 22.7492 10.3864C21.8094 8.83018 20.8696 7.27394 19.9465 5.70908C19.5479 5.0345 19.0199 4.51764 18.2802 4.18849C18.2665 4.18206 18.2532 4.17499 18.2399 4.16792C18.2266 4.16085 18.2133 4.15377 18.1996 4.14735C16.8261 3.49428 15.4525 2.84198 14.079 2.18968C13.3919 1.86339 12.7049 1.53711 12.0178 1.21073C12.0093 1.20645 11.9993 1.2045 11.9854 1.20177C11.977 1.20012 11.9671 1.1982 11.9553 1.1953C11.9711 1.21806 11.9846 1.23734 11.997 1.2549C12.0106 1.27437 12.0228 1.29172 12.035 1.3093C12.1895 1.5271 12.3449 1.74455 12.5004 1.96209C12.8339 2.42862 13.1677 2.89558 13.4938 3.36733C14.5336 4.86993 15.5707 6.37423 16.5976 7.88368C16.8736 8.2874 17.0922 8.72627 17.171 9.20456C17.2328 9.58428 17.2645 9.97 17.2756 10.354C17.2985 11.0843 17.3119 11.8146 17.3253 12.5446C17.3301 12.8008 17.3348 13.0569 17.3399 13.3129C17.3404 13.3368 17.3403 13.3608 17.3401 13.3902C17.34 13.4071 17.3399 13.4259 17.3399 13.4475C17.3603 13.4359 17.3804 13.4246 17.4001 13.4135C17.5281 13.3413 17.6411 13.2775 17.7548 13.2143C18.4559 12.8303 19.1579 12.4463 19.8599 12.0623C20.0099 11.9809 20.1754 11.9517 20.3459 11.9595C20.7111 11.9766 21.0025 12.1343 21.2528 12.3752C21.486 12.5998 21.5785 12.8612 21.5708 13.1766C21.5614 13.5555 21.4045 13.8435 21.0865 14.0603C20.9245 14.1692 20.7582 14.2729 20.5877 14.3698C19.5325 14.9706 18.4774 15.5689 17.4196 16.1672C17.3545 16.2041 17.3236 16.2427 17.3228 16.3189C17.3214 16.4837 17.3134 16.6479 17.3055 16.8119C17.3035 16.8528 17.3015 16.8936 17.2996 16.9344C17.2653 17.6784 17.1548 18.4095 16.8436 19.103C16.8377 19.1181 16.8338 19.134 16.8291 19.1528C16.8264 19.1639 16.8234 19.176 16.8196 19.1896C16.8366 19.1807 16.85 19.1739 16.8615 19.168C16.8744 19.1614 16.885 19.156 16.8959 19.1501C17.1391 19.0177 17.3826 18.8855 17.6262 18.7532C18.2247 18.4281 18.8238 18.1028 19.4202 17.7744C19.6038 17.6733 19.7875 17.5723 19.9712 17.4713C20.7858 17.0235 21.6006 16.5755 22.4091 16.1167C23.1111 15.7181 23.5851 15.1352 23.8363 14.4023C23.8884 14.2496 23.9213 14.0915 23.9541 13.9335Z" fill="#818E94"/>
</svg>
