<svg width="23" height="20" viewBox="0 0 23 20" fill="none" xmlns="http://www.w3.org/2000/svg">
<path fill-rule="evenodd" clip-rule="evenodd" d="M0.925244 4.87398e-05C0.485275 -0.00295126 0.173169 0.132049 0 0.541049V8.03705C0.173169 8.44505 0.485275 8.58105 0.925244 8.57805C2.61558 8.56842 4.3048 8.56976 5.99456 8.57111H5.99476H5.99496H5.99515H5.99535C6.58696 8.57158 7.17863 8.57205 7.77044 8.57205C8.35438 8.57205 8.6242 8.30705 8.6242 7.73205V0.845049C8.6242 0.271049 8.35538 0.00604874 7.77044 0.00604874C7.17864 0.00604874 6.58697 0.00651935 5.99537 0.00698991C4.30535 0.00833417 2.61585 0.009678 0.925244 4.87398e-05ZM22.1426 17.1386C20.5197 17.1376 18.8957 17.1376 17.2728 17.1376C15.6126 17.1376 13.9513 17.1376 12.2901 17.1386C11.7857 17.1386 11.5018 17.4247 11.4998 17.9286L11.4993 18.1161V18.1165V18.1166V18.1167V18.1169C11.4983 18.4924 11.4974 18.8684 11.5008 19.2436C11.5038 19.6906 11.7988 19.9916 12.2428 19.9916C15.5783 19.9937 18.9158 19.9937 22.2524 19.9916C22.6974 19.9916 22.9944 19.6926 22.9984 19.2466C22.9997 18.9693 22.9993 18.692 22.9988 18.4146C22.9986 18.276 22.9984 18.1373 22.9984 17.9986C22.9984 17.4016 22.7376 17.1386 22.1426 17.1386ZM0 11.9628C0.174175 11.5548 0.484268 11.4188 0.925244 11.4208C2.59872 11.4311 4.27112 11.4296 5.94402 11.428H5.94422H5.94442H5.94462C6.55314 11.4274 7.16171 11.4268 7.77044 11.4268C8.35438 11.4268 8.6242 11.6918 8.6242 12.2668V19.1768C8.6242 19.7208 8.34632 19.9928 7.79259 19.9928C7.12813 19.9931 6.4635 19.9927 5.79881 19.9922C4.17423 19.9911 2.54923 19.9899 0.925244 19.9998C0.485275 20.0018 0.173169 19.8668 0 19.4578V11.9628ZM12.3261 2.86135H17.2423L18.4875 2.86147C19.733 2.86166 20.9787 2.86185 22.2239 2.86035C22.7011 2.86035 22.9951 2.56935 22.9981 2.09835C23.0011 1.66035 23.0001 1.22135 22.9981 0.783349C22.9961 0.296349 22.7071 0.00734874 22.2158 0.00734874C18.9014 0.00634874 15.5871 0.00634874 12.2727 0.00734874C11.7965 0.00734874 11.5025 0.298349 11.4995 0.768349C11.4975 1.19235 11.4985 1.61635 11.4995 2.04035C11.5005 2.58835 11.7744 2.86135 12.3261 2.86135ZM17.255 5.71675H22.1702C22.7229 5.71675 22.9978 5.98975 22.9978 6.53675L22.9984 6.74906V6.74945C22.9993 7.10229 23.0003 7.45467 22.9978 7.80775C22.9948 8.27975 22.7018 8.57075 22.2256 8.57075C18.9122 8.57275 15.5979 8.57275 12.2835 8.57175C11.7922 8.57075 11.5022 8.28275 11.4992 7.79675C11.4972 7.35875 11.4972 6.91975 11.5002 6.48175C11.5022 6.00975 11.7962 5.71775 12.2724 5.71775C13.5175 5.71625 14.7632 5.71644 16.0091 5.71662H16.0091L17.255 5.71675ZM22.1422 11.4267H17.2502C15.6041 11.4267 13.958 11.4267 12.3129 11.4277C11.7793 11.4277 11.5004 11.7077 11.4994 12.2407C11.4993 12.3023 11.4991 12.3639 11.4989 12.4255C11.4979 12.7949 11.497 13.1643 11.5004 13.5337C11.5044 13.9797 11.7984 14.2807 12.2424 14.2807C15.5799 14.2827 18.9154 14.2827 22.253 14.2807C22.698 14.2807 22.994 13.9817 22.998 13.5357C23.0005 13.1841 22.9995 12.8312 22.9986 12.4779C22.9984 12.4072 22.9982 12.3365 22.998 12.2657C22.998 11.6917 22.7272 11.4277 22.1422 11.4267Z" fill="#818E94"/>
</svg>
