<svg width="15" height="8" viewBox="0 0 15 8" fill="none" xmlns="http://www.w3.org/2000/svg">
<rect y="6" width="7" height="2" rx="1" fill="#B8C5CB"/>
<path d="M10.9497 8C10.3974 8 9.94967 7.55228 9.94967 7L9.94967 1C9.94967 0.447715 10.3974 -7.24234e-08 10.9497 0C11.502 7.24234e-08 11.9497 0.447715 11.9497 1L11.9497 7C11.9497 7.55228 11.502 8 10.9497 8Z" fill="#B8C5CB"/>
<path d="M11.6566 7.70673C11.266 8.09725 10.6329 8.09725 10.2423 7.70673L8.12102 5.58541C7.73049 5.19488 7.73049 4.56172 8.12102 4.1712C8.51154 3.78067 9.14471 3.78067 9.53523 4.1712L11.6566 6.29252C12.0471 6.68304 12.0471 7.31621 11.6566 7.70673Z" fill="#B8C5CB"/>
<path d="M10.2423 7.70673C9.85181 7.31621 9.85166 6.68334 10.2422 6.29282L12.3635 4.1715C12.754 3.78097 13.3872 3.78097 13.7777 4.1715C14.1682 4.56202 14.1682 5.19519 13.7777 5.58571L11.6566 7.70673C11.266 8.09725 10.6329 8.09725 10.2423 7.70673Z" fill="#B8C5CB"/>
<rect y="3" width="5" height="2" rx="1" fill="#B8C5CB"/>
<rect width="3" height="2" rx="1" fill="#B8C5CB"/>
</svg>
