<svg width="0" height="0" class="hidden"> 
  <symbol viewBox="0 0 24 24" xmlns="http://www.w3.org/2000/svg" id="menu-info">
    <path fill-rule="evenodd" clip-rule="evenodd" d="M14.916 6.345c.003-.919-.834-1.731-1.799-1.747-1.026-.016-1.914.798-1.907 1.748.007.92.837 1.698 1.828 1.714 1.003.018 1.875-.779 1.878-1.715zm-6.466 4.81c.152-.041.27-.07.386-.104 1.453-.41 1.977.063 1.633 1.534-.31 1.327-.73 2.63-1.021 3.962-.393 1.796.666 2.974 2.496 2.784.66-.069 1.298-.326 1.949-.48.543-.129.788-.456.75-1.02-.356.066-.697.166-1.043.188-.874.055-1.214-.315-1.112-1.184.032-.281.096-.56.17-.834.31-1.163.676-2.314.936-3.49.424-1.907-.47-2.991-2.414-2.89-.672.036-1.327.341-1.998.49-.547.12-.76.449-.732 1.044zM11.093 0h1.814c.119.03.236.07.357.086 4.978.673 8.338 3.386 10.08 8.075.333.899.443 1.882.656 2.825v2.027c-.03.08-.073.16-.085.242-.724 5.202-3.598 8.614-8.574 10.242-.783.256-1.621.34-2.434.503h-1.814c-.277-.041-.558-.073-.834-.125-4.893-.912-8.174-3.695-9.732-8.44-.256-.78-.355-1.613-.527-2.422v-2.027c.03-.08.073-.159.086-.242C.808 5.542 3.682 2.128 8.66.5c.783-.254 1.621-.337 2.433-.5z"
   ></path>
  </symbol>
  <symbol viewBox="0 0 22 24" xmlns="http://www.w3.org/2000/svg" id="menu-notification">
    <path fill-rule="evenodd" clip-rule="evenodd" d="M11.26 0h-.518c-.169.027-.339.05-.51.073-.374.051-.749.102-1.115.189-2.989.703-5.383 3.373-5.702 6.395a18.435 18.435 0 0 0-.073 1.678c-.005.36-.01.72-.029 1.08-.14 2.746-1.068 5.203-2.794 7.361l-.12.148a5.695 5.695 0 0 0-.186.231c-.215.286-.279.59-.139.936.384.951 1.201 1.519 2.231 1.519 5.834.002 11.668.003 17.502 0 1.102-.001 1.892-.616 2.156-1.658.097-.387-.004-.72-.256-1.022a12.555 12.555 0 0 1-2.57-5.098 12.896 12.896 0 0 1-.374-3.371c.024-1.224-.107-2.42-.593-3.553C17.054 2.309 15.14.657 12.304.127c-.236-.044-.477-.068-.717-.092A18.97 18.97 0 0 1 11.259 0zm-.618 23.963l.204.037h.413l.07-.016c.051-.012.103-.024.155-.032 1.019-.15 1.816-.641 2.372-1.508.239-.373.3-.764.08-1.162-.224-.403-.591-.573-1.05-.571-.377.002-.754.001-1.131.001H11c-.182 0-.364 0-.546-.002a46.15 46.15 0 0 0-1.441.009c-.455.011-.775.261-.968.659-.183.378-.138.744.113 1.084.522.705 1.202 1.187 2.057 1.414.14.037.283.062.426.087z"
      ></path>
  </symbol>
  <symbol viewBox="0 0 15 18" xmlns="http://www.w3.org/2000/svg" id="export-file">
    <path fill-rule="evenodd" clip-rule="evenodd" d="M8.314 4.136V2.43l1.705 1.706H8.314zM9.94 5.532h1.136v1.144c0 .771-.001 1.542.002 2.312a.683.683 0 0 0 .68.696c.377.003.677-.291.694-.683.002-.051.002-.103.002-.154v-.063l-.001-1.013c-.001-.945-.002-1.89.004-2.836.002-.275-.096-.476-.287-.667A1194.845 1194.845 0 0 1 8.438.533L8.15.244A.769.769 0 0 0 7.575 0C6.753.002 5.93.002 5.108.001c-.987 0-1.974 0-2.962.003C.99.007.004.988.003 2.14 0 6.257-.004 10.373.01 14.49c.001.297.081.625.221.887.418.789 1.074 1.235 2 1.232 1.168-.004 2.336-.004 3.505-.003h1.789c.067 0 .134.001.2-.01a.692.692 0 0 0 .572-.729c-.03-.369-.324-.635-.718-.636H4.478L2.15 15.23c-.579 0-.773-.19-.773-.758V2.122c0-.543.201-.742.745-.743h4.8v3.344c0 .544.262.808.808.809h2.21zm1.136 9.165v.88a1.107 1.107 0 0 1-.042.021l-.012.006-.261-.268c-.175-.178-.349-.357-.525-.533-.328-.33-.743-.353-1.034-.064-.29.29-.267.706.061 1.034l1.983 1.992c.31.312.722.313 1.033 0 .482-.48.963-.963 1.444-1.446l.48-.482c.386-.387.432-.787.125-1.096-.306-.308-.711-.264-1.095.12a95.6 95.6 0 0 0-.459.465l-.275.28-.046-.028v-1.109l-.001-2.626c0-.45-.277-.76-.676-.765-.411-.006-.698.304-.699.764-.002.713-.001 1.426-.001 2.14v.715zm-4.86-7.08H8.92c.449 0 .759.277.765.676.006.41-.306.699-.764.7-1.795.002-3.59.002-5.383 0-.461 0-.77-.288-.765-.7.005-.398.317-.676.764-.676h2.681zm.699 3.46c.003-.393-.305-.688-.728-.69-.32-.003-.639-.003-.958-.002h-.791a75.705 75.705 0 0 0-.953.001c-.41.004-.712.296-.714.683-.003.385.3.69.706.691.908.005 1.816.005 2.724 0 .411-.002.711-.297.714-.684z"></path>
  </symbol>
  <symbol viewBox="0 0 22 22" xmlns="http://www.w3.org/2000/svg" id="people">
    <path fill-rule="evenodd" clip-rule="evenodd" d="M15.088 11.414c1.33-1.375 1.875-3.058 1.912-4.869-.03-1.733-.483-3.27-1.568-4.583C14.45.772 13.203.04 11.608.002c-1.555-.039-2.814.6-3.836 1.714C6.625 2.968 6.08 4.47 6.008 6.136c-.082 1.927.446 3.669 1.757 5.135 2.013 2.247 5.223 2.313 7.323.143zM3.013 15.687C1.66 16.738.503 17.948 0 19.657v.363c.013.046.024.094.036.141.025.103.05.205.087.303.349.903 1.018 1.395 1.963 1.522.1.013.203.013.306.013h6.266L19.574 22c.847 0 1.548-.303 2.018-1.017.134-.205.213-.446.293-.687.037-.11.073-.221.115-.328v-.362a11.869 11.869 0 0 1-.159-.423c-.112-.31-.224-.62-.389-.899-1.17-1.969-2.902-3.273-4.99-4.112-.695-.28-1.395-.215-2.075.168-2.24 1.26-4.494 1.253-6.75.025-.626-.34-1.29-.413-1.957-.154-.954.37-1.855.847-2.667 1.476z"></path>
  </symbol>
  <symbol viewBox="0 0 20 22" xmlns="http://www.w3.org/2000/svg" id="price-offer">
    <path fill-rule="evenodd" clip-rule="evenodd" d="M9.014 14.001c-1.006 0-2.013-.003-3.02.001-.51.002-.874.29-.966.747-.145.726.277 1.244 1.027 1.247 1.498.006 2.997.002 4.494.002.476 0 .953.005 1.43-.002.51-.008.852-.255.972-.683.202-.721-.237-1.309-.987-1.312-.983-.002-1.966 0-2.95 0zm.99-2.002h.607c1.154-.001 2.309.006 3.462-.007.53-.005.87-.36.922-.906.048-.503-.237-.938-.703-1.052a1.665 1.665 0 0 0-.395-.033L6.13 10c-.101 0-.204 0-.304.012a.91.91 0 0 0-.774.658c-.207.723.226 1.323.974 1.326 1.326.006 2.651.002 3.977.003zM3.763 0h8.392c.705.264.844.466.844 1.23 0 1.076-.004 2.152.003 3.229.002.216.02.438.07.648.274 1.146 1.245 1.893 2.467 1.9 1.148.008 2.296-.002 3.444.005.63.002 1.008.36 1.009.978.005 3.377.016 6.753-.007 10.129-.012 1.77-1.297 3.323-3.02 3.742-.241.06-.488.094-.732.139H3.764c-.213-.038-.43-.066-.64-.116-1.851-.43-3.112-2.009-3.12-3.927C-.003 15.8.003 13.64.003 11.48c0-2.48-.006-4.958.003-7.438C.01 2.133 1.258.56 3.1.122 3.32.07 3.543.039 3.765 0z"
    ></path>
  </symbol>
  <symbol viewBox="0 0 22 22" xmlns="http://www.w3.org/2000/svg" id="add-icon">
    <path fill-rule="evenodd" clip-rule="evenodd" d="M13.91 8.089v-.42c0-1.281.007-2.563-.002-3.846-.008-1.145-.493-2.042-1.492-2.614-1.93-1.108-4.283.292-4.322 2.574-.022 1.305-.004 2.61-.005 3.914v.392h-.41c-1.283 0-2.565-.005-3.847.002-1.06.005-1.924.421-2.509 1.314-.615.939-.674 1.944-.15 2.937.545 1.032 1.442 1.547 2.603 1.563 1.304.019 2.61.004 3.913.005h.4v4.249c0 .716.198 1.365.654 1.924a2.892 2.892 0 0 0 3.19.927c1.18-.401 1.96-1.482 1.974-2.777.013-1.316.003-2.632.004-3.948 0-.119.01-.238.016-.375h.446c1.282-.001 2.564.011 3.846-.004 1.675-.018 2.952-1.3 2.941-2.929-.01-1.612-1.293-2.868-2.952-2.886-.692-.008-1.384-.002-2.076-.002H13.91z"></path>
  </symbol>
  <symbol viewBox="0 0 296 252" fill="none" xmlns="http://www.w3.org/2000/svg" id="cloud">
    <g clip-path="url(#clip0)">
      <path d="M40.877 69.663v-.055c0-23.855 18.574-43.195 41.486-43.195a40.041 40.041 0 0 1 20.482 5.626c10.644-11.49 28.659-19.041 49.097-19.041 31.09 0 56.583 17.483 59.017 39.707a43.261 43.261 0 0 1 47.483 7.24 43.203 43.203 0 0 1 11.497 46.611c6.985 7.956 11.14 18.006 11.14 28.941 0 21.787-16.545 40.09-38.913 45.249a13.816 13.816 0 0 1-6.648 17.432 13.83 13.83 0 0 1-17.963-5.067c-8.254 6.144-19.313 9.922-31.472 9.922-14.464 0-27.376-5.317-35.854-13.644-11.474 8.452-27.001 13.644-44.097 13.644-25.57 0-47.634-11.612-57.87-28.394a31.076 31.076 0 0 1-6.091.603c-22.196 0-40.193-23.635-40.193-52.793.004-28.61 17.302-51.904 38.899-52.785z"
        ></path>
      <path d="M217.099 195.849a15.814 15.814 0 0 0 26.507-3.355 15.794 15.794 0 0 0 1.067-10.352c22.714-6.103 38.387-25.016 38.387-46.649 0-10.733-3.757-20.853-10.879-29.367a45.167 45.167 0 0 0 .95-25.305 45.193 45.193 0 0 0-12.816-21.845 45.245 45.245 0 0 0-47.783-9.115c-1.959-10.363-8.706-19.865-19.228-26.987-11.298-7.646-25.986-11.857-41.362-11.857-19.622 0-37.957 6.904-49.461 18.542a42.188 42.188 0 0 0-20.118-5.123c-23.376 0-42.498 19.285-43.428 43.379C16.956 69.953.004 93.493.004 122.427c0 30.201 18.92 54.769 42.17 54.769 1.718 0 3.432-.134 5.129-.4 11.166 17.168 34.075 28.191 58.825 28.191 16.302 0 31.828-4.63 43.924-13.063 9.155 8.323 22.181 13.063 36.031 13.063 11.408 0 22.342-3.23 31.016-9.138zm-68.043-8.084c-11.603 8.55-26.839 13.257-42.92 13.257-23.957 0-46.01-10.773-56.178-27.445l-.736-1.183-1.357.272a29.194 29.194 0 0 1-5.702.566c-21.07 0-38.21-22.783-38.21-50.813 0-13.383 3.893-26.023 10.96-35.588 6.937-9.389 16.176-14.787 26.037-15.198l1.897-.133v-1.9c0-22.727 17.725-41.214 39.509-41.214a38.25 38.25 0 0 1 19.485 5.35l1.375.816 1.103-1.172c10.662-11.527 28.487-18.41 47.642-18.41 29.625.004 54.7 16.672 57.027 37.937l.301 2.752 2.508-1.176a41.277 41.277 0 0 1 45.318 6.905 41.218 41.218 0 0 1 10.963 44.488l-.401 1.103.772.878c6.986 7.948 10.662 17.506 10.662 27.636 0 20.431-15.371 38.246-37.379 43.32l-2.243.518.846 2.139a11.84 11.84 0 0 1-5.709 14.916 11.847 11.847 0 0 1-15.38-4.326l-1.136-1.837-1.725 1.286c-8.243 6.133-18.997 9.513-30.287 9.513-13.442 0-26.005-4.777-34.468-13.077l-1.203-1.184-1.371 1.004z"
        fill="#373737"></path>
      <path d="M251.25 217.451c-4.989 0-9.034-4.042-9.034-9.028 0-4.986 4.045-9.028 9.034-9.028 4.989 0 9.033 4.042 9.033 9.028 0 4.986-4.044 9.028-9.033 9.028z" ></path>
      <path d="M262.265 208.423a11.02 11.02 0 0 0-6.809-10.185 11.033 11.033 0 0 0-15.039 8.034 11.02 11.02 0 0 0 4.69 11.317 11.038 11.038 0 0 0 13.927-1.371 11.021 11.021 0 0 0 3.231-7.795zm-3.96 0a7.05 7.05 0 0 1-4.363 6.507 7.051 7.051 0 0 1-4.075.396 7.053 7.053 0 0 1-5.134-9.615 7.054 7.054 0 0 1 13.572 2.712z"
        fill="#373737"></path>
      <path d="M260.284 236.482a6.517 6.517 0 0 1-6.519-6.515 6.517 6.517 0 0 1 6.519-6.515c3.6 0 6.518 2.917 6.518 6.515a6.516 6.516 0 0 1-6.518 6.515z" ></path>
      <path d="M268.784 229.967a8.49 8.49 0 0 0-5.255-7.841 8.506 8.506 0 0 0-9.26 1.849 8.494 8.494 0 0 0 6.015 14.499 8.506 8.506 0 0 0 8.5-8.507zm-3.959 0a4.542 4.542 0 0 1-7.752 3.209 4.535 4.535 0 0 1-.984-4.946 4.54 4.54 0 0 1 8.736 1.737z"
        fill="#373737"></path>
      <path d="M277.34 250.02a3.739 3.739 0 0 1-3.74-3.738 3.739 3.739 0 0 1 3.74-3.737 3.739 3.739 0 1 1 0 7.475z" ></path>
      <path d="M283.06 246.283a5.713 5.713 0 0 0-3.531-5.283 5.721 5.721 0 0 0-7.475 7.471 5.725 5.725 0 0 0 5.285 3.529 5.728 5.728 0 0 0 5.721-5.717zm-3.96 0a1.76 1.76 0 0 1-3.006 1.244 1.763 1.763 0 0 1-.382-1.918 1.765 1.765 0 0 1 1.627-1.087 1.76 1.76 0 0 1 1.761 1.761z"
        fill="#373737"></path>
    </g>
    <defs>
      <clipPath id="clip0">
        <path  transform="matrix(-1 0 0 1 296 0)" d="M0 0h296v252H0z"></path>
      </clipPath>
    </defs>
  </symbol>
  <symbol viewBox="0 0 20 20" xmlns="http://www.w3.org/2000/svg" id="garbage">
    <g clip-path="url(#clip0)">
      <path d="M10 .001c-5.514 0-10 4.486-10 10s4.486 10 10 10 10-4.486 10-10S15.514 0 10 0zm0 18.36c-4.61 0-8.36-3.75-8.36-8.36 0-4.61 3.75-8.36 8.36-8.36 4.61 0 8.36 3.75 8.36 8.36 0 4.61-3.75 8.36-8.36 8.36z"></path>
      <path d="M14.326 6.162l-5.937 5.937-2.715-2.714a.82.82 0 0 0-1.16 1.159l3.295 3.294a.817.817 0 0 0 1.16 0l6.516-6.517a.82.82 0 0 0-1.16-1.16z"></path>
    </g>
    <defs>
      <clipPath id="clip0">
        <path d="M0 0h20v20H0z"></path>
      </clipPath>
    </defs>
  </symbol>
  <symbol viewBox="0 0 16 16" xmlns="http://www.w3.org/2000/svg" id="pensil-edit">
    <path fill-rule="evenodd" clip-rule="evenodd" d="M9.787.67c.834-.898 2.047-.896 2.927.022.568.594.835 1.283.568 2.114-.105.326-.347.687-.56.862l-.977-.999c-.652-.665-1.304-1.33-1.958-2zM3.516 12.115h.003l.016-.006 1.272-.367-2.914-2.97-.009-.01v.002a.152.152 0 0 0-.026.047l-.18.644c-.22.782-.439 1.565-.65 2.349a.658.658 0 0 0 .79.8 7.33 7.33 0 0 0 .28-.079l.104-.03 1.308-.378.006-.002zm12.208 2.468H.275c-.247 0-.273.028-.274.29v.726c-.002.4-.002.4.396.4h15.309c.259 0 .293-.033.293-.294v-.85c-.002-.242-.033-.272-.275-.272zM5.76 10.635l.037.037 5.865-5.981-.967-.988L8.77 1.737 2.902 7.723l2.86 2.912z"></path>
  </symbol>
  <symbol viewBox="0 0 19 19" xmlns="http://www.w3.org/2000/svg" id="box">
    <path d="M7.97 9.65l.852.492V19l-7.667-4.427V5.716L7.971 9.65zM6.584 1.707L9.532 0l7.88 4.549-2.952 1.707-7.876-4.55zM1.656 4.549l3.398-1.936 7.876 4.55-.45.232-2.948 1.703-2.933-1.691-4.943-2.858zm11.869 5.869l1.412-.725V7.438l2.909-1.675v8.794l-7.612 4.396v-8.795l3.291-1.896v2.156z"></path>
  </symbol>
  <symbol viewBox="0 0 26 24"  xmlns="http://www.w3.org/2000/svg" id="Analyticts">
    <path fill-rule="evenodd" clip-rule="evenodd" d="M1.439 13.169C.562 13.18.317 13.348 0 14.175v.449c.218.749.734 1.009 1.47.958a19.95 19.95 0 0 1 1.04-.039 31.785 31.785 0 0 0 7.487-1.039c4.012-1.06 7.611-2.914 10.679-5.778.252-.235.498-.477.747-.722l.314-.308.078.074c.048.045.091.086.133.129l.748.758v.001l.002.002h.001v.001l1.127 1.142c.293.296.642.434 1.055.35.642-.127.993-.58.994-1.282l.001-2.662c0-1.676 0-3.352.007-5.028.003-.76-.327-1.17-1.08-1.173-2.59-.011-5.18-.012-7.77.009-.263.002-.57.122-.777.289-.545.44-.553 1.246-.052 1.76.528.54 1.06 1.076 1.593 1.613l.621.626-.03.04a.76.76 0 0 1-.048.064c-2.33 2.649-5.008 4.848-8.138 6.457-2.753 1.415-5.657 2.263-8.763 2.303zm24.52 8.796L26 21.81v-7.691l-.018-.042a.309.309 0 0 1-.032-.086c-.226-1.211-1.162-2.003-2.372-2.005H21.31c-1.349.002-2.389.984-2.405 2.36-.028 2.422-.028 4.846.001 7.269.015 1.297.963 2.276 2.227 2.334.892.041 1.789.034 2.681-.006.978-.045 1.798-.75 2.073-1.704.026-.09.05-.182.073-.274zM0 21.305l.04-.155c.028-.11.055-.22.09-.328a2.364 2.364 0 0 1 2.238-1.65c.802-.001 1.604-.002 2.406.002 1.261.005 2.281 1.03 2.325 2.333.043 1.253-.916 2.368-2.155 2.435-.901.048-1.808.046-2.709.006-1.115-.05-1.963-.843-2.182-1.958-.006-.03-.02-.057-.034-.084L0 21.866v-.561zm12.447 2.674c.183.005.365.01.546.02 0-.017 0-.033.002-.051.148 0 .296.003.445.006.322.006.644.012.965-.011 1.189-.084 2.129-1.126 2.134-2.342.004-.823.004-1.646 0-2.47-.005-1.136-.841-2.194-1.95-2.301a16.782 16.782 0 0 0-3.006-.032c-1.298.11-2.121 1.137-2.122 2.463v2.302c.003 1.12.719 2.09 1.8 2.316.387.08.787.09 1.186.1z"
      ></path>
  </symbol>
  <symbol viewBox="0 0 12 8"  xmlns="http://www.w3.org/2000/svg" id="arrow">
    <path d="M1 1l4.832 5L11 1" stroke-width="2"></path>
  </symbol>
  <symbol viewBox="0 0 8 12"  xmlns="http://www.w3.org/2000/svg" id="arrow-right">
    <path d="M1 11l5-4.832L1 1" stroke-width="2"></path>
  </symbol>
  <symbol viewBox="0 0 14 16"  xmlns="http://www.w3.org/2000/svg" id="basket">
    <path d="M13.708 1.934h-3.5C10.176 1.603 9.525.701 9.141.342A1.298 1.298 0 0 0 8.224 0H5.307a1.3 1.3 0 0 0-.917.342c-.384.36-1.026 1.26-1.058 1.592H.292C.13 1.934 0 2.053 0 2.2c0 .147.13.265.292.265h.595l.558 12.214C1.456 15.136 1.77 16 2.877 16h8.246c1.108 0 1.42-.864 1.431-1.316l.559-12.219h.595c.161 0 .292-.118.292-.265 0-.147-.13-.266-.292-.266zM4.375 13.612c0 .146-.13.265-.292.265-.16 0-.291-.119-.291-.266V4.854c0-.147.13-.266.291-.266.161 0 .292.119.292.266v8.758zm2.917 0c0 .146-.131.265-.292.265-.161 0-.292-.119-.292-.266V4.854c0-.147.131-.266.292-.266.161 0 .292.119.292.266v8.758zm2.916 0c0 .146-.13.265-.291.265-.161 0-.292-.119-.292-.266V4.854c0-.147.13-.266.292-.266.16 0 .291.119.291.266v8.758zM5 1.32c.13-.122.184-.267.388-.267h2.663c.204 0 .318.145.449.267.235.218.494.335.526.613H4.39c.11-.124.376-.395.61-.613z"
      ></path>
  </symbol>
  <symbol viewBox="0 0 6 5"  xmlns="http://www.w3.org/2000/svg" id="caret-down">
    <path d="M5.889 3.576a.36.36 0 0 1-.264.112H.375a.36.36 0 0 1-.264-.112A.36.36 0 0 1 0 3.312a.36.36 0 0 1 .111-.263L2.736.424A.36.36 0 0 1 3 .312a.36.36 0 0 1 .264.112l2.625 2.625A.36.36 0 0 1 6 3.312a.36.36 0 0 1-.111.264z"></path>
  </symbol>
  <symbol viewBox="0 0 21 20"  xmlns="http://www.w3.org/2000/svg" id="clear">
    <path fill-rule="evenodd" clip-rule="evenodd" d="M11.308 8.868l3.008 3.009c.097-.197.198-.395.3-.593.236-.457.475-.92.665-1.402.314-.801.14-1.558-.437-2.211a7.129 7.129 0 0 0-.173-.186l-.082-.086.094-.07c.06-.045.115-.085.163-.132a5605.46 5605.46 0 0 0 5.051-5.05l.028-.028c.075-.074.15-.148.215-.232.517-.657.2-1.62-.607-1.84-.48-.133-.872.026-1.215.368-.731.734-1.464 1.466-2.196 2.2-.977.976-1.954 1.953-2.929 2.932-.05.05-.082.119-.115.187a.938.938 0 0 1-.048.095l-.128-.046c-.044-.05-.086-.1-.128-.152a2.619 2.619 0 0 0-.271-.297c-.604-.54-1.322-.749-2.079-.471-.515.19-1.01.438-1.497.683-.21.106-.42.21-.629.31l3.01 3.012zm1.767 4.116l-.648-.649c-.932 2.12-2.122 4.052-3.642 5.809-3.73-1.704-6.043-4.536-6.968-8.576A8.745 8.745 0 0 0 8.36 8.226l-.263-.263c-.297-.296-.585-.585-.88-.866-.041-.04-.166-.033-.226 0-1.89.982-3.86 1.185-5.913.623-.61-.167-1.143.306-1.073.938l.02.18c.03.274.06.548.112.816.962 4.984 3.812 8.403 8.527 10.268.408.162.737.067 1.03-.253 1-1.104 1.909-2.278 2.67-3.558.336-.565.648-1.145.956-1.716.137-.255.273-.507.41-.756l-.655-.655z"
      ></path>
  </symbol>
  <symbol viewBox="0 0 24 24"  xmlns="http://www.w3.org/2000/svg" id="close">
    <path d="M10.853 11.92L.23 22.543a.755.755 0 1 0 1.068 1.068L12 12.908l10.703 10.703a.752.752 0 0 0 1.068 0 .755.755 0 0 0 0-1.068L13.149 11.92l10.63-10.63A.755.755 0 1 0 22.71.22L12 10.932 1.291.221A.755.755 0 0 0 .221 1.29l10.63 10.63z"></path>
  </symbol>
  <symbol viewBox="0 0 30 23" xmlns="http://www.w3.org/2000/svg" id="contacts">
    <path fill-rule="evenodd" clip-rule="evenodd" d="M15.011 14.818a3.966 3.966 0 0 0 2.23-.718c2.247-1.534 4.49-3.077 6.735-4.617.989-.677 1.98-1.351 2.964-2.037.482-.336.623-.835.528-1.395-.081-.482-.406-.761-.861-.87-.418-.103-.784.047-1.13.284-3.183 2.186-6.368 4.37-9.553 6.554-.617.423-1.109.422-1.732-.005-3.16-2.169-6.32-4.337-9.482-6.502a2.356 2.356 0 0 0-.512-.284c-.6-.22-1.256.008-1.506.506-.323.643-.163 1.352.41 1.744 3.231 2.22 6.463 4.44 9.701 6.652a3.883 3.883 0 0 0 2.208.688zM30 4.552v13.895c-.017.045-.043.089-.05.135-.315 2.108-1.757 3.749-3.755 4.266-.215.056-.432.101-.648.152H4.454c-.054-.018-.107-.046-.162-.055-1.98-.292-3.609-1.772-4.12-3.748-.065-.248-.115-.5-.172-.75V4.552c.017-.055.045-.108.053-.166C.34 2.361 1.787.696 3.72.175c.242-.066.49-.117.734-.175h21.093c.053.018.107.045.162.054 1.98.293 3.608 1.772 4.12 3.749.064.247.114.5.171.749z"></path>
  </symbol>
  <symbol viewBox="0 0 24 24"  xmlns="http://www.w3.org/2000/svg" id="dashboard">
    <path fill-rule="evenodd" clip-rule="evenodd" d="M23.029 11.975c.514-.099.8-.446.971-.912v-.656a23.128 23.128 0 0 1-.091-.47c-.066-.348-.131-.696-.231-1.033C22.257 4.13 19.084 1.21 14.262.049a1.074 1.074 0 0 1-.11-.034L14.108 0H12.75c-.6.364-.765.905-.76 1.587.017 2.278.014 4.556.012 6.834L12 10.888c0 .713.403 1.112 1.121 1.112h9.559c.117 0 .236-.002.349-.025zM0 13.125v1.594l.063.417c.047.315.094.63.157.941.56 2.78 2.098 4.882 4.469 6.392a9.776 9.776 0 0 0 4.436 1.493.5.5 0 0 1 .1.023.938.938 0 0 0 .056.015h1.547l.355-.053c.259-.038.517-.076.774-.126 4.006-.789 7.155-3.919 7.954-7.904.035-.176.066-.352.091-.53.096-.679-.406-1.303-1.104-1.37a3.345 3.345 0 0 0-.35-.013h-2.15c-1.275.001-2.55.002-3.826-.002-1.263-.003-2.32-.835-2.604-2.049a2.743 2.743 0 0 1-.069-.626c-.002-2.06.002-4.123.006-6.185.002-.744-.599-1.266-1.333-1.137C4.87 4.657 2.24 6.687.731 10.14c-.387.885-.6 1.82-.689 2.782-.004.05-.016.098-.028.146L0 13.125z"
      ></path>
  </symbol>
  <symbol viewBox="0 0 30 30"  xmlns="http://www.w3.org/2000/svg" id="error-delete">
    <path d="M15 20.83c.15 0 .27-.12.27-.27v-8.95a.271.271 0 1 0-.541 0v8.95c0 .15.121.27.27.27zm-2.712 0a.27.27 0 0 0 .271-.27v-8.95a.271.271 0 1 0-.542 0v8.95c0 .15.121.27.27.27zm5.424 0c.15 0 .27-.12.27-.27v-8.95a.271.271 0 1 0-.542 0v8.95c0 .15.122.27.272.27z"
      ></path>
    <path d="M21.237 8.627h-3.809c-.03-.339-.134-.91-.491-1.277a1.147 1.147 0 0 0-.853-.35h-2.711c-.34 0-.627.118-.853.35-.357.366-.462.938-.492 1.277H8.762a.271.271 0 1 0 0 .542h.554l.52 12.48c.01.468.3 1.351 1.33 1.351h7.667c1.03 0 1.321-.883 1.33-1.345l.52-12.486h.554a.271.271 0 1 0 0-.542zm-8.328-.9a.615.615 0 0 1 .464-.185h2.711c.19 0 .342.06.463.185.219.223.306.616.337.9h-4.31c.03-.284.117-.677.335-.9zm6.713 13.911c-.002.084-.04.82-.789.82h-7.667c-.741 0-.786-.737-.789-.825L9.86 9.169h10.28l-.52 12.47z"
      ></path>
    <circle cx="15" cy="15" r="14.5" stroke="#fff"></circle>
  </symbol>
  <symbol viewBox="0 0 24 24"  xmlns="http://www.w3.org/2000/svg" id="google">
    <path d="M5.319 14.504l-.835 3.118-3.054.065A11.946 11.946 0 0 1 0 12c0-1.99.484-3.866 1.342-5.519l2.719.499 1.19 2.702A7.133 7.133 0 0 0 4.868 12c0 .88.16 1.725.452 2.504z" fill="#FBBB00"></path>
    <path d="M23.79 9.758a12.021 12.021 0 0 1-.053 4.747 11.998 11.998 0 0 1-4.224 6.853h-.001l-3.424-.175-.485-3.025a7.153 7.153 0 0 0 3.077-3.653h-6.416V9.758H23.79z" fill="#518EF8"></path>
    <path d="M19.512 21.357v.001A11.949 11.949 0 0 1 12 24c-4.57 0-8.543-2.554-10.57-6.313l3.889-3.184a7.135 7.135 0 0 0 10.284 3.655l3.909 3.2z" fill="#28B446"></path>
    <path d="M19.66 2.763l-3.888 3.182a7.137 7.137 0 0 0-10.52 3.736l-3.91-3.2A11.998 11.998 0 0 1 12 0a11.95 11.95 0 0 1 7.66 2.763z" fill="#F14336"></path>
  </symbol>
  <symbol viewBox="0 0 22 24"  xmlns="http://www.w3.org/2000/svg" id="invoices">
    <path fill-rule="evenodd" clip-rule="evenodd" d="M9.917 15.269c-1.108 0-2.216-.004-3.325.001-.562.002-.962.316-1.063.816-.16.793.304 1.36 1.13 1.363 1.649.006 3.299.002 4.948.002.524 0 1.049.006 1.573-.002.563-.009.939-.279 1.071-.747.222-.788-.261-1.43-1.086-1.433-1.083-.003-2.165 0-3.248 0zM11 13.085h.669c1.271-.001 2.543.007 3.813-.007.583-.006.957-.391 1.015-.984.053-.546-.261-1.018-.774-1.142a1.858 1.858 0 0 0-.435-.036l-8.554-.001c-.111 0-.224.001-.334.013a.998.998 0 0 0-.853.714c-.228.785.249 1.437 1.073 1.44 1.46.007 2.92.002 4.38.003zM4.141 0h9.231c.775.288.928.508.928 1.342 0 1.174-.005 2.348.003 3.522.002.236.023.478.078.707.301 1.25 1.368 2.065 2.713 2.074 1.262.008 2.525-.003 3.788.004.694.003 1.109.394 1.11 1.067.005 3.684.018 7.367-.008 11.05-.013 1.932-1.426 3.625-3.322 4.082-.265.065-.536.103-.805.152H4.141c-.235-.041-.473-.072-.705-.126C1.4 23.405.013 21.682.005 19.59c-.009-2.355-.003-4.711-.003-7.066 0-2.705-.006-5.409.003-8.114C.012 2.326 1.384.611 3.41.132c.241-.056.487-.089.731-.132z"
      ></path>
  </symbol>
  <symbol viewBox="0 0 24 21"  xmlns="http://www.w3.org/2000/svg" id="PricesOffer">
    <path fill-rule="evenodd" clip-rule="evenodd" d="M7.307 5.73c-.501.016-1.249-.557-1.214-1.17-.005-.547.565-1.115 1.12-1.124.805-.01 1.298.605 1.3 1.117.002.567-.617 1.16-1.206 1.176zm.001 12.578v-.009H4.064c-.097 0-.193-.005-.29-.01a6.52 6.52 0 0 0-.261-.01c-.456-.004-.966-.483-1.052-.914-.093-.461.116-.903.566-1.17a1.19 1.19 0 0 1 .626-.183l3.911.003c1.043 0 2.086 0 3.128.002.154 0 .309.006.46.026.826.108 1.282 1.044.82 1.694-.233.328-.544.55-.995.55-.293 0-.585.005-.878.01-.202.004-.404.008-.605.01a65.024 65.024 0 0 1-1.093.001H7.308zM7.388 0h-.184a5.888 5.888 0 0 0-.093.012l-.123.015a.946.946 0 0 0-.648.354l-.156.19c-.217.26-.435.52-.629.795-.71 1.008-1.419 2.016-2.127 3.025A1273.02 1273.02 0 0 1 .53 8.506c-.353.5-.493 1.037-.506 1.62-.002.09-.008.181-.014.272l-.01.147v4.019l.005.058c.004.038.007.076.008.113.003.263.009.525.014.787.013.602.026 1.204.012 1.805-.03 1.387 1.084 2.58 2.228 3.008a3.4 3.4 0 0 0 1.177.21l1.323.015a1.01 1.01 0 0 1 .135.012h4.81l.24-.007.356-.01.112-.002c.293-.006.585-.012.877-.013.631-.002 1.185-.216 1.693-.543.776-.501 1.3-1.177 1.511-2.043.063-.256.064-.529.065-.794v-.01c.004-2.25.004-4.496 0-6.742a9.807 9.807 0 0 0-.053-.873c-.037-.404-.201-.77-.435-1.102l-.148-.211a520.024 520.024 0 0 0-3.126-4.434A185.374 185.374 0 0 0 8.594.785L8.438.573c-.1-.134-.24-.245-.376-.353L8.023.19C7.876.072 7.691.03 7.5.018c-.024-.001-.048-.006-.072-.01L7.388 0zm16.566 13.934l.046-.212v-.627l-.007-.03a.497.497 0 0 1-.013-.074 2.866 2.866 0 0 0-.383-1.2l-.848-1.405c-.94-1.556-1.88-3.112-2.802-4.677-.4-.674-.927-1.191-1.667-1.52a.908.908 0 0 1-.04-.021l-.04-.02a21349.294 21349.294 0 0 1-6.182-2.937c-.009-.005-.019-.007-.033-.01-.008 0-.018-.003-.03-.006l.042.06.038.054.465.653c.334.467.668.934.994 1.405a689.84 689.84 0 0 1 3.104 4.517c.276.403.494.842.573 1.32a8.7 8.7 0 0 1 .105 1.15c.023.73.036 1.46.05 2.19l.014.769a2.78 2.78 0 0 1 0 .134l.06-.033.355-.2 2.105-1.152a.916.916 0 0 1 .486-.102c.365.017.657.174.907.415.233.225.325.486.318.802-.01.379-.167.667-.485.883a7.828 7.828 0 0 1-.498.31c-1.056.6-2.11 1.199-3.168 1.797-.066.037-.096.076-.097.152-.002.165-.01.329-.018.493l-.005.122c-.035.744-.145 1.476-.456 2.169-.006.015-.01.031-.015.05a1.09 1.09 0 0 1-.01.037l.043-.022.034-.018.73-.397c.599-.325 1.198-.65 1.794-.979.184-.1.367-.202.551-.303.815-.448 1.63-.895 2.438-1.354a3.065 3.065 0 0 0 1.545-2.184z"
      ></path>
  </symbol>
  <symbol viewBox="0 0 30 27" xmlns="http://www.w3.org/2000/svg" id="Products">
    <path fill-rule="evenodd" clip-rule="evenodd" d="M1.207 0C.633-.004.226.172 0 .706v9.777c.226.532.633.71 1.207.706 2.205-.013 4.408-.011 6.613-.01l2.315.002c.762 0 1.114-.346 1.114-1.096V1.102c0-.748-.35-1.094-1.114-1.094L7.82.009C5.616.011 3.412.013 1.207 0zM28.88 22.355c-2.117-.002-4.235-.002-6.352-.002-2.165 0-4.332 0-6.499.002-.658 0-1.028.373-1.03 1.03l-.001.245c-.002.49-.003.98.002 1.47.004.583.388.976.967.976 4.351.003 8.704.003 13.056 0 .58 0 .968-.39.973-.972a163.564 163.564 0 0 0 0-1.627c0-.78-.34-1.122-1.116-1.122zM0 15.604c.227-.532.632-.71 1.207-.707 2.183.013 4.365.011 6.547.01.794-.002 1.587-.002 2.381-.002.762 0 1.114.345 1.114 1.095v9.013c0 .71-.363 1.065-1.085 1.065l-2.6-.001a897.85 897.85 0 0 0-6.357.01c-.574.002-.981-.174-1.207-.707v-9.776zM16.077 3.732h8.037l4.873-.001c.623 0 1.006-.38 1.01-.994.004-.571.003-1.144 0-1.715-.003-.635-.38-1.012-1.02-1.012-4.323-.002-8.646-.002-12.97 0-.62 0-1.004.38-1.008.992-.003.553-.001 1.106 0 1.66.001.714.358 1.07 1.078 1.07zm6.43 3.725h6.411c.72 0 1.08.356 1.08 1.07v.276c.002.46.003.92 0 1.381-.005.616-.387.995-1.008.995-4.322.003-8.645.003-12.968.002-.64-.002-1.019-.377-1.023-1.011-.002-.572-.002-1.144.002-1.716.002-.615.386-.996 1.007-.996 1.624-.002 3.249-.002 4.874-.002h1.625zm6.374 7.448h-12.82c-.697 0-1.06.366-1.062 1.061v.241c-.002.482-.003.964.002 1.446.005.582.388.974.967.974 4.354.003 8.704.003 13.058 0 .58 0 .966-.39.971-.972.004-.458.003-.919.001-1.38V16c0-.749-.354-1.093-1.117-1.095z"
    ></path>
  </symbol>
  <symbol viewBox="0 0 23 24"  xmlns="http://www.w3.org/2000/svg" id="setting">
    <path fill-rule="evenodd" clip-rule="evenodd" d="M11.508 15.995c2.262-.004 4.094-1.794 4.093-3.998-.002-2.204-1.835-3.991-4.097-3.992C9.23 8.003 7.392 9.799 7.4 12.013c.006 2.204 1.845 3.986 4.108 3.982zM10.154 0h2.694c.027.014.053.033.082.041 1.037.247 1.648 1.004 1.65 2.048 0 .436-.004.874 0 1.311.017 1.516 1.698 2.458 3.053 1.712.398-.219.805-.425 1.182-.675 1.05-.695 2.306-.273 2.882.718.312.536.619 1.077.966 1.591.677 1.003.282 2.196-.712 2.764-.386.221-.776.437-1.161.662-1.41.822-1.407 2.736.004 3.558.323.189.643.383.976.553 1.192.609 1.46 2.07.849 3.126-.311.537-.637 1.065-.962 1.595-.586.958-1.752 1.256-2.752.703-.431-.239-.855-.491-1.288-.729-1.343-.736-3.018.211-3.036 1.715-.005.445.003.89-.003 1.335-.011.861-.597 1.621-1.44 1.879-.096.029-.193.062-.29.093h-2.694c-.028-.014-.054-.034-.083-.041-1.037-.246-1.648-1.005-1.65-2.048 0-.461.01-.922-.003-1.383-.04-1.385-1.606-2.324-2.882-1.728-.477.222-.965.429-1.411.703-.975.599-2.222.27-2.824-.762-.308-.529-.611-1.063-.955-1.571-.713-1.055-.255-2.262.747-2.809.427-.232.852-.469 1.265-.723 1.208-.745 1.209-2.532.002-3.276-.393-.242-.8-.461-1.201-.69C.119 9.075-.25 7.784.34 6.757c.337-.585.688-1.163 1.05-1.734a1.991 1.991 0 0 1 2.528-.717c.498.232.992.474 1.48.726 1.372.708 3.007-.234 3.022-1.747.004-.445-.006-.892.004-1.336C8.44 1.14 8.97.419 9.75.134c.133-.049.269-.09.404-.134z"
      ></path>
  </symbol>
  <symbol id="sprite"></symbol>
  <symbol viewBox="0 0 19 19"  xmlns="http://www.w3.org/2000/svg" id="user">
    <path fill-rule="evenodd" clip-rule="evenodd" d="M13.03 9.857c1.15-1.187 1.62-2.64 1.652-4.204-.026-1.497-.417-2.824-1.354-3.959-.85-1.027-1.925-1.66-3.303-1.693-1.343-.033-2.43.52-3.313 1.481-.99 1.08-1.461 2.379-1.523 3.817-.071 1.665.385 3.169 1.518 4.435 1.737 1.941 4.51 1.998 6.323.123zM2.603 13.548C1.433 14.456.434 15.501 0 16.977v.313l.031.122c.022.088.043.177.075.261.302.78.88 1.206 1.695 1.315.087.011.176.01.264.01h5.41c3.143 0 6.286 0 9.43.002.731 0 1.337-.261 1.742-.878.116-.177.185-.386.254-.594a5.57 5.57 0 0 1 .099-.283v-.313a8.835 8.835 0 0 1-.137-.365c-.097-.268-.193-.536-.336-.776-1.01-1.7-2.506-2.827-4.31-3.552-.6-.24-1.205-.185-1.792.145-1.934 1.09-3.881 1.082-5.83.022-.54-.293-1.113-.356-1.69-.133a9.068 9.068 0 0 0-2.302 1.275z"
      ></path>
  </symbol>
  <symbol viewBox="0 0 30 30"  xmlns="http://www.w3.org/2000/svg" id="win">
    <path d="M15 .001c-8.271 0-15 6.729-15 15 0 8.27 6.729 15 15 15s15-6.73 15-15C30 6.73 23.271 0 15 0zm0 27.54c-6.915 0-12.541-5.625-12.541-12.54C2.459 8.086 8.085 2.46 15 2.46S27.541 8.086 27.541 15c0 6.916-5.626 12.542-12.54 12.542z" ></path>
    <path d="M21.489 9.243l-8.906 8.906-4.072-4.072a1.23 1.23 0 0 0-1.739 1.739l4.941 4.941a1.226 1.226 0 0 0 1.74 0l9.775-9.775a1.23 1.23 0 0 0-1.739-1.74z" ></path>
  </symbol>
  <symbol viewBox="0 0 24 24" xmlns="http://www.w3.org/2000/svg" id="user-forward-arrow">
    <path d="M24 11.333L14.667 2v5.333C5.333 8.667 1.333 15.333 0 22c3.333-4.667 8-6.8 14.667-6.8v5.467L24 11.333z" ></path>
  </symbol>
  <symbol viewBox="0 0 24 24" fill="none" xmlns="http://www.w3.org/2000/svg" id="Ukraine">
    <path d="M24 4H0v16h24V4z" fill="#FFDA44"></path>
    <path d="M24 4H0v8h24V4z" fill="#338AF3"></path>
  </symbol>
  <symbol viewBox="0 0 24 24" xmlns="http://www.w3.org/2000/svg" id="user-globe">
    <g clip-path="url(#clip0)">
      <path d="M22.391 5.976a11.95 11.95 0 0 0-4.367-4.367C16.185.536 14.178 0 12 0 9.823 0 7.816.536 5.977 1.61A11.947 11.947 0 0 0 1.61 5.975C.536 7.816 0 9.823 0 12s.537 4.185 1.61 6.023a11.953 11.953 0 0 0 4.367 4.368C7.815 23.464 9.823 24 12 24c2.177 0 4.185-.537 6.024-1.61a11.947 11.947 0 0 0 4.367-4.367C23.464 16.183 24 14.176 24 12s-.536-4.185-1.609-6.024zm-8.89 12.338c-.104-.125-.14-.23-.11-.313-.01.052-.046.1-.108.14a1.492 1.492 0 0 0-.282-.234 1.479 1.479 0 0 1-.281-.235 14.49 14.49 0 0 1-.227-.36 1.58 1.58 0 0 1-.125-.241c-.025-.068-.028-.107-.007-.117-.198.084-.485.026-.86-.172-.072-.042-.182-.151-.328-.328-.146-.177-.297-.255-.453-.235-.052.01-.122.03-.21.055a.818.818 0 0 1-.227.04.714.714 0 0 1-.25-.064 2.022 2.022 0 0 1-.336-.18 2.234 2.234 0 0 0-.29-.163l-.202-.11-.25-.124a.766.766 0 0 1-.196-.148.495.495 0 0 1-.133-.212 3.004 3.004 0 0 1-.078-.375 1.151 1.151 0 0 0-.125-.406 1.406 1.406 0 0 0-.265-.312c-.115-.104-.219-.157-.313-.157.084 0 .084-.07 0-.21a1.582 1.582 0 0 0-.218-.305 19.449 19.449 0 0 1-.453-.5 1.248 1.248 0 0 1-.188-.29c-.052-.109-.063-.2-.031-.273.01-.01 0-.026-.032-.047a.808.808 0 0 0-.117-.062 2.616 2.616 0 0 0-.133-.055.307.307 0 0 0-.093-.023c.02.042.044.117.07.226.026.11.055.19.086.243.02.041.11.193.266.453.27.437.395.76.375.968-.063.021-.105.01-.125-.03a.569.569 0 0 1-.047-.172.983.983 0 0 0-.032-.157c-.03-.062-.112-.13-.242-.203-.13-.073-.211-.146-.242-.219.01 0 .023-.005.039-.016a.076.076 0 0 1 .04-.015c.01-.094-.045-.213-.165-.36-.12-.145-.169-.25-.148-.312-.084-.063-.157-.185-.22-.367-.062-.182-.114-.3-.155-.352a.668.668 0 0 0-.157-.164 3.08 3.08 0 0 0-.234-.156 6.787 6.787 0 0 1-.188-.117.6.6 0 0 1-.125-.14c-.343-.417-.447-.641-.312-.672-.135.03-.247-.07-.336-.305-.089-.234-.117-.414-.086-.54l-.031-.015c.01-.042.016-.164.016-.367 0-.203.013-.388.039-.555.026-.167.075-.25.148-.25-.073.01-.127-.055-.164-.195-.036-.141-.039-.237-.008-.29.01-.03.058-.01.14.063a.8.8 0 0 1 .141.14c.136-.072.188-.166.157-.28-.021-.042-.13-.152-.328-.329-.448-.291-.678-.432-.688-.422.062-.114.047-.213-.047-.297-.104.063-.164.078-.18.047a.605.605 0 0 1-.039-.172c-.01-.083-.036-.13-.078-.14-.052-.01-.114-.052-.187-.125a9.86 9.86 0 0 1 3.672-3.469 2.5 2.5 0 0 1 .343-.015c.083.01.162.036.235.078.072.041.148.099.226.171.078.073.138.125.18.157.02-.063-.005-.157-.078-.282.02-.062.135-.125.343-.187.24-.031.396-.026.47.015a4.11 4.11 0 0 0-.313-.39l-.078.078c-.084-.073-.302-.037-.657.11-.02.01-.072.038-.156.085-.083.047-.151.08-.203.102a.385.385 0 0 1-.188.015c.5-.27.99-.484 1.47-.64.03.02.083.065.156.132.072.068.13.117.171.149-.03-.021-.052-.01-.062.03-.042.126-.042.23 0 .313a.29.29 0 0 0 .21.125c.09.01.196.006.321-.015.125-.021.209-.032.25-.032l.156.016c.334.031.464 0 .391-.094.031.042.068.128.11.258.041.13.088.222.14.274.052-.042.063-.115.031-.22-.031-.103-.031-.176 0-.218.01-.02.042-.042.094-.062a5.98 5.98 0 0 1 .18-.07c.067-.027.112-.045.133-.055.062-.042.02-.115-.125-.22a1.073 1.073 0 0 0-.133-.046 2.249 2.249 0 0 1-.18-.062.993.993 0 0 1-.164-.086c-.057-.037-.083-.078-.078-.125a.421.421 0 0 1 .086-.18c.062-.052.164-.073.305-.063.14.01.247.037.32.078.281.157.323.298.125.422.104.01.23.052.375.125.146.073.203.151.172.235.083-.157.167-.235.25-.235.052.01.102.081.148.211.047.13.076.2.086.211.084.115.166.14.25.078a1.27 1.27 0 0 0 .258-.273c.088-.12.138-.175.148-.164-.104-.042-.115-.083-.03-.125.155-.094.296-.12.421-.078.031.02.073.068.125.14.093.188.078.276-.047.266a.341.341 0 0 1 .117.313c-.015.125-.097.182-.242.171a.554.554 0 0 1-.227-.078.702.702 0 0 0-.227-.086c-.052-.005-.125.024-.219.086a2.055 2.055 0 0 0-.164.266 1.192 1.192 0 0 1-.18.266c-.155.156-.416.213-.78.171.03 0 .028.032-.009.094a3.196 3.196 0 0 1-.258.344.797.797 0 0 0-.187.36c0 .02-.005.09-.016.21a.787.787 0 0 1-.062.274c.125-.032.224.031.297.187.062.146.062.224 0 .235.344-.052.646-.031.906.062.375.136.589.271.641.407.062-.094.213-.1.453-.016.094.052.177.208.25.469.042.156.112.291.211.406.1.114.206.145.32.093l.047-.03.102-.055a.663.663 0 0 0 .085-.063c.032-.026.05-.05.055-.07.005-.02-.003-.042-.023-.063a.564.564 0 0 1-.164-.257.329.329 0 0 1 .023-.29c.031-.041.115-.104.25-.187.136-.084.22-.167.25-.25.042-.136-.01-.248-.156-.336-.146-.089-.219-.17-.219-.243 0-.052.034-.114.102-.187.068-.073.096-.14.086-.203a.76.76 0 0 0-.055-.196 1.077 1.077 0 0 1-.062-.218c-.006-.047.018-.102.07-.164.072-.042.244-.04.515.007s.448.097.532.149c.031.02.099.052.203.093.104.042.195.086.274.133.077.047.122.091.132.133h-.078a.375.375 0 0 1 .133.219c.016.083-.023.146-.117.187a.492.492 0 0 1 .25.047c.167.063.172.12.016.172a1 1 0 0 1 .132-.031.44.44 0 0 0 .21-.102.259.259 0 0 1 .071-.046.5.5 0 0 1 .07-.016.128.128 0 0 1 .094.023c.01 0 .034-.026.07-.078a3.17 3.17 0 0 1 .117-.156c.042-.052.078-.078.11-.078.03 0 .06.013.085.039a.327.327 0 0 1 .063.086l.047.101a.864.864 0 0 0 .039.086c.02.052.07.107.148.164a.42.42 0 0 1 .148.164c.01.032.031.11.063.235.03.125.073.21.124.257a.61.61 0 0 0 .235.118c.02.01.068.005.14-.016a.374.374 0 0 1 .18-.016c.047.01.07.052.07.125.063-.062.094-.104.094-.125a.66.66 0 0 0 .102.329c.057.083.148.12.273.109l-.031.344c-.031.052-.11.09-.235.117a.854.854 0 0 0-.234.07c-.031.01-.107.073-.227.188-.12.114-.169.182-.148.203-.177-.198-.443-.255-.797-.172-.396.063-.667.125-.812.188-.167.083-.282.161-.344.234a.489.489 0 0 0-.055.11c-.026.062-.052.12-.078.171-.026.052-.05.078-.07.078.063-.01.133-.06.211-.148a.909.909 0 0 1 .148-.149c.271-.177.495-.24.673-.186.23.063.266.146.11.25-.021.021-.076.029-.165.024a.563.563 0 0 0-.18.008c.095.02.173.049.235.085.063.037.078.086.047.149.167.093.198.198.094.312a.565.565 0 0 1-.484.172c.031 0 .031.021 0 .063l-.266.172c-.02.01-.089.036-.203.078a.53.53 0 0 0-.235.14.312.312 0 0 0-.047.188.827.827 0 0 1-.015.188c-.01.041-.052.052-.125.03-.031.063-.128.113-.29.149-.16.036-.267.091-.32.164.063.083.058.167-.015.25-.125.104-.235.094-.328-.031-.052.02-.091.073-.118.156a.287.287 0 0 1-.117.172c.074.115.063.198-.03.25.01 0 .033.01.07.031.036.021.075.047.117.078.041.032.067.047.078.047-.042.094-.1.14-.172.14.062.168-.016.35-.234.548a.719.719 0 0 1-.196.125c-.089.041-.17.075-.242.101a.507.507 0 0 0-.125.055c-.104.094-.183.19-.235.289a.337.337 0 0 0-.023.29c.036.093.133.155.29.187l.014.125v.28l.016.126a1.547 1.547 0 0 1 .024.414c-.005.089-.029.138-.07.148-.042.011-.1 0-.172-.031-.084-.041-.183-.27-.298-.687a1.043 1.043 0 0 0-.187-.375.468.468 0 0 1-.133.101c-.036.016-.063.019-.078.008a1.03 1.03 0 0 1-.086-.07 1.052 1.052 0 0 0-.109-.086.827.827 0 0 0-.274-.078c-.13-.02-.21-.047-.242-.078-.25.188-.401.14-.453-.14-.02.052-.018.122.008.21.026.09.039.139.039.149-.073.136-.187.146-.344.031-.062-.062-.206-.07-.43-.023-.223.046-.372.054-.445.023.01 0 .031.015.063.047a.43.43 0 0 1 .062.047.197.197 0 0 1-.047.093c-.02.02-.041.029-.062.024a.16.16 0 0 0-.07 0 .265.265 0 0 0-.071.023.97.97 0 0 0-.156.164.776.776 0 0 1-.14.148c.062.167.09.295.085.383-.005.089-.02.219-.047.39a2.91 2.91 0 0 0-.039.415c0 .166.05.36.149.578.098.219.216.37.351.453.073.042.198.068.375.078.177.01.302 0 .375-.031a.384.384 0 0 0 .14-.11.53.53 0 0 0 .079-.18c.02-.077.036-.132.047-.163.073-.198.208-.302.406-.313.125-.01.216.003.274.04.057.036.08.085.07.148a.786.786 0 0 1-.063.195c-.031.068-.07.143-.117.227a.865.865 0 0 0-.085.188c-.021.083-.04.2-.055.351a1.85 1.85 0 0 1-.04.274c.021.01.1.015.235.015 0-.02.008-.054.023-.101a.44.44 0 0 0 .024-.086c.052.084.135.13.25.14.114.011.198-.03.25-.124.021.031.084.11.188.234.104.125.161.23.172.313.01.042.03.11.062.203.031.094.042.159.031.196-.01.036-.062.054-.156.054-.042 0-.068.016-.078.047a.213.213 0 0 0 0 .117 1.032 1.032 0 0 0 .101.266c.027.046.04.075.04.085.187.344.443.438.765.282 0 .302-.073.468-.219.5-.082.02-.176-.032-.28-.157zm.234 3.53a1.255 1.255 0 0 1-.03-.25c-.011-.083.025-.195.109-.336.083-.14.124-.247.124-.32-.166-.042-.229-.177-.187-.406.02-.157.172-.365.453-.625.198-.177.26-.428.188-.75a4.328 4.328 0 0 1-.079-.594 5.344 5.344 0 0 0-.062-.547c0 .031.05.06.148.086.1.026.16.06.18.1a.946.946 0 0 0 .078-.17.8.8 0 0 1 .093-.189.531.531 0 0 1 .133-.117 1.53 1.53 0 0 1 .133-.085c.02-.01.068-.044.14-.102.073-.057.133-.101.18-.133a.52.52 0 0 1 .188-.07c.078-.015.133.008.164.07.052.063.042.16-.031.29-.073.13-.073.221 0 .273.01-.031.02-.099.03-.203a.378.378 0 0 1 .095-.235.356.356 0 0 1 .18-.109.223.223 0 0 1 .155.024c.047.026.102.062.164.109.063.047.12.075.172.085.156.053.344.167.563.344-.01-.01-.01-.023 0-.039a.165.165 0 0 1 .062-.047.691.691 0 0 0 .086-.047.44.44 0 0 1 .086-.038l.047-.016a.535.535 0 0 0 .156-.016c.03-.01.076 0 .133.032a1.069 1.069 0 0 1 .226.156c.052.041.089.073.109.093.031.02.088.058.172.11l.195.124a.41.41 0 0 1 .125.14c.036.064.05.131.04.204a2.4 2.4 0 0 1 .374.125.56.56 0 0 0 .196.055c.099.015.164.039.195.07-1.51 1.594-3.338 2.579-5.483 2.954z"
        ></path>
    </g>
    <defs>
      <clipPath id="clip0">
        <path  d="M0 0h24v24H0z"></path>
      </clipPath>
    </defs>
  </symbol>
  <symbol viewBox="0 0 24 24" xmlns="http://www.w3.org/2000/svg" id="user-settigns">
    <path fill-rule="evenodd" clip-rule="evenodd" d="M23.924 10.668c-.037-.338-.43-.591-.771-.591-1.1 0-2.076-.646-2.485-1.645a2.673 2.673 0 0 1 .671-2.967.666.666 0 0 0 .073-.905 11.875 11.875 0 0 0-1.9-1.92.668.668 0 0 0-.913.074c-.715.792-2 1.086-2.993.672a2.665 2.665 0 0 1-1.62-2.605.666.666 0 0 0-.59-.701 11.98 11.98 0 0 0-2.7-.007.668.668 0 0 0-.593.686 2.67 2.67 0 0 1-1.644 2.56c-.98.401-2.256.11-2.97-.676a.67.67 0 0 0-.906-.076 11.92 11.92 0 0 0-1.941 1.92.668.668 0 0 0 .072.912 2.66 2.66 0 0 1 .67 2.994c-.414.986-1.438 1.622-2.61 1.622a.652.652 0 0 0-.694.589 12.02 12.02 0 0 0-.005 2.729c.038.339.443.59.787.59 1.045-.027 2.048.62 2.47 1.644a2.668 2.668 0 0 1-.672 2.968.667.667 0 0 0-.073.904c.558.71 1.198 1.356 1.899 1.92.275.222.675.19.913-.072.718-.794 2.003-1.088 2.992-.673a2.661 2.661 0 0 1 1.623 2.605c-.02.353.239.66.589.7a11.924 11.924 0 0 0 2.7.008.668.668 0 0 0 .594-.687 2.667 2.667 0 0 1 1.642-2.56c.987-.403 2.258-.107 2.972.677a.67.67 0 0 0 .905.076 11.948 11.948 0 0 0 1.942-1.92.666.666 0 0 0-.072-.912 2.659 2.659 0 0 1-.673-2.993 2.687 2.687 0 0 1 2.455-1.627l.149.004a.668.668 0 0 0 .702-.588c.106-.903.107-1.82.005-2.73zm-11.905 5.36a4.007 4.007 0 0 1-4.003-4.003 4.007 4.007 0 0 1 4.003-4.002 4.007 4.007 0 0 1 4.002 4.002 4.007 4.007 0 0 1-4.002 4.003z"
      ></path>
  </symbol>
  <symbol viewBox="0 0 24 24" xmlns="http://www.w3.org/2000/svg" id="user-shopping-cart">
    <path d="M7.2 19.2c-1.32 0-2.4 1.08-2.4 2.4 0 1.32 1.08 2.4 2.4 2.4 1.32 0 2.4-1.08 2.4-2.4 0-1.32-1.08-2.4-2.4-2.4zM0 0v2.4h2.4l4.32 9.12-1.68 2.88c-.12.36-.24.84-.24 1.2 0 1.32 1.08 2.4 2.4 2.4h14.4v-2.4H7.68c-.12 0-.24-.12-.24-.24v-.12l1.08-2.04h8.88c.96 0 1.68-.48 2.04-1.2l4.32-7.8c.24-.24.24-.36.24-.6 0-.72-.48-1.2-1.2-1.2H5.04L3.96 0H0zm19.2 19.2c-1.32 0-2.4 1.08-2.4 2.4 0 1.32 1.08 2.4 2.4 2.4 1.32 0 2.4-1.08 2.4-2.4 0-1.32-1.08-2.4-2.4-2.4z"
      ></path>
  </symbol>
  <symbol viewBox="0 0 21 20" xmlns="http://www.w3.org/2000/svg" id="exit2">
    <path fill-rule="evenodd" clip-rule="evenodd" d="M9.395 1.982h8.81l.015.037.015.036-.113.082a5.522 5.522 0 0 1-.195.138l-.891.594a601.212 601.212 0 0 1-3.865 2.565c-.255.167-.358.341-.357.654.01 3.238.01 6.476.008 9.714v1.713c0 .267 0 .399-.066.464-.065.064-.192.064-.444.064-.852.001-1.704.001-2.555-.001-.077 0-.152-.006-.238-.012l-.14-.01v-2.722l-.453.444c-.5.49-.978.96-1.447 1.437-.064.066-.065.208-.066.32v.015c-.005.674-.004 1.348-.001 2.023 0 .459.004.463.464.463l12.595-.002h.003c.067 0 .134-.007.203-.015l.11-.011V.03l-.115-.01a2.199 2.199 0 0 0-.211-.014h-3.167c-3.167 0-6.334 0-9.502-.006-.287-.001-.39.072-.387.374.006.635.006 1.27.007 1.906 0 .7 0 1.402.009 2.103.002.166.09.368.205.49.381.405.777.795 1.172 1.186l.353.349c.036.036.077.067.13.108.033.024.07.052.114.087V1.982zM4.624 7.746l2.09 2.024-.058.12H0v2.105h6.662a2.48 2.48 0 0 0 .04.094l-1.675 1.696-.373.377.819.824.583.587 4.675-4.666a25252.115 25252.115 0 0 0-4.634-4.633l-.695.694a2021 2021 0 0 0-.778.778z"></path>
  </symbol>
  <symbol viewBox="0 0 20 20" xmlns="http://www.w3.org/2000/svg" id="search">
    <path fill-rule="evenodd" clip-rule="evenodd" d="M15.219 8.92a6.311 6.311 0 0 0-6.301-6.305 6.31 6.31 0 0 0-6.309 6.296 6.31 6.31 0 0 0 6.311 6.314 6.31 6.31 0 0 0 6.299-6.306m.854 5.32l3.013 3.01c.16.16.32.318.48.48.554.556.57 1.37.039 1.894-.526.52-1.331.5-1.88-.047a2592.531 2592.531 0 0 1-3.315-3.318c-.06-.059-.105-.133-.153-.194a8.934 8.934 0 0 1-12.293-1.566c-2.848-3.552-2.577-8.685.672-11.897 3.267-3.229 8.327-3.482 11.899-.59a8.91 8.91 0 0 1 1.538 12.228"></path>
  </symbol>
   <symbol viewBox="0 0 16 16" xmlns="http://www.w3.org/2000/svg" id="delete-icon">
    <path d="M15.708 1.934h-4.5c-.032-.331-.683-1.233-1.067-1.592A1.298 1.298 0 0 0 9.224 0H6.307a1.3 1.3 0 0 0-.917.342c-.384.36-1.026 1.26-1.058 1.592H.292C.13 1.934 0 2.053 0 2.2c0 .147.13.8.292.8H1l1.446 11.679c.01.457.323 1.321 1.431 1.321h8.246c1.108 0 1.42-.864 1.431-1.316L15 3h.708c.161 0 .292-.653.292-.8 0-.147-.13-.266-.292-.266zm-9.95 11.678c0 .146-.597.265-.758.265-.161 0-.746-.119-.746-.266l-.5-8.757c0-.147.585-.266.746-.266.161 0 .758.119.758.266l.5 8.758zm2.996 0c0 .146-.593.265-.754.265-.161 0-.738-.119-.738-.266V4.854c0-.147.577-.266.738-.266.161 0 .754.119.754.266v8.758zm3 0c0 .146-.593.265-.754.265-.161 0-.742-.119-.742-.266l.5-8.757c0-.147.581-.266.742-.266.161 0 .754.119.754.266l-.5 8.758zM6 1.32c.13-.122.184-.267.388-.267h2.663c.204 0 .318.145.449.267.235.218.494.335.526.613H5.39c.11-.124.376-.395.61-.613z"></path>
  </symbol>
  <symbol viewBox="0 0 15 8" xmlns="http://www.w3.org/2000/svg" id="sort-one">
    <rect width="7" height="2" rx="1" ></rect>
    <path d="M11 0a1 1 0 0 1 1 1v6a1 1 0 1 1-2 0V1a1 1 0 0 1 1-1z" ></path>
    <path d="M10.293.293a1 1 0 0 1 1.414 0l2.121 2.121a1 1 0 1 1-1.414 1.415l-2.121-2.122a1 1 0 0 1 0-1.414z" ></path>
    <path d="M11.707.293a1 1 0 0 1 0 1.414L9.586 3.828a1 1 0 0 1-1.414-1.414L10.293.293a1 1 0 0 1 1.414 0z" ></path>
    <rect y="3" width="5" height="2" rx="1" ></rect>
    <rect y="6" width="3" height="2" rx="1" ></rect>
  </symbol>
  <symbol viewBox="0 0 16 16" xmlns="http://www.w3.org/2000/svg" id="modal-delete">
    <path d="M15.708 1.934h-4.5c-.032-.331-.683-1.233-1.067-1.592A1.298 1.298 0 0 0 9.224 0H6.307a1.3 1.3 0 0 0-.917.342c-.384.36-1.026 1.26-1.058 1.592H.292C.13 1.934 0 2.053 0 2.2c0 .147.13.8.292.8H1l1.446 11.679c.01.457.323 1.321 1.431 1.321h8.246c1.108 0 1.42-.864 1.431-1.316L15 3h.708c.161 0 .292-.653.292-.8 0-.147-.13-.266-.292-.266zm-9.95 11.678c0 .146-.597.265-.758.265-.161 0-.746-.119-.746-.266l-.5-8.757c0-.147.585-.266.746-.266.161 0 .758.119.758.266l.5 8.758zm2.996 0c0 .146-.593.265-.754.265-.161 0-.738-.119-.738-.266V4.854c0-.147.577-.266.738-.266.161 0 .754.119.754.266v8.758zm3 0c0 .146-.593.265-.754.265-.161 0-.742-.119-.742-.266l.5-8.757c0-.147.581-.266.742-.266.161 0 .754.119.754.266l-.5 8.758zM6 1.32c.13-.122.184-.267.388-.267h2.663c.204 0 .318.145.449.267.235.218.494.335.526.613H5.39c.11-.124.376-.395.61-.613z"></path>
  </symbol>
   <symbol viewBox="0 0 16 15" xmlns="http://www.w3.org/2000/svg" id="cancel">
    <path d="M15.527 6.455c-.965-2.398-3.569-3.598-7.813-3.598h-2V.572a.55.55 0 0 0-.17-.402.549.549 0 0 0-.401-.17.55.55 0 0 0-.402.17L.17 4.74a.55.55 0 0 0-.17.402.55.55 0 0 0 .17.402l4.571 4.571a.55.55 0 0 0 .402.17.55.55 0 0 0 .402-.17.55.55 0 0 0 .17-.402V7.43h2c.582 0 1.105.017 1.566.053.461.036.92.1 1.375.192.455.092.851.219 1.188.38.336.16.65.367.942.62.291.253.53.554.714.902.184.348.329.76.433 1.236a7.6 7.6 0 0 1 .156 1.616c0 .328-.015.694-.044 1.099 0 .035-.008.105-.023.21a1.839 1.839 0 0 0-.022.236c0 .09.025.163.076.223.05.06.12.09.21.09.095 0 .178-.051.25-.152.041-.054.08-.12.116-.197a15.701 15.701 0 0 0 .214-.482C15.622 11.76 16 10.417 16 9.43c0-1.185-.158-2.176-.473-2.974z"></path>
  </symbol>
  <symbol viewBox="0 0 15 8" xmlns="http://www.w3.org/2000/svg" id="sort-two">
    <rect y="6" width="7" height="2" rx="1" ></rect>
    <path d="M10.95 8a1 1 0 0 1-1-1V1a1 1 0 0 1 2 0v6a1 1 0 0 1-1 1z" ></path>
    <path d="M11.657 7.707a1 1 0 0 1-1.415 0L8.121 5.585a1 1 0 1 1 1.414-1.414l2.122 2.122a1 1 0 0 1 0 1.414z" ></path>
    <path d="M10.242 7.707a1 1 0 0 1 0-1.414l2.121-2.122a1 1 0 1 1 1.415 1.415l-2.121 2.12a1 1 0 0 1-1.415 0z" ></path>
    <rect y="3" width="5" height="2" rx="1" ></rect>
    <rect width="3" height="2" rx="1" ></rect>
  </symbol>
   <symbol viewBox="0 0 24 22" xmlns="http://www.w3.org/2000/svg" id="like">
    <path d="M24 9.9a2.19 2.19 0 0 0-2.182-2.2h-6.894l1.047-5.027a1.82 1.82 0 0 0 .033-.352c0-.451-.186-.869-.48-1.166L14.367 0 7.19 7.238A2.204 2.204 0 0 0 6.545 8.8v11c0 .584.23 1.143.64 1.556.409.412.964.644 1.542.644h9.819c.905 0 1.68-.55 2.007-1.342l3.294-7.755c.098-.253.153-.517.153-.803V9.9zM0 22h4.364V8.8H0V22z"
    ></path>
  </symbol>
  <symbol viewBox="0 0 8 12" xmlns="http://www.w3.org/2000/svg" id="right-arrow">
    <path fill-rule="evenodd" clip-rule="evenodd" d="M5.027 6L.514 1.486 2 0l6 6-6 5.999-1.486-1.487L5.027 6z"></path>
  </symbol>
  <symbol viewBox="0 0 16 16" xmlns="http://www.w3.org/2000/svg" id="add-icon-new">
    <path d="M15.132 6.885H9.116V.869C9.116.595 8.744.001 8 .001c-.744 0-1.116.594-1.116.868v6.016H.868C.594 6.885 0 7.257 0 8c0 .744.594 1.116.868 1.116h6.016v6.016c0 .274.372.868 1.116.868.744 0 1.116-.594 1.116-.868V9.117h6.016c.274 0 .868-.372.868-1.116 0-.744-.594-1.116-.868-1.116z"></path>
  </symbol>
</svg>